<svg xmlns="http://www.w3.org/2000/svg" width="2134" height="1000" viewBox="0 0 2134 1000" fill="none">
    <path d="M1389.88 155.067C1238.48 155.067 1103.19 233.54 1103.19 378.524C1103.19 544.793 1343.14 556.277 1343.14 639.806C1343.14 674.977 1302.83 706.46 1233.99 706.46C1136.3 706.46 1063.28 662.469 1063.28 662.469L1032.03 808.773C1032.03 808.773 1116.15 845.933 1227.83 845.933C1393.35 845.933 1523.6 763.607 1523.6 616.144C1523.6 440.451 1282.65 429.308 1282.65 351.779C1282.65 324.228 1315.74 294.04 1384.38 294.04C1461.83 294.04 1525.02 326.034 1525.02 326.034L1555.6 184.728C1555.6 184.728 1486.84 155.067 1389.88 155.067ZM4.73236 165.732L1.06641 187.061C1.06641 187.061 64.7599 198.718 122.126 221.971C195.99 248.635 201.252 264.158 213.692 312.37L349.249 834.935H530.963L810.909 165.732H629.611L449.729 620.727L376.327 235.052C369.595 190.911 335.497 165.732 293.759 165.732H4.73236ZM883.811 165.732L741.589 834.935H914.472L1056.19 165.732H883.811ZM1848.04 165.732C1806.35 165.732 1784.26 188.051 1768.06 227.053L1514.77 834.935H1696.07L1731.15 733.621H1952.02L1973.35 834.935H2133.32L1993.76 165.732H1848.04ZM1871.62 346.53L1925.36 597.648H1781.39L1871.62 346.53Z" fill="#1434CB"/>
</svg>