<svg xmlns="http://www.w3.org/2000/svg" width="2100" height="1000" viewBox="0 0 2100 1000" fill="none">
    <g clip-path="url(#clip0_198_1852)">
        <path d="M992.119 517.061V761.155H913.379V157.48H1118.1C1167.97 157.48 1215.22 175.853 1251.96 209.974C1288.71 241.47 1307.08 288.714 1307.08 338.583C1307.08 388.452 1288.71 433.071 1251.96 467.192C1215.22 501.312 1170.6 519.685 1118.1 519.685L992.119 517.061ZM992.119 230.971V440.945H1123.35C1152.22 440.945 1181.1 430.446 1199.47 409.449C1241.46 370.079 1241.46 304.462 1202.09 265.092L1199.47 262.467C1178.47 241.47 1152.22 228.347 1123.35 230.971H992.119Z" fill="#5F6368"/>
        <path d="M1488.18 335.96C1545.93 335.96 1590.54 351.708 1624.67 383.204C1658.79 414.7 1674.53 456.694 1674.53 509.188V761.156H1601.04V703.414H1598.42C1566.92 750.658 1522.3 774.28 1469.81 774.28C1425.19 774.28 1385.82 761.156 1354.32 734.91C1325.45 708.663 1307.08 671.918 1307.08 632.548C1307.08 590.553 1322.83 556.432 1354.32 530.185C1385.82 503.939 1430.44 493.44 1482.93 493.44C1530.18 493.44 1566.92 501.314 1595.79 519.687V501.314C1595.79 475.067 1585.3 448.82 1564.3 433.072C1543.3 414.7 1517.05 404.201 1488.18 404.201C1443.56 404.201 1409.44 422.574 1385.82 459.319L1317.58 417.324C1359.57 362.206 1414.69 335.96 1488.18 335.96ZM1388.44 635.172C1388.44 656.17 1398.94 674.542 1414.69 685.041C1433.06 698.164 1454.06 706.038 1475.06 706.038C1506.56 706.038 1538.05 692.915 1561.67 669.293C1587.92 645.671 1601.04 616.799 1601.04 585.303C1577.42 566.931 1543.3 556.432 1498.68 556.432C1467.19 556.432 1440.94 564.306 1419.94 580.054C1398.94 593.177 1388.44 611.55 1388.44 635.172Z" fill="#5F6368"/>
        <path d="M2099.73 349.083L1839.89 944.883H1761.15L1858.26 737.534L1687.66 351.707H1771.65L1895.01 648.295H1897.63L2018.37 351.707H2099.73V349.083Z" fill="#5F6368"/>
        <path d="M679.795 464.567C679.795 440.945 677.171 417.323 674.546 393.701H346.462V527.559H532.814C524.94 569.554 501.318 608.924 464.572 632.546V719.16H577.433C643.05 658.792 679.795 569.554 679.795 464.567Z" fill="#4285F4"/>
        <path d="M346.454 803.15C440.942 803.15 519.682 771.654 577.425 719.161L464.564 632.547C433.068 653.544 393.698 666.667 346.454 666.667C257.215 666.667 178.474 606.3 152.228 522.31H36.7422V611.549C97.1096 729.66 215.22 803.15 346.454 803.15Z" fill="#34A853"/>
        <path d="M152.235 522.31C136.487 480.315 136.487 433.071 152.235 388.452V299.213H36.7492C-13.1195 396.326 -13.1195 511.811 36.7492 611.549L152.235 522.31Z" fill="#FBBC04"/>
        <path d="M346.457 246.718C396.326 246.718 443.57 265.091 480.315 299.211L580.053 199.474C517.06 141.731 433.071 107.61 349.081 110.235C217.848 110.235 97.1129 183.726 39.3701 301.836L154.856 391.075C178.478 307.085 257.218 246.718 346.457 246.718Z" fill="#EA4335"/>
    </g>
    <defs>
        <clipPath id="clip0_198_1852">
            <rect width="2099.74" height="1000" fill="white"/>
        </clipPath>
    </defs>
</svg>