<?xml version="1.0" ?><svg id="Layer_5" style="enable-background:new 0 0 62 62;" version="1.1" viewBox="0 0 62 62" xml:space="preserve" xmlns="http://www.w3.org/2000/svg" xmlns:xlink="http://www.w3.org/1999/xlink"><g><g><g><path d="M49,1c6.63,0,12,5.37,12,12s-5.37,12-12,12c-2.19,0-4.24-0.58-6-1.61v-5.1     c1.47,1.66,3.61,2.71,6,2.71c2.21,0,4.21-0.9,5.66-2.34C56.1,17.21,57,15.21,57,13s-0.9-4.21-2.34-5.66C53.21,5.9,51.21,5,49,5     s-4.21,0.9-5.66,2.34C41.9,8.79,41,10.79,41,13h-4C37,6.37,42.37,1,49,1z" style="fill:#CCD1D9;"/></g><g><path d="M54.66,7.34C56.1,8.79,57,10.79,57,13s-0.9,4.21-2.34,5.66C53.21,20.1,51.21,21,49,21     c-2.39,0-4.53-1.05-6-2.71V15c0-1.1-0.9-2-2-2c0-2.21,0.9-4.21,2.34-5.66C44.79,5.9,46.79,5,49,5S53.21,5.9,54.66,7.34z" style="fill:#69D6F4;"/></g><g><path d="M43,23.39V53c0,1.1-0.9,2-2,2H13v-2v-2h26V17h-6v-4h4h4c1.1,0,2,0.9,2,2v3.29V23.39z" style="fill:#FFEAA7;"/></g><g><path d="M19,13v4h-6v14l-3-6l-1-2v-0.01V15c0-1.1,0.9-2,2-2H19z" style="fill:#FFEAA7;"/></g><g><path d="M13,49V31V17h6h14h6v34H13V49z" style="fill:#E6E9ED;"/></g><g><rect height="16" style="fill:#D3A06C;" width="18" x="17" y="21"/></g><g><path d="M9,23l1,2H4l1.55-3.11C5.83,21.35,6.39,21,7,21s1.17,0.35,1.45,0.89L9,22.99V23z" style="fill:#969FAA;"/></g><g><polygon points="10,25 13,31 9,31 5,31 1,31 4,25    " style="fill:#CCD1D9;"/></g><g><path d="M13,53v2c0,1.66-0.67,3.16-1.76,4.24C10.16,60.33,8.66,61,7,61c-3.31,0-6-2.69-6-6v-2H13z" style="fill:#CCD1D9;"/></g><g><polygon points="13,51 13,53 1,53 1,49 5,49 9,49 13,49    " style="fill:#5CD6B3;"/></g><g><rect height="18" style="fill:#FCD770;" width="4" x="9" y="31"/></g><g><rect height="18" style="fill:#FCD770;" width="4" x="1" y="31"/></g><g><rect height="18" style="fill:#FF826E;" width="4" x="5" y="31"/></g><g><rect height="6" style="fill:#FF826E;" width="6" x="29" y="41"/></g><g><rect height="6" style="fill:#B27946;" width="4" x="21" y="21"/></g><g><path d="M33,13v4H19v-4c0-1.1,0.9-2,2-2h2v-1c0-0.83,0.34-1.58,0.88-2.12C24.42,7.34,25.17,7,26,7     c1.66,0,3,1.34,3,3v1h2C32.1,11,33,11.9,33,13z" style="fill:#5CD6B3;"/></g></g><g><path d="M49,0c-6.831,0-12.436,5.299-12.949,12h-2.235c-0.414-1.161-1.514-2-2.816-2h-1c0-2.206-1.794-4-4-4s-4,1.794-4,4h-1    c-1.302,0-2.402,0.839-2.816,2H11c-1.654,0-3,1.346-3,3v5.222C7.686,20.092,7.355,20,7,20c-0.999,0-1.896,0.555-2.342,1.447    L0,30.764V55c0,3.86,3.14,7,7,7c3.519,0,6.432-2.613,6.92-6H41c1.654,0,3-1.346,3-3V25.001C45.576,25.656,47.277,26,49,26    c7.168,0,13-5.832,13-13S56.168,0,49,0z M11.382,30H2.618l2-4h4.764L11.382,30z M12,48h-2V32h2V48z M8,32v16H6V32H8z M4,32v16H2    V32H4z M12,50v2H2v-2H12z M14,30.764V18h24v32H14V30.764z M21,12h3v-2c0-1.103,0.897-2,2-2s2,0.897,2,2v2h3c0.551,0,1,0.449,1,1v3    H20v-3C20,12.449,20.449,12,21,12z M11,14h7v2h-6v10.764l-2-4V15C10,14.449,10.449,14,11,14z M6.447,22.341    c0.211-0.421,0.895-0.421,1.105,0L8.382,24H5.618L6.447,22.341L6.447,22.341z M7,60c-2.757,0-5-2.243-5-5v-1h10v1    C12,57.757,9.757,60,7,60z M42,53c0,0.551-0.449,1-1,1H14v-2h26V16h-6v-2h7c0.551,0,1,0.449,1,1V53z M43.402,8.816l1.356,1.356    l1.414-1.414l-1.356-1.356C45.731,6.716,46.817,6.25,48,6.08V8h2V6.08c1.183,0.17,2.269,0.636,3.184,1.322l-1.356,1.356    l1.414,1.414l1.356-1.356C55.284,9.731,55.75,10.817,55.92,12H54v2h1.92c-0.17,1.183-0.636,2.269-1.322,3.184l-1.356-1.356    l-1.414,1.414l1.356,1.356C52.269,19.284,51.183,19.75,50,19.92V18h-2v1.919c-1.515-0.219-2.921-0.931-4-2.035V15    c0-1.284-0.814-2.373-1.951-2.8C42.194,10.939,42.677,9.783,43.402,8.816z M49,24c-1.747,0-3.458-0.435-5-1.225v-2.307    C45.468,21.45,47.201,22,49,22c4.962,0,9-4.038,9-9s-4.038-9-9-9c-4.624,0-8.441,3.507-8.941,8h-2.008C38.558,6.402,43.272,2,49,2    c6.065,0,11,4.935,11,11S55.065,24,49,24z"/><polygon points="50.949,15.684 50,12.838 50,10 48,10 48,13.162 49.051,16.316   "/><path d="M16,38h20V20H16V38z M22,22h2v4h-2V22z M18,22h2v6h6v-6h8v14H18V22z"/><rect height="2" width="6" x="26" y="32"/><path d="M28,48h8v-8h-8V48z M30,42h4v4h-4V42z"/><rect height="2" width="2" x="16" y="40"/><rect height="2" width="6" x="20" y="40"/><rect height="2" width="10" x="16" y="44"/><polygon points="50,28 48,28 48,30 46,30 46,32 48,32 48,34 50,34 50,32 52,32 52,30 50,30   "/><polygon points="50,36 48,36 48,38 46,38 46,40 48,40 48,42 50,42 50,40 52,40 52,38 50,38   "/><polygon points="50,44 48,44 48,46 46,46 46,48 48,48 48,50 50,50 50,48 52,48 52,46 50,46   "/></g></g></svg>