<?xml version="1.0" ?><svg id="Layer_5" style="enable-background:new 0 0 62 62;" version="1.1" viewBox="0 0 62 62" xml:space="preserve" xmlns="http://www.w3.org/2000/svg" xmlns:xlink="http://www.w3.org/1999/xlink"><g><g><g><path d="M5,49h4c1.1,0,2,0.9,2,2v6c0,1.1-0.9,2-2,2H3c-1.1,0-2-0.9-2-2v-6c0-1.1,0.9-2,2-2H5z" style="fill:#D3A06C;"/></g><g><path d="M19.17,59H13c-1.1,0-2-0.9-2-2v-6c0-1.1,0.9-2,2-2h4v2v2c0,1.1,0.9,2,2,2v3     c0,0.35,0.06,0.69,0.18,1H19.17z" style="fill:#D3A06C;"/></g><g><path d="M7,39h4c1.1,0,2,0.9,2,2v6c0,1.1-0.9,2-2,2H9H5c-1.1,0-2-0.9-2-2v-6c0-1.1,0.9-2,2-2H7z" style="fill:#D3A06C;"/></g><g><path d="M13,1c3.65,0,6.92,1.63,9.12,4.21C21.46,5.53,21,6.22,21,7h-2c-1.1,0-2,0.9-2,2v2v13.32     C15.75,24.76,14.4,25,13,25c-3.32,0-6.32-1.34-8.49-3.51S1,16.32,1,13s1.34-6.32,3.51-8.49S9.68,1,13,1z" style="fill:#69D6F4;"/></g><g><path d="M57,9v2h-4V7h2C56.1,7,57,7.9,57,9z" style="fill:#FCD770;"/></g><g><rect height="4" style="fill:#FCD770;" width="12" x="31" y="7"/></g><g><path d="M21,7v4h-4V9c0-1.1,0.9-2,2-2H21z" style="fill:#FCD770;"/></g><g><path d="M21.4,28.33l-0.71,6.36l-1.1-1.1C19.21,33.21,18.7,33,18.17,33H17v-8.68V11h4h10h12h10h4v22h-1.17     c-0.53,0-1.04,0.21-1.42,0.59l-1.1,1.1l-0.71-6.36C52.26,25.3,49.69,23,46.64,23H27.36C24.31,23,21.74,25.3,21.4,28.33z" style="fill:#FFEAA7;"/></g><g><path d="M53,7v4H43V7c0-1.1,0.9-2,2-2h6C52.1,5,53,5.9,53,7z" style="fill:#AAB2BD;"/></g><g><path d="M31,7v4H21V7c0-0.78,0.46-1.47,1.12-1.79C22.39,5.07,22.68,5,23,5h6C30.1,5,31,5.9,31,7z" style="fill:#AAB2BD;"/></g><g><path d="M61,35v2c0,1.1-0.9,2-2,2h-5.2l-0.49-4.31l1.1-1.1C54.79,33.21,55.3,33,55.83,33H57h2     C60.1,33,61,33.9,61,35z" style="fill:#AAB2BD;"/></g><g><path d="M18.17,33c0.53,0,1.04,0.21,1.42,0.59l1.1,1.1L20.2,39H15c-1.1,0-2-0.9-2-2v-2c0-1.1,0.9-2,2-2h2     H18.17z" style="fill:#AAB2BD;"/></g><g><path d="M53.84,39.35L53.8,39l-0.49-4.31l-0.71-6.36C52.26,25.3,49.69,23,46.64,23H27.36     c-3.05,0-5.62,2.3-5.96,5.33l-0.71,6.36L20.2,39l-0.04,0.35C18.31,40.08,17,41.89,17,44v7h40v-7     C57,41.89,55.69,40.08,53.84,39.35z" style="fill:#FCD770;"/></g><g><path d="M55,55v3c0,1.66-1.34,3-3,3h-2c-1.66,0-3-1.34-3-3v-3H55z" style="fill:#969FAA;"/></g><g><path d="M27,55v3c0,1.66-1.34,3-3,3h-2c-1.31,0-2.42-0.83-2.82-2C19.06,58.69,19,58.35,19,58v-3H27z" style="fill:#969FAA;"/></g><g><polygon points="43,47 45,51 29,51 31,47    " style="fill:#AAB2BD;"/></g><g><path d="M57,51v2c0,1.1-0.9,2-2,2h-8H27h-8c-1.1,0-2-0.9-2-2v-2h12h16H57z" style="fill:#CCD1D9;"/></g><g><circle cx="51" cy="45" r="2" style="fill:#FF826E;"/></g><g><circle cx="23" cy="45" r="2" style="fill:#FF826E;"/></g><g><path d="M27.4,27h19.2c1.01,0,1.87,0.76,1.99,1.77L49.78,39H24.22l1.19-10.23     C25.53,27.76,26.39,27,27.4,27z" style="fill:#69D6F4;"/></g></g><g><path d="M51,42c-1.654,0-3,1.346-3,3s1.346,3,3,3s3-1.346,3-3S52.654,42,51,42z M51,46c-0.552,0-1-0.448-1-1s0.448-1,1-1    s1,0.448,1,1S51.552,46,51,46z"/><path d="M23,42c-1.654,0-3,1.346-3,3s1.346,3,3,3s3-1.346,3-3S24.654,42,23,42z M23,46c-0.552,0-1-0.448-1-1s0.448-1,1-1    s1,0.448,1,1S23.552,46,23,46z"/><path d="M59,32h-1V9c0-1.654-1.346-3-3-3h-1.184C53.402,4.839,52.302,4,51,4h-6c-1.302,0-2.402,0.839-2.816,2H31.816    C31.402,4.839,30.302,4,29,4h-6c-0.202,0-0.398,0.021-0.589,0.06C19.96,1.481,16.575,0,13,0C5.832,0,0,5.832,0,13s5.832,13,13,13    c1.018,0,2.021-0.126,3-0.357V32h-1c-1.654,0-3,1.346-3,3v2c0,0.475,0.121,0.919,0.319,1.319C11.919,38.121,11.475,38,11,38H5    c-1.654,0-3,1.346-3,3v6c0,0.395,0.081,0.77,0.22,1.116C0.945,48.461,0,49.617,0,51v6c0,1.654,1.346,3,3,3h6    c0.771,0,1.468-0.301,2-0.78c0.532,0.48,1.229,0.78,2,0.78h5.556c0.694,1.19,1.97,2,3.444,2h2c2.206,0,4-1.794,4-4v-2h18v2    c0,2.206,1.794,4,4,4h2c2.206,0,4-1.794,4-4v-2.184c1.161-0.414,2-1.514,2-2.816v-9c0-1.538-0.586-2.937-1.54-4H59    c1.654,0,3-1.346,3-3v-2C62,33.346,60.654,32,59,32z M56,9v1h-2V8h1C55.552,8,56,8.448,56,9z M45,6h6c0.552,0,1,0.448,1,1v3h-8V7    C44,6.448,44.448,6,45,6z M42,10H32V8h10V10z M29,6c0.552,0,1,0.448,1,1v3h-8V7c0-0.552,0.448-1,1-1H29z M20,10h-2V9    c0-0.552,0.448-1,1-1h1V10z M14,23.953V22h-2v1.949c-2.283-0.207-4.366-1.111-6.034-2.501l1.377-1.377l-1.414-1.414l-1.377,1.377    C3.161,18.366,2.258,16.283,2.051,14H4v-2H2.051c0.207-2.283,1.111-4.366,2.501-6.034l1.377,1.377l1.414-1.414L5.966,4.552    C7.634,3.161,9.717,2.258,12,2.051V4h2V2.054c2.513,0.229,4.864,1.312,6.673,3.076C20.464,5.39,20.298,5.681,20.184,6H19    c-1.654,0-3,1.346-3,3v14.579C15.347,23.764,14.679,23.892,14,23.953z M18,12h38v20h-0.172c-0.637,0-1.24,0.205-1.747,0.571    l-0.488-4.352C53.194,24.674,50.204,22,46.636,22H27.364c-3.568,0-6.559,2.674-6.957,6.22l-0.488,4.352    C19.412,32.205,18.809,32,18.172,32H18V12z M56,50H45.618l-2-4H30.382l-2,4H18v-6c0-2.206,1.794-4,4-4h30c2.206,0,4,1.794,4,4V50z     M43.382,50H30.618l1-2h10.764L43.382,50z M13.681,39.681C14.081,39.879,14.525,40,15,40h2.54C16.586,41.063,16,42.462,16,44v4    h-2.184C13.928,47.686,14,47.352,14,47v-6C14,40.525,13.879,40.081,13.681,39.681z M50.669,38l-1.09-9.347    C49.403,27.141,48.123,26,46.6,26H27.4c-1.523,0-2.804,1.141-2.979,2.652L23.331,38H22c-0.231,0-0.458,0.016-0.682,0.042    l1.077-9.599C22.68,25.91,24.815,24,27.364,24h19.271c2.549,0,4.685,1.91,4.969,4.442l1.077,9.599C52.458,38.016,52.231,38,52,38    H50.669z M48.656,38H25.344l1.063-9.116C26.466,28.38,26.893,28,27.4,28H46.6c0.508,0,0.935,0.38,0.993,0.885L48.656,38z M14,35    c0-0.552,0.448-1,1-1h3.172c0.263,0,0.521,0.106,0.707,0.293l0.761,0.761L19.31,38H15c-0.552,0-1-0.448-1-1V35z M4,41    c0-0.552,0.448-1,1-1h1v4h2v-4h3c0.552,0,1,0.448,1,1v6c0,0.552-0.448,1-1,1H9H5c-0.552,0-1-0.448-1-1V41z M9,58H3    c-0.552,0-1-0.448-1-1v-6c0-0.552,0.448-1,1-1h1v4h2v-4h3c0.552,0,1,0.448,1,1v6C10,57.552,9.552,58,9,58z M13,58    c-0.552,0-1-0.448-1-1v-6c0-0.552,0.448-1,1-1h3v3c0,1.302,0.839,2.402,2,2.816V58H13z M26,58c0,1.103-0.897,2-2,2h-2    c-1.103,0-2-0.897-2-2v-2h6V58z M52,60h-2c-1.103,0-2-0.897-2-2v-2h6v2C54,59.103,53.103,60,52,60z M55,54H19    c-0.552,0-1-0.448-1-1v-1h38v1C56,53.552,55.552,54,55,54z M60,37c0,0.552-0.448,1-1,1h-4.31l-0.331-2.946l0.761-0.761    C55.308,34.106,55.565,34,55.828,34H59c0.552,0,1,0.448,1,1V37z"/><rect height="2" transform="matrix(0.7071 -0.7071 0.7071 0.7071 -14.2548 31.5858)" width="8.485" x="26.757" y="32"/><rect height="2" transform="matrix(0.7071 -0.7071 0.7071 0.7071 -12.4975 35.8284)" width="8.485" x="32.757" y="32"/><rect height="2" transform="matrix(0.7071 -0.7071 0.7071 0.7071 -10.7401 40.0711)" width="8.485" x="38.757" y="32"/><polygon points="12,12 8,12 8,14 14,14 14,6 12,6   "/></g></g></svg>