<svg xmlns="http://www.w3.org/2000/svg" width="200" height="200" viewBox="0 0 200 200" fill="none">
    <g clip-path="url(#clip0_189_1641)">
        <path opacity="0.1" d="M198.062 119.162L141.124 86.3684C139.422 85.4205 136.584 85.4205 134.882 86.3684L2.28201 162.381C1.9037 162.571 1.71453 162.76 1.52538 162.95C0.579587 163.898 0.957903 165.035 2.28201 165.983C6.06518 170.722 17.2255 178.873 23.846 182.664C31.6016 187.214 48.4366 195.744 59.7862 199.345C61.4886 200.293 64.326 200.293 66.0284 199.345L198.062 122.764C199.764 121.816 199.764 120.299 198.062 119.162Z" fill="black"/>
        <path d="M194.845 92.4342C194.279 91.6759 193.71 89.7804 193.71 89.4013C193.71 89.0222 194.09 87.3162 194.09 87.3162C194.09 87.3162 193.332 80.8711 193.144 77.0799C192.955 73.2888 191.442 72.1514 191.442 72.1514L189.549 64.5691C189.549 64.5691 189.549 64.5691 187.847 59.6405C185.766 54.5225 180.659 51.1105 180.659 51.1105C172.714 44.6654 155.122 34.6188 146.989 30.6381C138.855 26.6574 136.585 28.3634 136.585 28.3634C136.585 28.3634 118.426 38.0309 106.131 44.4759C93.8353 51.1105 73.0279 64.3796 63.7592 71.5828C54.4904 78.9756 39.1686 98.8791 36.8986 101.912C34.6288 104.945 29.8997 109.115 26.4949 112.338C23.0901 115.56 15.3346 125.607 15.3346 125.607C15.3346 125.607 9.47067 131.862 7.5791 136.033C5.6875 140.203 6.06584 152.335 6.44415 154.42C6.6333 156.505 9.849 161.054 9.849 161.054V162.95C13.6322 168.447 39.3577 183.422 44.0866 185.507C48.6264 187.592 57.8953 189.298 62.6242 188.54C67.353 187.782 69.2447 185.507 69.2447 185.507L70.5688 184.749C70.5688 184.56 70.5688 184.37 70.5688 184.18C70.5688 176.029 76.2436 165.983 83.4316 162.002C94.2136 155.936 97.4293 160.865 97.4293 169.016C97.4293 169.205 97.4293 169.584 97.4293 169.774L163.635 131.294L164.013 131.104C164.013 122.764 170.255 111.2 177.443 107.03C187.279 101.533 191.442 104.755 191.82 112.717C192.386 112.338 192.955 111.959 193.144 111.58C193.521 110.821 195.603 104.566 195.981 100.016C195.981 95.8462 195.223 93.0028 194.845 92.4342Z" fill="white"/>
        <path opacity="0.1" d="M193.711 89.4007C193.711 89.0216 194.088 87.3155 194.088 87.3155C194.088 87.3155 193.333 80.8705 193.144 77.0793C192.955 73.2882 191.44 72.1508 191.44 72.1508L189.549 64.5684C189.549 64.5684 189.549 64.5684 187.848 59.6399C186.901 57.1756 185.199 55.0905 183.875 53.5741C182.74 53.3845 181.605 53.3845 180.659 54.1427C174.984 57.1756 136.207 79.3539 126.181 86.3676C116.156 93.3813 110.86 99.8264 107.644 105.134L90.0522 134.136C90.0522 134.136 86.4582 137.738 80.7833 140.96C75.1087 144.183 65.8398 149.68 62.435 156.315C59.7869 161.433 59.4085 178.114 60.7326 188.729C61.3 188.729 61.8676 188.729 62.435 188.54C67.1641 187.782 69.0556 185.507 69.0556 185.507L70.3796 184.748C70.3796 184.559 70.3796 184.369 70.3796 184.18C70.3796 176.029 76.0544 165.982 83.2424 162.002C94.0244 155.936 97.2402 160.864 97.2402 169.015C97.2402 169.205 97.2402 169.584 97.2402 169.773L163.446 131.293L163.824 131.104C163.824 122.763 170.066 111.2 177.254 107.03C187.09 101.532 191.251 104.755 191.631 112.716C192.198 112.337 192.764 111.958 192.955 111.579C193.333 110.821 195.412 104.565 195.792 100.016C196.17 95.6561 195.603 92.8127 195.035 92.0544C194.279 91.6753 193.711 89.7796 193.711 89.4007Z" fill="black"/>
        <path opacity="0.1" d="M177.065 104.186C172.147 107.029 167.607 112.716 164.58 119.161C163.445 121.436 162.31 122.194 162.31 122.194L100.645 158.779C98.5642 159.916 96.6725 158.589 96.6725 158.589C94.4027 155.936 90.052 155.746 83.0533 159.727C74.9194 164.276 68.2988 175.839 68.2988 185.317C68.2988 185.507 68.2988 185.886 68.2988 186.075C68.8662 185.696 69.0555 185.317 69.0555 185.317L70.3796 184.559C70.3796 184.369 70.3796 184.18 70.3796 183.99C70.3796 175.839 76.0544 165.793 83.2423 161.812C94.0244 155.746 97.2401 160.675 97.2401 168.826C97.2401 169.015 97.2401 169.394 97.2401 169.584L163.445 131.103L163.824 130.914C163.824 122.573 170.066 111.01 177.254 106.84C187.09 101.343 191.251 104.565 191.629 112.527C192.198 112.148 192.764 111.769 192.953 111.389C193.144 111.01 193.522 109.873 194.088 108.167C192.764 100.964 187.657 98.1202 177.065 104.186Z" fill="black"/>
        <mask id="mask0_189_1641" style="mask-type:alpha" maskUnits="userSpaceOnUse" x="64" y="88" width="132" height="88">
            <path d="M193.71 89.4006C193.71 89.2111 193.899 88.6425 193.899 88.0737C189.738 89.9694 175.929 96.604 170.633 101.911C167.228 105.324 163.823 109.494 161.175 116.129L102.536 151.007C99.1309 148.164 94.9694 147.595 91.943 148.543C87.7815 149.87 77.567 155.367 70.9465 161.623C64.3259 168.067 64.3259 171.859 65.0826 174.133C65.4609 175.46 68.1091 175.839 70.1898 175.839C72.6489 169.205 77.567 162.76 83.0526 159.727C90.2405 155.746 94.402 155.936 96.672 158.589C96.672 158.589 98.3744 159.727 100.644 158.779L162.121 122.194C162.121 122.194 163.445 121.436 164.391 119.161C167.417 112.906 171.957 107.03 176.875 104.186C187.467 98.1203 192.764 100.964 193.71 108.546C194.467 106.082 195.223 102.859 195.413 100.205C195.791 95.8457 195.223 93.0023 194.656 92.244C194.278 91.6754 193.71 89.7797 193.71 89.4006Z" fill="url(#paint0_linear_189_1641)"/>
        </mask>
        <g mask="url(#mask0_189_1641)">
            <path opacity="0.5" d="M193.71 89.4006C193.71 89.2111 193.899 88.6425 193.899 88.0737C189.738 89.9694 175.929 96.604 170.633 101.911C167.228 105.324 163.823 109.494 161.175 116.129L102.536 151.007C99.1309 148.164 94.9694 147.595 91.943 148.543C87.7815 149.87 77.567 155.367 70.9465 161.623C64.3259 168.067 64.3259 171.859 65.0826 174.133C65.4609 175.46 68.1091 175.839 70.1898 175.839C72.6489 169.205 77.567 162.76 83.0526 159.727C90.2405 155.746 94.402 155.936 96.672 158.589C96.672 158.589 98.3744 159.727 100.644 158.779L162.121 122.194C162.121 122.194 163.445 121.436 164.391 119.161C167.417 112.906 171.957 107.03 176.875 104.186C187.467 98.1203 192.764 100.964 193.71 108.546C194.467 106.082 195.223 102.859 195.413 100.205C195.791 95.8457 195.223 93.0023 194.656 92.244C194.278 91.6754 193.71 89.7797 193.71 89.4006Z" fill="url(#paint1_linear_189_1641)"/>
        </g>
        <mask id="mask1_189_1641" style="mask-type:alpha" maskUnits="userSpaceOnUse" x="162" y="87" width="32" height="27">
            <path d="M170.633 101.912C175.551 96.9836 187.845 90.9176 192.953 88.643C192.953 88.2639 193.144 87.8847 193.144 87.6951C188.981 89.5907 175.173 96.2253 169.876 101.533C166.85 104.566 164.58 108.546 162.31 113.854C164.58 108.546 167.606 104.945 170.633 101.912Z" fill="url(#paint2_linear_189_1641)"/>
        </mask>
        <g mask="url(#mask1_189_1641)">
            <path opacity="0.2" d="M170.633 101.912C175.551 96.9836 187.845 90.9176 192.953 88.643C192.953 88.2639 193.144 87.8847 193.144 87.6951C188.981 89.5907 175.173 96.2253 169.876 101.533C166.85 104.566 164.58 108.546 162.31 113.854C164.58 108.546 167.606 104.945 170.633 101.912Z" fill="url(#paint3_linear_189_1641)"/>
        </g>
        <mask id="mask2_189_1641" style="mask-type:alpha" maskUnits="userSpaceOnUse" x="63" y="147" width="40" height="28">
            <path d="M65.0826 174.133C64.326 171.669 64.326 168.067 70.9465 161.622C77.5671 155.177 87.9708 149.68 91.943 148.543C94.7804 147.595 98.9419 148.353 102.536 151.007C99.131 148.164 95.1587 146.458 90.9973 147.974C87.0249 149.49 76.6211 154.798 70.0006 161.054C63.38 167.498 63.3802 171.29 64.1367 173.564C64.326 174.133 64.8934 174.512 65.65 174.702C65.461 174.702 65.2717 174.512 65.0826 174.133Z" fill="url(#paint4_linear_189_1641)"/>
        </mask>
        <g mask="url(#mask2_189_1641)">
            <path opacity="0.2" d="M65.0826 174.133C64.326 171.669 64.326 168.067 70.9465 161.622C77.5671 155.177 87.9708 149.68 91.943 148.543C94.7804 147.595 98.9419 148.353 102.536 151.007C99.131 148.164 95.1587 146.458 90.9973 147.974C87.0249 149.49 76.6211 154.798 70.0006 161.054C63.38 167.498 63.3802 171.29 64.1367 173.564C64.326 174.133 64.8934 174.512 65.65 174.702C65.461 174.702 65.2717 174.512 65.0826 174.133Z" fill="url(#paint5_linear_189_1641)"/>
        </g>
        <mask id="mask3_189_1641" style="mask-type:alpha" maskUnits="userSpaceOnUse" x="17" y="132" width="39" height="29">
            <path d="M22.3333 132.051C20.4418 136.411 17.9827 140.96 17.7935 141.34V141.529C18.9284 142.856 20.4416 144.183 22.1442 145.7C30.4671 152.144 38.9792 157.073 48.0588 159.916C48.4371 159.916 48.6262 160.106 49.0045 160.106C49.0045 159.916 51.2746 153.85 55.436 150.628C37.8442 145.51 27.2514 136.98 22.3333 132.051Z" fill="url(#paint6_linear_189_1641)"/>
        </mask>
        <g mask="url(#mask3_189_1641)">
            <path opacity="0.2" d="M22.3333 132.051C20.4418 136.411 17.9827 140.96 17.7935 141.34V141.529C18.9284 142.856 20.4416 144.183 22.1442 145.7C30.4671 152.144 38.9792 157.073 48.0588 159.916C48.4371 159.916 48.6262 160.106 49.0045 160.106C49.0045 159.916 51.2746 153.85 55.436 150.628C37.8442 145.51 27.2514 136.98 22.3333 132.051Z" fill="url(#paint7_linear_189_1641)"/>
        </g>
        <g opacity="0.3">
            <mask id="mask4_189_1641" style="mask-type:alpha" maskUnits="userSpaceOnUse" x="100" y="91" width="36" height="49">
                <g opacity="0.3">
                    <g opacity="0.3">
                        <path opacity="0.3" d="M134.126 95.0879C133.936 92.4342 132.991 92.4342 132.423 91.8656C132.045 91.4864 130.721 92.2445 129.775 92.6236C130.153 92.4342 130.532 92.4342 130.721 92.4342C131.477 92.4342 132.234 93.1924 132.423 95.6567C132.991 101.533 133.937 112.717 133.937 112.717C133.937 112.717 134.504 115.181 129.964 118.593C125.235 122.005 103.104 136.791 103.104 136.791C103.104 136.791 102.725 136.98 102.347 136.98C101.78 136.98 100.834 136.601 100.645 135.274C100.645 141.34 104.239 138.876 104.239 138.876C104.239 138.876 123.344 126.365 128.262 122.764C133.18 119.162 135.261 117.645 135.828 114.423C136.206 111.39 134.315 97.7418 134.126 95.0879Z" fill="url(#paint8_linear_189_1641)"/>
                    </g>
                </g>
            </mask>
            <g mask="url(#mask4_189_1641)">
                <path opacity="0.3" d="M134.126 95.0879C133.936 92.4342 132.991 92.4342 132.423 91.8656C132.045 91.4864 130.721 92.2445 129.775 92.6236C130.153 92.4342 130.532 92.4342 130.721 92.4342C131.477 92.4342 132.234 93.1924 132.423 95.6567C132.991 101.533 133.937 112.717 133.937 112.717C133.937 112.717 134.504 115.181 129.964 118.593C125.235 122.005 103.104 136.791 103.104 136.791C103.104 136.791 102.725 136.98 102.347 136.98C101.78 136.98 100.834 136.601 100.645 135.274C100.645 141.34 104.239 138.876 104.239 138.876C104.239 138.876 123.344 126.365 128.262 122.764C133.18 119.162 135.261 117.645 135.828 114.423C136.206 111.39 134.315 97.7418 134.126 95.0879Z" fill="url(#paint9_linear_189_1641)"/>
            </g>
        </g>
        <path d="M185.011 109.115L179.336 105.893C178.579 106.272 177.822 106.651 177.066 107.03C169.878 111.201 163.825 122.763 163.635 131.104L163.257 131.294L162.879 131.483L169.31 135.085C171.202 136.412 174.039 136.222 177.066 134.516C183.119 131.104 187.848 122.574 187.848 115.75C187.848 112.717 186.902 110.442 185.011 109.115Z" fill="#3A3939"/>
        <path d="M187.847 115.94C187.847 122.953 182.929 131.294 177.065 134.706C171.012 138.118 166.283 135.275 166.283 128.451C166.283 121.437 171.201 113.096 177.065 109.684C183.118 106.272 187.847 109.116 187.847 115.94Z" fill="#575656"/>
        <path d="M187.281 116.698C187.281 123.143 182.74 130.915 177.255 133.948C171.769 137.17 167.229 134.516 167.229 128.261C167.229 121.816 171.769 114.044 177.255 111.011C182.929 107.788 187.281 110.253 187.281 116.698Z" fill="#3A3939"/>
        <path d="M185.01 118.593C185.01 123.332 181.605 129.208 177.633 131.483C173.471 133.947 170.255 131.862 170.255 127.123C170.255 122.384 173.66 116.508 177.633 114.233C181.605 111.959 185.01 113.854 185.01 118.593Z" fill="url(#paint10_linear_189_1641)"/>
        <path d="M182.928 118.593C182.928 122.385 180.28 127.123 176.875 129.019C173.66 130.915 170.822 129.398 170.822 125.607C170.822 121.816 173.47 117.077 176.875 115.181C180.28 113.286 182.928 114.802 182.928 118.593Z" fill="#343433"/>
        <path d="M183.307 114.802L180.47 118.214C180.28 118.025 180.091 118.025 179.902 117.835L181.605 113.854C180.659 113.665 179.713 113.665 178.578 114.234L178.011 118.025C177.821 118.025 177.632 118.214 177.254 118.404C177.065 118.404 176.876 118.593 176.876 118.593L176.687 115.181C175.362 116.129 174.227 117.266 173.282 118.783L174.984 120.489C174.795 120.868 174.417 121.437 174.227 121.816L171.768 121.247C171.201 122.574 170.633 124.09 170.444 125.607C171.39 125.228 172.714 124.849 173.471 124.659C173.471 124.849 173.471 124.849 173.471 125.038C173.471 125.228 173.471 125.417 173.471 125.607L170.444 127.882C170.633 129.209 171.012 130.346 171.768 131.104L174.417 127.502C174.606 127.692 174.795 127.692 174.984 127.882L173.66 132.242C174.606 132.431 175.552 132.242 176.687 131.862L176.876 127.882C177.065 127.882 177.254 127.692 177.443 127.502C177.632 127.502 177.632 127.313 177.821 127.313L178.578 130.725C179.902 129.777 181.037 128.64 181.983 127.124L180.091 125.038C180.28 124.659 180.47 124.28 180.659 123.901L183.307 124.47C183.875 123.143 184.253 121.816 184.63 120.678L181.415 120.868C181.415 120.678 181.415 120.489 181.415 120.299C181.415 120.11 181.415 120.11 181.415 119.92L184.63 117.646C184.442 116.508 184.064 115.371 183.307 114.802Z" fill="#BDB7B7"/>
        <path d="M181.416 120.489C181.416 122.953 179.714 126.175 177.444 127.313C175.174 128.64 173.472 127.502 173.472 125.038C173.472 122.574 175.174 119.351 177.444 118.214C179.714 116.887 181.416 117.835 181.416 120.489Z" fill="url(#paint11_linear_189_1641)"/>
        <path d="M179.902 121.247C179.902 122.763 178.768 124.848 177.443 125.606C176.119 126.365 174.984 125.796 174.984 124.09C174.984 122.573 176.119 120.488 177.443 119.73C178.768 118.972 179.902 119.541 179.902 121.247Z" fill="url(#paint12_linear_189_1641)"/>
        <path d="M178.957 121.626C178.957 122.574 178.2 123.901 177.444 124.469C176.498 125.038 175.93 124.659 175.93 123.522C175.93 122.574 176.687 121.247 177.444 120.678C178.389 120.299 178.957 120.678 178.957 121.626Z" fill="#DBDBDA"/>
        <path d="M179.524 105.893L185.199 109.115C186.146 109.873 187.09 110.821 187.47 112.338L191.442 112.906C191.253 105.703 187.47 102.101 179.524 105.893Z" fill="#212020"/>
        <path d="M91.187 163.898L85.7014 160.675C84.9448 161.054 83.999 161.434 83.0533 162.002C75.8651 165.983 70.1905 176.03 70.1905 184.18C70.1905 184.37 70.1905 184.56 70.1905 184.749L69.0555 185.508C69.0555 185.508 68.8664 185.697 68.2988 186.076L75.2977 190.057C77.1894 191.384 80.0266 191.194 83.0533 189.488C89.1062 186.076 93.8353 177.546 93.8353 170.722C94.0244 167.499 92.8894 165.035 91.187 163.898Z" fill="#3A3939"/>
        <path d="M94.025 170.532C94.025 177.546 89.1069 185.887 83.243 189.299C77.1898 192.711 72.4609 189.867 72.4609 183.043C72.4609 176.029 77.3791 167.689 83.243 164.277C89.1069 160.865 94.025 163.708 94.025 170.532Z" fill="#575656"/>
        <path d="M93.4575 171.29C93.4575 177.735 88.9177 185.507 83.4321 188.54C77.9466 191.762 73.4067 189.109 73.4067 182.853C73.4067 176.408 77.9466 168.636 83.4321 165.603C88.9177 162.381 93.4575 164.845 93.4575 171.29Z" fill="#3A3939"/>
        <path d="M91.1875 173.186C91.1875 177.925 87.7827 183.801 83.8103 186.076C79.6488 188.54 76.4331 186.455 76.4331 181.716C76.4331 176.977 79.8379 171.101 83.8103 168.826C87.7827 166.362 91.1875 168.447 91.1875 173.186Z" fill="url(#paint13_linear_189_1641)"/>
        <path d="M88.9171 173.186C88.9171 176.977 86.2688 181.716 82.864 183.612C79.6484 185.507 76.811 183.991 76.811 180.2C76.811 176.408 79.4592 171.67 82.864 169.774C86.2688 167.689 88.9171 169.395 88.9171 173.186Z" fill="#343433"/>
        <path d="M89.4848 169.205L86.6474 172.617C86.4584 172.428 86.2691 172.428 86.08 172.238L87.7824 168.257C86.8367 168.068 85.891 168.068 84.756 168.636L84.1884 172.428C83.9993 172.428 83.81 172.617 83.4319 172.807C83.2426 172.807 83.0536 172.996 83.0536 172.996L82.6752 169.774C81.3511 170.722 80.2161 171.859 79.2704 173.376L80.9728 175.082C80.7836 175.461 80.4052 176.029 80.2161 176.408L77.9461 175.84C77.3787 177.167 76.8113 178.683 76.6221 180.2C77.5678 179.82 78.8921 179.441 79.6486 179.252C79.6486 179.441 79.6486 179.441 79.6486 179.631C79.6486 179.82 79.6486 180.01 79.6486 180.2L76.6221 182.474C76.8113 183.801 77.1897 184.938 77.9461 185.697L80.5945 182.095C80.7836 182.285 80.9728 182.285 81.1619 182.474L79.8378 186.834C80.7836 187.024 81.7293 186.834 82.8643 186.455L83.0536 182.474C83.2426 182.474 83.4319 182.285 83.621 182.095C83.8102 182.095 83.8102 181.906 83.9993 181.906L84.756 185.318C86.08 184.37 87.215 183.232 88.1608 181.716L86.2691 179.631C86.4584 179.252 86.6474 178.873 86.8367 178.494L89.4848 179.062C90.0524 177.735 90.4306 176.408 90.8089 175.271L87.5934 175.65C87.5934 175.461 87.5934 175.271 87.5934 175.082C87.5934 174.892 87.5934 174.892 87.5934 174.702L90.8089 172.428C90.6198 171.101 90.2415 169.964 89.4848 169.205Z" fill="#BDB7B7"/>
        <path d="M87.5931 175.081C87.5931 177.545 85.8907 180.768 83.6207 181.905C81.3508 183.232 79.6484 182.095 79.6484 179.631C79.6484 177.166 81.3508 173.944 83.6207 172.806C85.7014 171.48 87.5931 172.427 87.5931 175.081Z" fill="url(#paint14_linear_189_1641)"/>
        <path d="M86.0801 175.84C86.0801 177.356 84.9453 179.441 83.6212 180.199C82.2969 180.958 81.1621 180.389 81.1621 178.683C81.1621 177.167 82.2969 175.081 83.6212 174.323C84.9453 173.565 86.0801 174.134 86.0801 175.84Z" fill="url(#paint15_linear_189_1641)"/>
        <path d="M85.1344 176.219C85.1344 177.167 84.3777 178.494 83.6212 179.063C82.6753 179.631 82.1079 179.252 82.1079 178.115C82.1079 177.167 82.8646 175.84 83.6212 175.271C84.3777 174.892 85.1344 175.271 85.1344 176.219Z" fill="#DBDBDA"/>
        <path d="M97.0511 169.205C97.0511 161.812 94.4028 156.884 85.7017 160.864L91.1872 163.898C92.7004 164.845 93.6463 166.741 94.0246 169.395L97.0511 169.963V169.774C97.0511 169.584 97.0511 169.395 97.0511 169.205Z" fill="#212020"/>
        <path d="M86.6473 136.601C83.999 135.843 80.5942 134.706 74.5412 132.052C62.4351 126.555 48.2481 117.645 41.2494 111.201C38.4119 108.547 36.8986 106.462 36.1419 105.324C35.7636 106.651 35.3855 108.926 37.4662 111.769C40.6818 116.508 48.2481 122.005 53.5445 125.038C58.841 128.071 73.0279 135.843 77.7568 136.412C80.7834 136.791 83.999 136.98 86.6473 136.601Z" fill="#4D585A"/>
        <path d="M63.0022 73.668C63.0022 73.668 51.8418 83.1459 36.7092 104.187C36.7092 104.187 36.3309 104.566 36.1416 105.324C36.8983 106.651 38.2223 108.547 41.249 111.201C48.2477 117.646 62.4347 126.555 74.5409 131.862C80.5938 134.516 83.9986 135.654 86.647 136.412C88.1601 136.222 89.4844 135.654 90.4301 134.706C92.5109 132.242 99.3205 119.162 101.969 114.802C104.617 110.253 110.103 101.723 110.103 101.723L63.0022 73.668Z" fill="#141C1E"/>
        <path d="M63.1909 74.9946C60.7318 77.2692 50.7064 86.7472 37.6544 104.755C37.6544 104.755 37.6544 104.945 37.4653 105.134C38.222 106.272 39.5461 107.978 42.0051 110.442C49.004 116.887 63.1909 125.796 74.9187 130.914C81.3501 133.758 84.5657 134.895 86.6464 135.464C87.9705 135.274 88.9164 134.705 89.4838 134.137C90.8079 132.431 94.7803 125.417 97.6177 120.109C98.9418 117.645 100.077 115.56 100.833 114.233C102.914 110.442 106.886 104.376 108.4 102.101L63.1909 74.9946Z" fill="#303E42"/>
        <path d="M133.747 112.527C133.747 112.527 132.801 101.343 132.233 95.4672C132.233 93.1923 131.477 92.4341 130.72 92.4341C129.585 92.4341 128.072 93.9506 126.748 94.7089C124.478 96.0358 117.29 102.102 115.02 104.566C112.75 107.22 103.859 120.868 101.968 124.09C100.076 127.313 100.644 130.346 100.644 130.346V134.137C100.644 136.601 101.59 136.98 102.535 136.98C102.914 136.98 103.292 136.791 103.292 136.791C103.292 136.791 125.424 122.005 129.963 118.593C134.314 115.181 133.747 112.527 133.747 112.527Z" fill="#141C1E"/>
        <path d="M132.802 112.717C132.802 112.527 131.856 101.343 131.288 95.6565C131.099 93.761 130.721 93.3818 130.721 93.3818C130.343 93.3818 129.397 93.9504 128.64 94.5192C128.262 94.8982 127.694 95.0878 127.316 95.467C125.235 96.6044 118.047 102.67 115.778 105.134C114.075 107.03 108.589 115.56 105.185 120.868V134.137C111.048 130.156 125.614 120.299 129.208 117.645C132.802 114.992 132.802 113.096 132.802 112.717Z" fill="#303E42"/>
        <path opacity="0.7" d="M63.1912 74.9946C61.6781 76.3215 56.949 80.8709 50.5177 88.4532L49.0044 99.4475L74.7299 82.0083L63.1912 74.9946Z" fill="#C5D0D3"/>
        <path d="M46.545 99.8271L38.222 103.997C38.0327 104.377 37.8437 104.566 37.6544 104.945C37.6544 104.945 37.6544 105.135 37.4653 105.324C38.222 106.462 39.5461 108.168 42.0051 110.632C49.004 117.077 63.1909 125.986 74.9187 131.104C81.35 133.948 84.5657 135.085 86.6464 135.654C87.9705 135.464 88.9164 134.895 89.4838 134.327C90.4296 133.189 92.5103 129.588 94.7803 125.607C57.327 101.533 46.545 99.8271 46.545 99.8271Z" fill="#39464A"/>
        <path d="M97.0504 121.057C95.3478 118.593 91.5646 115.181 83.4309 113.854C83.4309 113.854 74.7296 118.025 74.3513 122.764C73.9729 127.503 79.0802 129.967 85.7007 130.346C88.5381 130.535 91.1863 129.398 93.267 128.071C94.402 125.796 95.9154 123.332 97.0504 121.057Z" fill="#3D4B4F"/>
        <path opacity="0.2" d="M63.1909 74.9946C60.7318 77.2692 50.7064 86.7472 37.6544 104.755C37.6544 104.755 37.6544 104.945 37.4653 105.134C38.0327 106.082 39.1677 107.599 41.0594 109.494C49.7607 102.481 63.9476 93.5713 84.944 88.0741L63.1909 74.9946Z" fill="white"/>
        <path d="M142.828 122.574L142.26 122.763C142.26 122.763 141.693 123.142 141.503 122.005C141.314 120.868 141.125 117.076 141.125 115.75C141.314 114.422 141.503 114.233 142.071 114.043C142.638 113.664 144.152 112.906 144.152 112.906C144.152 112.906 144.908 112.716 145.097 113.854C145.286 114.991 145.286 118.593 145.097 120.299C144.719 121.815 143.773 122.005 142.828 122.574Z" fill="#5A6567"/>
        <path d="M143.016 114.802C143.016 114.802 143.395 118.024 143.205 121.247C143.205 121.247 141.692 122.005 141.692 120.678C141.503 119.162 141.503 116.318 141.503 116.318C141.503 116.318 141.503 115.56 142.07 115.181C142.827 114.991 143.016 114.802 143.016 114.802Z" fill="#414C4E"/>
        <path d="M143.394 121.247C143.583 118.024 143.205 114.802 143.205 114.802C143.205 114.802 143.016 114.802 142.827 114.991C142.827 115.56 143.205 117.077 143.205 118.214C143.205 119.162 143.205 120.678 143.205 121.437C143.205 121.247 143.394 121.247 143.394 121.247Z" fill="#283335"/>
        <path d="M144.151 114.423C144.151 114.423 144.908 118.025 144.53 120.679C144.53 120.679 145.097 119.92 144.908 117.077C144.719 114.044 144.151 114.423 144.151 114.423Z" fill="#414C4E"/>
        <path d="M136.396 126.555L135.639 126.744C135.639 126.744 135.072 127.123 134.883 125.986C134.693 124.849 134.504 121.057 134.504 119.73C134.693 118.404 134.883 118.214 135.45 118.024C136.018 117.645 137.531 116.887 137.531 116.887C137.531 116.887 138.288 116.698 138.477 117.835C138.666 118.972 138.666 122.574 138.477 124.28C138.288 125.796 137.342 126.176 136.396 126.555Z" fill="#5A6567"/>
        <path d="M136.585 118.972C136.585 118.972 136.964 122.195 136.774 125.417C136.774 125.417 135.261 126.176 135.261 124.848C135.261 123.332 135.261 120.299 135.261 120.299C135.261 120.299 135.261 119.541 135.829 119.162C136.396 118.972 136.585 118.972 136.585 118.972Z" fill="#414C4E"/>
        <path d="M136.964 125.417C137.153 122.195 136.774 118.972 136.774 118.972C136.774 118.972 136.585 118.972 136.396 119.162C136.396 119.73 136.774 121.247 136.774 122.384C136.774 123.332 136.774 124.848 136.774 125.607C136.774 125.417 136.964 125.417 136.964 125.417Z" fill="#283335"/>
        <path d="M137.72 118.593C137.72 118.593 138.476 122.195 138.098 124.848C138.098 124.848 138.665 124.09 138.476 121.247C138.287 118.214 137.72 118.593 137.72 118.593Z" fill="#414C4E"/>
        <path d="M161.176 124.849L162.5 122.005C162.311 122.195 162.311 122.195 162.311 122.195L103.672 157.074L105.753 158.59C105.753 158.59 106.698 159.159 107.644 158.401L159.095 127.503C159.095 127.503 160.798 126.555 161.176 124.849Z" fill="#5A6567"/>
        <path d="M192.766 111.769C193.144 111.011 195.225 104.755 195.603 100.206C195.981 95.8463 195.414 93.0029 194.846 92.2446C194.657 92.0552 194.657 91.8655 194.468 91.676L192.766 92.6238C192.766 92.6238 194.279 94.8986 193.333 97.3628C192.577 99.448 189.927 103.239 188.414 105.135C190.307 106.461 191.253 109.115 191.253 112.527C192.009 112.527 192.577 112.148 192.766 111.769Z" fill="#5A6567"/>
        <path d="M72.0821 176.029C70.0014 176.029 65.6507 176.029 65.0833 174.323C64.3266 172.048 64.3266 168.257 70.9471 161.812C70.9471 159.537 72.4605 157.452 72.4605 157.452C64.3266 162.191 55.8146 162.002 48.4373 159.727C39.1686 157.073 30.8455 151.955 22.5225 145.51C14.1996 139.065 14.1996 133.568 13.8213 131.104C13.443 129.966 13.8213 128.45 14.1996 126.933C12.3081 129.018 8.9032 132.999 7.57909 136.032C5.68752 140.202 6.06583 152.334 6.44415 154.419C6.63331 156.504 9.849 161.054 9.849 161.054V162.949C13.6322 168.447 39.3577 183.422 44.0866 185.507C48.6264 187.592 57.8953 189.298 62.6242 188.54C67.3531 187.782 69.2447 185.507 69.2447 185.507L70.5688 184.749C70.5688 184.559 70.5688 184.37 70.5688 184.18C70.3797 181.526 70.9471 178.683 72.0821 176.029Z" fill="#404B4D"/>
        <path d="M41.0608 181.716C41.4391 178.872 42.9522 168.447 42.9522 167.499C43.1415 166.362 44.0872 165.035 44.0872 165.035L49.3837 160.106C49.0054 159.917 48.438 159.917 48.0597 159.727C38.7908 157.073 30.4678 151.955 22.1448 145.51C20.0641 143.994 18.551 142.477 17.416 141.15C17.416 141.15 13.822 144.562 12.8762 145.889C11.7412 147.216 11.7412 148.543 11.7412 148.543L12.4978 165.035C24.4148 174.323 37.2776 180.768 40.115 182.095C40.3041 182.095 40.8715 182.284 41.0608 181.716Z" fill="#404B4D"/>
        <path d="M27.8189 159.538C22.3334 156.126 17.0369 152.524 14.3887 150.628V154.42H14.5778C14.5778 154.42 25.5491 162.76 42.3841 171.101L42.7624 167.689C40.3034 166.362 34.4395 163.518 27.8189 159.538Z" fill="#1B2628"/>
        <path d="M42.1945 172.807C24.2245 164.277 12.875 155.368 12.875 155.368V160.675C12.875 160.675 23.8462 169.395 41.6271 177.736C41.8162 176.219 42.0054 174.513 42.1945 172.807Z" fill="#404B4D"/>
        <path d="M12.875 155.178C12.875 155.178 24.2245 164.088 42.1945 172.618C42.1945 171.859 42.3838 171.291 42.3838 170.722C25.5486 162.571 14.5774 154.23 14.5774 154.23L12.875 155.178Z" fill="#4D585A"/>
        <path d="M57.8958 174.133C57.7065 175.65 56.1934 176.408 54.3017 176.408C52.221 176.408 49.9512 174.702 49.9512 173.186C49.9512 171.669 52.7886 170.532 54.6801 170.721C56.9501 170.911 58.0849 172.427 57.8958 174.133Z" fill="url(#paint16_linear_189_1641)"/>
        <path opacity="0.2" d="M35.5747 169.963C34.0613 169.205 30.2782 167.12 26.4951 165.035C22.7119 162.95 19.1178 160.296 17.7937 159.348C17.6046 159.348 17.6046 159.158 17.4154 159.158C17.2263 159.158 17.2263 159.538 17.2263 159.538L17.0371 162.76C17.0371 162.76 17.0371 163.329 17.4154 163.708C18.5504 164.466 21.5769 166.551 25.171 168.826C28.7649 171.101 33.683 173.754 35.3854 174.702C35.3854 174.702 35.5747 174.702 35.7638 174.702C35.953 174.702 36.1421 174.702 36.1421 174.323V170.911C36.1421 170.153 35.5747 169.963 35.5747 169.963Z" fill="black"/>
        <path d="M35.3855 170.153C33.8724 169.395 30.089 167.31 26.3059 165.225C23.6578 163.708 20.6313 161.813 17.6047 159.538L17.4155 162.761C17.4155 162.761 17.4155 163.14 17.7938 163.519C18.9289 164.467 21.9553 166.552 25.3602 168.637C28.9542 170.722 33.6831 173.376 35.5748 174.513H35.7639V171.101C35.7639 170.343 35.3855 170.153 35.3855 170.153Z" fill="white"/>
        <path d="M17.415 152.714C16.2801 151.955 15.3343 151.197 14.5776 150.628V154.42H14.7668C14.7668 154.42 15.7126 155.178 17.6042 156.505V152.714H17.415Z" fill="#344042"/>
        <path d="M38.0332 165.225V168.637C39.5464 169.395 41.0597 170.153 42.573 170.912L42.9512 167.5C41.8163 166.931 40.1139 166.173 38.0332 165.225Z" fill="#344042"/>
        <path d="M38.0339 167.31C28.1976 162.192 21.0096 157.453 17.4155 154.799V155.368C21.1987 158.022 28.3866 162.761 38.0339 167.879V167.31Z" fill="#404B4D"/>
        <path d="M38.0339 165.983C28.1976 160.865 21.0096 156.126 17.4155 153.472V154.041C21.1987 156.694 28.3866 161.433 38.0339 166.551V165.983Z" fill="#404B4D"/>
        <path d="M37.2773 164.845V169.395L37.8448 169.774V165.224C37.8448 165.035 37.6557 164.845 37.2773 164.845Z" fill="#404B4D"/>
        <path d="M38.0332 165.225V169.775L39.168 169.016V165.604C38.7897 165.604 38.4115 165.415 38.0332 165.225Z" fill="#333E40"/>
        <path d="M32.1694 162.002V166.551L32.737 166.931V162.192C32.5478 162.192 32.3587 162.192 32.1694 162.002Z" fill="#404B4D"/>
        <path d="M32.7373 162.382V167.121L33.8723 166.362V162.95C33.494 162.761 33.1156 162.571 32.7373 162.382Z" fill="#333E40"/>
        <path d="M27.0625 158.969V163.708L27.6299 164.087V159.348C27.6299 159.348 27.2516 159.158 27.0625 158.969Z" fill="#404B4D"/>
        <path d="M27.8193 159.537C27.8193 159.348 27.8193 159.348 27.8193 159.537V164.276L28.9543 163.518V160.106C28.576 159.916 28.1977 159.727 27.8193 159.537Z" fill="#333E40"/>
        <path d="M22.3335 155.936V160.675L22.9011 161.054V156.315C22.7118 156.126 22.5228 156.126 22.3335 155.936Z" fill="#404B4D"/>
        <path d="M22.9014 156.315V161.054L24.0364 160.296V156.884C23.658 156.884 23.2797 156.504 22.9014 156.315Z" fill="#333E40"/>
        <path d="M17.4155 152.714V157.832L17.9829 158.211V153.093C17.7938 152.903 17.6047 152.714 17.4155 152.714Z" fill="#404B4D"/>
        <path d="M17.9824 153.093V158.211L19.1174 157.453V153.851C18.7391 153.472 18.3608 153.282 17.9824 153.093Z" fill="#333E40"/>
        <path d="M14.3887 162.002V163.898C14.3887 163.898 14.5778 164.845 15.9019 165.793C19.685 168.637 26.3056 172.807 31.2237 175.65C35.7635 178.304 39.1684 180.01 41.06 180.958C41.2491 180.2 41.2491 179.062 41.4384 177.925C27.8189 171.29 17.9826 164.656 14.3887 162.002Z" fill="#1B2628"/>
        <path d="M41.2491 179.82C35.7635 177.167 24.7924 171.669 14.3887 163.708V163.897C14.3887 163.897 14.3887 164.087 14.5778 164.466C24.9815 172.238 35.9528 177.735 41.2491 180.389C41.2491 180.01 41.2491 179.82 41.2491 179.82Z" fill="#404B4D"/>
        <path d="M14.3887 162.95C25.3598 171.101 36.5202 176.787 41.4384 179.062C41.4384 178.873 41.4384 178.683 41.4384 178.683C36.5202 176.408 25.3598 170.722 14.3887 162.571V162.95Z" fill="#404B4D"/>
        <path d="M12.875 155.178V149.491C12.875 149.491 15.3341 144.942 16.2798 143.615C17.2256 142.478 17.6039 140.961 17.6039 140.961C17.6039 140.961 14.0099 144.373 13.0641 145.7C11.9292 147.027 11.9292 148.354 11.9292 148.354L12.6858 164.846L12.875 160.675V155.178Z" fill="#5A6567"/>
        <path d="M12.8756 149.491C12.8756 149.491 20.2528 154.799 27.8191 159.349C34.4396 163.519 40.3035 166.173 42.9517 167.31C43.1409 166.173 44.0867 164.846 44.0867 164.846L49.3832 159.917C49.0048 159.728 48.4374 159.728 48.0591 159.538C38.7902 156.884 30.4672 151.766 22.1443 145.321C20.0635 143.805 18.5504 142.288 17.4154 140.961L13.0648 146.648C13.2539 146.648 12.6864 147.027 12.8756 149.491Z" fill="#E5E5E5"/>
        <path opacity="0.5" d="M28.5758 157.073C22.3336 153.282 16.2806 149.112 13.0649 146.837C12.8757 147.027 12.6866 147.785 12.8757 149.491C12.8757 149.491 20.2529 154.799 27.8192 159.348C34.4397 163.518 40.3036 166.172 42.952 167.309C42.952 166.551 43.5194 165.793 43.8977 165.414C40.1146 163.708 34.629 160.865 28.5758 157.073Z" fill="#DFE6EA"/>
        <path d="M55.0575 170.722C54.8685 171.101 54.6792 171.669 54.6792 172.238C54.6792 173.755 56.0033 175.081 57.5166 175.081C57.5166 175.081 57.5166 175.081 57.7057 175.081C57.8949 174.892 57.8949 174.513 58.084 174.134C58.084 172.617 56.9492 171.101 55.0575 170.722Z" fill="#F0EFF0"/>
        <path d="M56.3817 171.101C56.0033 171.48 55.625 172.049 55.625 172.617C55.625 173.565 56.3817 174.513 57.3274 174.513C57.5167 174.513 57.7057 174.513 57.895 174.513C57.895 174.323 57.895 174.323 57.895 174.134C58.0841 172.996 57.5167 171.859 56.3817 171.101Z" fill="white"/>
        <g opacity="0.05">
            <path opacity="0.05" d="M13.2536 146.647L17.6043 140.961C13.8211 136.601 13.8211 132.81 13.632 130.914C13.4428 129.966 13.8211 128.45 14.1994 126.933C12.3079 129.018 8.90301 132.999 7.5789 136.032C7.20058 136.79 7.01141 137.549 6.82227 138.686C7.95721 141.719 10.038 145.131 12.8753 148.353C12.8753 146.837 13.2536 146.647 13.2536 146.647Z" fill="white"/>
            <path opacity="0.05" d="M49.5723 159.917L44.2758 164.845C44.2758 164.845 43.7082 165.603 43.3301 166.362C59.5977 169.015 65.8399 166.362 65.8399 166.362L66.9747 166.172C67.9206 164.845 69.2447 163.139 71.1362 161.433C71.1362 159.158 72.6495 157.073 72.6495 157.073C64.7049 161.812 56.571 161.812 49.5723 159.917Z" fill="white"/>
        </g>
        <path d="M9.09229 143.426C8.1465 141.72 7.38987 140.203 6.82239 138.687C5.87659 143.994 6.2549 152.714 6.2549 154.42C6.44407 156.505 9.65976 161.054 9.65976 161.054C9.65976 161.054 8.52481 149.302 8.33566 146.269C8.1465 145.321 8.52481 144.184 9.09229 143.426Z" fill="#404B4D"/>
        <path d="M70.9474 161.623C70.9474 159.348 72.4605 157.263 72.4605 157.263C72.4605 157.263 63.1918 163.329 61.1111 169.015C59.0303 174.133 58.8413 181.905 59.4087 188.729C60.7327 188.729 61.6785 188.729 62.6244 188.54C67.3533 187.782 69.245 185.507 69.245 185.507L70.569 184.749C70.569 184.559 70.569 184.37 70.569 184.18C70.569 181.526 71.1364 178.683 72.2714 175.84C70.1907 175.84 65.84 175.839 65.2726 174.133C64.3268 171.859 64.3268 168.068 70.9474 161.623Z" fill="#5A6567"/>
        <path d="M53.3559 162.76C53.3559 162.76 49.1945 165.604 48.0595 167.878C47.1137 170.153 46.168 183.991 46.168 183.991C46.168 183.991 47.8704 170.153 49.1945 168.068C50.5185 165.983 53.3559 162.76 53.3559 162.76Z" fill="#5A6567"/>
        <path d="M102.915 136.033C102.915 136.033 106.131 137.17 109.536 137.36C114.643 137.739 115.778 135.085 115.778 135.085C115.778 135.085 115.589 131.104 115.21 129.777C114.832 128.64 112.751 128.261 111.616 128.071C110.481 127.882 108.779 127.123 107.644 128.261C106.509 129.209 105.942 129.588 106.131 130.536C106.131 131.483 106.32 133 106.32 133L104.807 132.621C104.807 132.621 103.104 133.758 102.726 133.948C102.158 134.516 102.348 135.464 102.915 136.033Z" fill="#5A6567"/>
        <path d="M113.13 132.052C112.941 130.915 112.184 131.104 111.049 130.915C109.914 130.725 105.942 129.777 105.753 129.777C105.563 129.967 105.563 130.156 105.563 130.536C105.563 131.483 105.753 133 105.753 133L104.239 132.621C104.239 132.621 102.537 133.758 102.159 133.948C101.78 134.327 102.159 135.085 102.537 135.843C102.537 135.843 105.753 136.981 109.158 137.17C111.049 137.36 112.184 136.981 113.13 136.602C114.076 135.464 113.319 133.19 113.13 132.052Z" fill="#404B4D"/>
        <path d="M105.752 134.706C105.563 135.085 105.374 135.274 104.996 135.274C107.833 136.412 112.562 136.033 112.562 136.033C109.346 135.843 106.887 135.085 105.752 134.706Z" fill="#5A6567"/>
        <path d="M105.941 133.189L104.428 132.81C104.428 132.81 102.726 133.948 102.347 134.137C102.158 134.137 102.158 134.327 102.158 134.516C103.104 134.895 104.617 135.275 104.996 135.275C105.941 135.464 105.941 134.516 105.941 133.189Z" fill="#333E40"/>
        <path d="M190.684 82.5771L169.121 95.088V97.7419L190.873 85.2311L190.684 82.5771Z" fill="#5A6567"/>
        <path opacity="0.2" d="M169.687 103.239L169.309 97.742V95.088C169.309 94.8986 166.661 79.5443 165.148 73.2889C164.58 70.8246 163.634 69.4977 162.499 69.1186C161.175 68.7394 160.04 69.6872 160.04 69.6872C159.851 69.6872 138.855 82.198 134.693 84.4728C130.343 86.9371 117.669 97.1732 113.507 101.723C109.346 106.462 100.077 122.764 98.9422 124.659C97.8072 126.934 97.6182 129.777 97.6182 129.967L98.3748 148.923L99.3206 158.969L98.9422 166.931H99.3206L99.6989 158.969L98.7532 148.923L97.9965 129.967C97.9965 129.967 98.1856 127.123 99.3206 124.849C100.266 122.953 109.535 106.651 113.697 101.912C117.48 97.742 129.775 87.6954 134.315 85.0414C135.072 87.1266 136.396 92.6239 137.341 97.742C138.287 103.05 139.233 115.181 139.233 115.371V136.033L139.044 139.445L137.909 143.805L138.287 143.994L139.422 139.634L139.8 136.033V115.371C139.8 115.181 138.855 103.05 137.909 97.742C136.963 92.4343 135.639 86.9371 134.882 84.852C139.044 82.5772 160.04 70.0663 160.229 69.8768C160.229 69.8768 161.175 69.1186 162.31 69.3082C163.256 69.6872 164.202 71.0142 164.769 73.0994C166.283 79.3548 168.931 94.7091 168.931 94.8986V97.5523L169.309 103.05L170.255 111.201H170.633L169.687 103.239Z" fill="black"/>
        <path d="M31.602 140.771C31.602 140.771 30.467 143.804 30.2779 145.131C30.0888 146.458 29.5213 148.164 32.1696 149.491C34.6285 151.008 35.9527 150.628 36.8985 149.681C37.8442 148.733 40.4925 145.89 40.4925 145.89L31.602 140.771Z" fill="#DFE6EA"/>
        <path d="M32.7367 148.733C35.0067 150.06 36.3308 149.681 37.0874 148.922C37.8441 148.164 39.3572 146.458 40.1139 145.889L32.1693 141.34C31.7909 142.098 31.2235 143.994 31.0343 144.942C30.8452 145.889 30.4669 147.406 32.7367 148.733Z" fill="#344042"/>
        <path d="M45.6001 90.7282L43.7084 86.937C43.7084 86.937 41.2493 87.6953 41.0603 89.2116C40.8712 90.5385 41.0602 94.8984 41.2493 96.2253C42.7627 94.5193 44.0867 92.6236 45.6001 90.7282Z" fill="#404B4D"/>
        <path d="M43.7084 86.937C43.7084 86.937 42.5736 87.3161 41.8169 87.8848C41.8169 89.5908 42.1952 91.8656 43.33 93.3819C44.0867 92.4342 44.8434 91.4864 45.6 90.5385L43.7084 86.937Z" fill="#5A6567"/>
        <path d="M23.0898 115.56L22.7115 115.939C19.3067 119.92 15.3343 125.038 15.1451 125.417C15.1451 125.607 14.5777 125.986 13.821 126.744V126.934C13.2536 128.829 13.0644 130.156 13.2536 131.104C13.2536 131.293 13.2536 131.483 13.2536 131.673C13.4427 133.758 13.821 137.17 17.2259 141.53L17.6042 141.719L17.9826 141.15C18.1717 140.771 22.7115 132.431 24.0356 127.313C25.3596 122.574 25.1706 117.835 23.4681 115.75L23.0898 115.56Z" fill="#87969F"/>
        <path d="M74.7298 146.837C74.1624 146.269 73.4057 146.079 72.0816 146.079C71.8925 146.079 71.7033 146.079 71.3249 146.079C68.1094 146.269 60.5429 147.027 56.3814 149.87C51.8416 152.903 49.3825 159.538 49.1935 159.727L49.0044 160.106L49.3825 160.296C52.4092 161.054 55.4357 161.433 58.2731 161.433C63.3803 161.433 68.2985 160.106 72.649 157.453H72.8383V157.263C72.8383 157.073 74.7298 152.145 75.1081 149.681C75.2974 148.354 75.2974 147.406 74.7298 146.837Z" fill="#87969F"/>
        <path d="M13.6319 130.914C13.821 132.81 13.821 136.411 17.6042 140.961C17.6042 140.961 22.3332 132.431 23.6573 127.313C24.7923 122.953 24.7923 118.214 23.0899 116.129C19.4958 120.299 15.5234 125.607 15.5234 125.607C15.5234 125.607 14.956 126.175 14.1993 126.934C13.821 128.45 13.4427 129.966 13.6319 130.914Z" fill="#E3E3E4"/>
        <path d="M72.2704 157.263C72.2704 157.263 74.1618 152.145 74.5402 149.68C74.9185 147.216 74.5402 146.079 72.0811 146.458C69.6222 146.647 61.11 147.216 56.5702 150.249C52.0304 153.282 49.5713 159.917 49.5713 159.917C56.5702 161.812 64.7041 161.812 72.2704 157.263Z" fill="#E3E3E4"/>
        <path d="M64.8937 157.263C64.8937 159.538 63.3804 160.485 61.2996 159.348C59.4082 158.211 57.7056 155.367 57.7056 153.093C57.7056 150.818 59.2189 149.87 61.2996 151.008C63.3804 152.334 64.8937 154.988 64.8937 157.263Z" fill="white"/>
        <path d="M21.1979 131.673C21.1979 133.947 19.8736 134.895 17.9821 133.758C16.2797 132.62 14.9556 129.777 14.9556 127.502C14.9556 125.228 16.2797 124.28 17.9821 125.417C19.6845 126.555 21.1979 129.398 21.1979 131.673Z" fill="white"/>
        <path d="M71.1362 152.335C71.1362 153.662 70.1904 154.041 69.2447 153.472C68.1097 152.903 67.353 151.387 67.353 150.06C67.353 148.733 68.2988 148.354 69.2447 148.923C70.1904 149.681 71.1362 151.197 71.1362 152.335Z" fill="white"/>
        <mask id="mask5_189_1641" style="mask-type:alpha" maskUnits="userSpaceOnUse" x="49" y="146" width="26" height="16">
            <path d="M72.2704 157.263C72.2704 157.263 74.1618 152.145 74.5402 149.68C74.9185 147.216 74.5402 146.079 72.0811 146.458C69.6222 146.647 61.11 147.216 56.5702 150.249C52.0304 153.282 49.5713 159.917 49.5713 159.917C56.5702 161.812 64.7041 161.812 72.2704 157.263Z" fill="url(#paint17_linear_189_1641)"/>
        </mask>
        <g mask="url(#mask5_189_1641)">
            <path d="M72.2704 157.263C72.2704 157.263 74.1618 152.145 74.5402 149.68C74.9185 147.216 74.5402 146.079 72.0811 146.458C69.6222 146.647 61.11 147.216 56.5702 150.249C52.0304 153.282 49.5713 159.917 49.5713 159.917C56.5702 161.812 64.7041 161.812 72.2704 157.263Z" fill="url(#paint18_linear_189_1641)"/>
        </g>
        <mask id="mask6_189_1641" style="mask-type:alpha" maskUnits="userSpaceOnUse" x="13" y="116" width="12" height="25">
            <path d="M13.6319 130.914C13.821 132.81 13.821 136.411 17.6042 140.961C17.6042 140.961 22.3332 132.431 23.6573 127.313C24.7923 122.953 24.7923 118.214 23.0899 116.129C19.4958 120.299 15.5234 125.607 15.5234 125.607C15.5234 125.607 14.956 126.175 14.1993 126.934C13.821 128.45 13.4427 129.966 13.6319 130.914Z" fill="url(#paint19_linear_189_1641)"/>
        </mask>
        <g mask="url(#mask6_189_1641)">
            <path d="M13.6319 130.914C13.821 132.81 13.821 136.411 17.6042 140.961C17.6042 140.961 22.3332 132.431 23.6573 127.313C24.7923 122.953 24.7923 118.214 23.0899 116.129C19.4958 120.299 15.5234 125.607 15.5234 125.607C15.5234 125.607 14.956 126.175 14.1993 126.934C13.821 128.45 13.4427 129.966 13.6319 130.914Z" fill="url(#paint20_linear_189_1641)"/>
        </g>
    </g>
    <defs>
        <linearGradient id="paint0_linear_189_1641" x1="68.753" y1="174.956" x2="194.938" y2="95.0744" gradientUnits="userSpaceOnUse">
            <stop/>
            <stop offset="0.1304" stop-color="white"/>
            <stop offset="0.4198"/>
            <stop offset="0.6738" stop-color="#0E0E0E"/>
            <stop offset="0.8663" stop-color="white"/>
            <stop offset="1"/>
        </linearGradient>
        <linearGradient id="paint1_linear_189_1641" x1="68.753" y1="174.956" x2="194.938" y2="95.0744" gradientUnits="userSpaceOnUse">
            <stop stop-color="white"/>
            <stop offset="0.1304" stop-color="white"/>
            <stop offset="0.4198" stop-color="white"/>
            <stop offset="0.6738" stop-color="white"/>
            <stop offset="0.8663" stop-color="white"/>
            <stop offset="1" stop-color="white"/>
        </linearGradient>
        <linearGradient id="paint2_linear_189_1641" x1="193.97" y1="90.038" x2="159.063" y2="111.082" gradientUnits="userSpaceOnUse">
            <stop stop-color="white"/>
            <stop offset="1"/>
        </linearGradient>
        <linearGradient id="paint3_linear_189_1641" x1="193.97" y1="90.038" x2="159.063" y2="111.082" gradientUnits="userSpaceOnUse">
            <stop/>
            <stop offset="1"/>
        </linearGradient>
        <linearGradient id="paint4_linear_189_1641" x1="63.8349" y1="161.136" x2="102.591" y2="161.136" gradientUnits="userSpaceOnUse">
            <stop stop-color="white"/>
            <stop offset="1"/>
        </linearGradient>
        <linearGradient id="paint5_linear_189_1641" x1="63.8349" y1="161.136" x2="102.591" y2="161.136" gradientUnits="userSpaceOnUse">
            <stop/>
            <stop offset="1"/>
        </linearGradient>
        <linearGradient id="paint6_linear_189_1641" x1="30.3434" y1="155.638" x2="36.4513" y2="145.455" gradientUnits="userSpaceOnUse">
            <stop stop-color="white"/>
            <stop offset="1"/>
        </linearGradient>
        <linearGradient id="paint7_linear_189_1641" x1="30.3434" y1="155.638" x2="36.4513" y2="145.455" gradientUnits="userSpaceOnUse">
            <stop/>
            <stop offset="1"/>
        </linearGradient>
        <linearGradient id="paint8_linear_189_1641" x1="140.721" y1="92.4861" x2="107.773" y2="139.966" gradientUnits="userSpaceOnUse">
            <stop stop-color="white"/>
            <stop offset="1"/>
        </linearGradient>
        <linearGradient id="paint9_linear_189_1641" x1="140.721" y1="92.4861" x2="107.773" y2="139.966" gradientUnits="userSpaceOnUse">
            <stop stop-color="white"/>
            <stop offset="1" stop-color="white"/>
        </linearGradient>
        <linearGradient id="paint10_linear_189_1641" x1="170.096" y1="122.87" x2="185.001" y2="122.87" gradientUnits="userSpaceOnUse">
            <stop stop-color="#C2C1C1"/>
            <stop offset="1" stop-color="#DFDEDD"/>
        </linearGradient>
        <linearGradient id="paint11_linear_189_1641" x1="173.478" y1="122.744" x2="181.422" y2="122.744" gradientUnits="userSpaceOnUse">
            <stop stop-color="#C2C1C1"/>
            <stop offset="1" stop-color="#DFDEDD"/>
        </linearGradient>
        <linearGradient id="paint12_linear_189_1641" x1="179.226" y1="119.301" x2="175.698" y2="126.078" gradientUnits="userSpaceOnUse">
            <stop stop-color="#C2C1C1"/>
            <stop offset="1" stop-color="#DFDEDD"/>
        </linearGradient>
        <linearGradient id="paint13_linear_189_1641" x1="76.2" y1="177.451" x2="91.105" y2="177.451" gradientUnits="userSpaceOnUse">
            <stop stop-color="#C2C1C1"/>
            <stop offset="1" stop-color="#DFDEDD"/>
        </linearGradient>
        <linearGradient id="paint14_linear_189_1641" x1="79.5816" y1="177.323" x2="87.5251" y2="177.323" gradientUnits="userSpaceOnUse">
            <stop stop-color="#C2C1C1"/>
            <stop offset="1" stop-color="#DFDEDD"/>
        </linearGradient>
        <linearGradient id="paint15_linear_189_1641" x1="85.3271" y1="173.881" x2="81.7993" y2="180.659" gradientUnits="userSpaceOnUse">
            <stop stop-color="#C2C1C1"/>
            <stop offset="1" stop-color="#DFDEDD"/>
        </linearGradient>
        <linearGradient id="paint16_linear_189_1641" x1="52.9062" y1="170.128" x2="54.5278" y2="175.543" gradientUnits="userSpaceOnUse">
            <stop stop-color="#394142"/>
            <stop offset="0.5107" stop-color="#7A8B8F"/>
            <stop offset="1" stop-color="#515B5E"/>
        </linearGradient>
        <linearGradient id="paint17_linear_189_1641" x1="49.5263" y1="153.846" x2="74.7587" y2="153.846" gradientUnits="userSpaceOnUse">
            <stop stop-color="white"/>
            <stop offset="1"/>
        </linearGradient>
        <linearGradient id="paint18_linear_189_1641" x1="49.5263" y1="153.846" x2="74.7587" y2="153.846" gradientUnits="userSpaceOnUse">
            <stop stop-color="white"/>
            <stop offset="1" stop-color="white"/>
        </linearGradient>
        <linearGradient id="paint19_linear_189_1641" x1="22.851" y1="116.429" x2="14.0351" y2="140.294" gradientUnits="userSpaceOnUse">
            <stop stop-color="white"/>
            <stop offset="1"/>
        </linearGradient>
        <linearGradient id="paint20_linear_189_1641" x1="22.851" y1="116.429" x2="14.0351" y2="140.294" gradientUnits="userSpaceOnUse">
            <stop stop-color="white"/>
            <stop offset="1" stop-color="white"/>
        </linearGradient>
        <clipPath id="clip0_189_1641">
            <rect width="200" height="200" fill="white"/>
        </clipPath>
    </defs>
</svg>