<?xml version="1.0" ?><svg id="Layer_5" style="enable-background:new 0 0 62 62;" version="1.1" viewBox="0 0 62 62" xml:space="preserve" xmlns="http://www.w3.org/2000/svg" xmlns:xlink="http://www.w3.org/1999/xlink"><g><g><g><path d="M55,3v1.5L53,5H37H21.04H21V3c0-1.1,0.9-2,2-2h30C54.1,1,55,1.9,55,3z" style="fill:#AAB2BD;"/></g><g><path d="M53,39v4h-2h-6H29.66c-0.99-1.71-2.48-3.12-4.31-4H37h8H53z" style="fill:#AAB2BD;"/></g><g><path d="M51,43v4c0,1.1-0.9,2-2,2h-2c-1.1,0-2-0.9-2-2v-4H51z" style="fill:#969FAA;"/></g><g><polygon points="53,5 53,31 49,31 49,23 45,23 41,23 41,31 37,31 37,5    " style="fill:#E6E9ED;"/></g><g><path d="M28.01,25c1.65,0,2.99-1.34,2.99-2.99c0-0.83-0.34-1.59-0.88-2.13c-0.08-0.08-0.16-0.15-0.25-0.22     C30.6,18.34,31,16.84,31,15.3c0-2.13-0.76-4.19-2.15-5.81l-1.27-1.48C25.94,6.1,23.55,5,21.04,5H37v26v8H25.35     c-0.3-0.15-0.61-0.28-0.93-0.39l-2.06-0.75L20,37v-2.34c0-0.4,0.24-0.76,0.61-0.92c1.94-0.83,3.54-2.2,4.65-3.89     c0.94-1.43,1.54-3.09,1.69-4.85h0.01H28H28.01z" style="fill:#CCD1D9;"/></g><g><path d="M61,21v6c0,0.55-0.45,1-1,1h-3v-8h3C60.55,20,61,20.45,61,21z" style="fill:#AAB2BD;"/></g><g><polygon points="57,28 57,44 53,43 53,39 53,31 53,5 55,4.5 57,4 57,20    " style="fill:#CCD1D9;"/></g><g><polygon points="49,31 53,31 53,39 45,39 45,31    " style="fill:#D3A06C;"/></g><g><polygon points="41,31 45,31 45,39 37,39 37,31    " style="fill:#D3A06C;"/></g><g><polygon points="45,23 49,23 49,31 45,31 41,31 41,23    " style="fill:#D3A06C;"/></g><g><path d="M6,19c-0.71,0-1.36,0.25-1.87,0.65C3.4,18.34,3,16.84,3,15.3c0-2.13,0.76-4.19,2.15-5.81     l1.27-1.48C7.24,7.06,8.25,6.3,9.36,5.79C10.48,5.28,11.7,5,12.96,5c1.34,0,2.66,0.31,3.86,0.91L17,6l0.18-0.09     C18.37,5.32,19.67,5.01,21,5h0.04c2.51,0,4.9,1.1,6.54,3.01l1.27,1.48C30.24,11.11,31,13.17,31,15.3c0,1.54-0.4,3.04-1.13,4.36     C29.36,19.25,28.71,19,28,19h-1c-0.07-1.82-1.26-3.42-3-4c0,1.19-0.76,2.25-1.9,2.63L21,18v-0.76c0-1.37-0.77-2.63-2-3.24l-2,2     l-2-2c-1.23,0.61-2,1.87-2,3.24V18l-1.1-0.37C10.76,17.25,10,16.19,10,15c-0.9,0.3-1.64,0.87-2.17,1.6     C7.33,17.28,7.04,18.12,7,19H6z" style="fill:#B27946;"/></g><g><path d="M29.66,43c-0.99-1.71-2.48-3.12-4.31-4c-0.3-0.15-0.61-0.28-0.93-0.39l-2.06-0.75L21,44l-4-4l-4,4     l-1.36-6.14l-2.06,0.75C5.63,40.04,3,43.8,3,48v2.17v0.01C3.31,50.06,3.65,50,4,50h1c1.1,0,2,0.9,2,2v-7h4h4h6h6v7     c0-1.1,0.9-2,2-2h1c0.35,0,0.69,0.06,1,0.18v-0.01V48C31,46.2,30.52,44.49,29.66,43z" style="fill:#5CD6B3;"/></g><g><polygon points="22.36,37.86 21,44 17,40 20,37    " style="fill:#48CFAD;"/></g><g><polygon points="17,40 13,44 11.64,37.86 14,37    " style="fill:#48CFAD;"/></g><g><rect height="16" style="fill:#D3A06C;" width="20" x="7" y="45"/></g><g><rect height="8" style="fill:#B27946;" width="4" x="11" y="45"/></g><g><path d="M7,54v2c0,1.1-0.9,2-2,2H4c-1.66,0-3-1.34-3-3v-2c0-1.31,0.83-2.42,2-2.82     C3.31,50.06,3.65,50,4,50h1c1.1,0,2,0.9,2,2V54z" style="fill:#F0D0B4;"/></g><g><path d="M29,50h1c0.35,0,0.69,0.06,1,0.18c1.17,0.4,2,1.51,2,2.82v2c0,1.66-1.34,3-3,3h-1     c-1.1,0-2-0.9-2-2v-2v-2C27,50.9,27.9,50,29,50z" style="fill:#F0D0B4;"/></g><g><path d="M29.87,19.66c0.09,0.07,0.17,0.14,0.25,0.22c0.54,0.54,0.88,1.3,0.88,2.13     c0,1.65-1.34,2.99-2.99,2.99H28h-1.04h-0.01c0.04-0.32,0.05-0.64,0.05-0.96v-4.88c0-0.05,0-0.11,0-0.16h1     C28.71,19,29.36,19.25,29.87,19.66z" style="fill:#F0D0B4;"/></g><g><path d="M27,19.16v4.88c0,0.32-0.01,0.64-0.05,0.96c-0.15,1.76-0.75,3.42-1.69,4.85     c-1.11,1.69-2.71,3.06-4.65,3.89C20.24,33.9,20,34.26,20,34.66V37l-3,3l-3-3v-2.34c0-0.4-0.24-0.76-0.61-0.92     c-3.58-1.53-6-4.91-6.34-8.74C7.01,24.68,7,24.36,7,24.04v-4.88c0-0.05,0-0.11,0-0.16c0.04-0.88,0.33-1.72,0.83-2.4     C8.36,15.87,9.1,15.3,10,15c0,1.19,0.76,2.25,1.9,2.63L13,18v-0.76c0-1.37,0.77-2.63,2-3.24l2,2l2-2c1.23,0.61,2,1.87,2,3.24V18     l1.1-0.37C23.24,17.25,24,16.19,24,15c1.74,0.58,2.93,2.18,3,4C27,19.05,27,19.11,27,19.16z" style="fill:#F0D0B4;"/></g><g><path d="M7,24.04c0,0.32,0.01,0.64,0.05,0.96H7.04H6H5.98c-0.82,0-1.56-0.34-2.1-0.88     C3.34,23.58,3,22.84,3,22.01c0-0.96,0.44-1.81,1.13-2.36C4.64,19.25,5.29,19,6,19h1c0,0.05,0,0.11,0,0.16V24.04z" style="fill:#F0D0B4;"/></g></g><g><rect height="2" width="6" x="18" y="48"/><rect height="2" width="6" x="18" y="52"/><circle cx="22" cy="21" r="1"/><circle cx="12" cy="21" r="1"/><path d="M16.999,32c1.614,0,3.066-0.897,3.789-2.342l0.105-0.211l-1.789-0.895l-0.105,0.211c-0.382,0.763-1.147,1.236-2,1.236    s-1.619-0.474-2-1.236l-0.105-0.211l-1.789,0.895l0.105,0.211C13.932,31.103,15.384,32,16.999,32z"/><path d="M16.446,27.895l1.105-0.553c0.478-0.239,0.834-0.649,1.003-1.156s0.131-1.05-0.108-1.527l-0.447-0.895V22h-2v2    c0,0.155,0.036,0.309,0.105,0.447l0.553,1.105l-1.105,0.553L16.446,27.895z"/><path d="M60,19h-2V2.719l-2,0.5V3c0-1.654-1.346-3-3-3H23c-1.654,0-3,1.346-3,3v1.057c-1.036,0.113-2.054,0.394-3,0.83    C15.74,4.306,14.352,4,12.965,4C10.152,4,7.49,5.225,5.66,7.36l-1.27,1.481C2.849,10.64,2,12.935,2,15.303    c0,1.44,0.334,2.859,0.937,4.162C2.361,20.16,2,21.042,2,22.015C2,24.212,3.788,26,6,26h0.17c0.653,3.816,3.185,7.099,6.827,8.659    l0.001,1.641l-3.757,1.366C4.91,39.241,2,43.396,2,48.004v1.552C0.81,50.25,0,51.526,0,53v2c0,2.206,1.794,4,4,4h1    c0.352,0,0.686-0.072,1-0.184V62h22v-3.184C28.314,58.928,28.648,59,29,59h1c2.206,0,4-1.794,4-4v-2c0-1.474-0.81-2.75-2-3.444    v-1.552c0-1.397-0.271-2.75-0.764-4.004H44v3c0,1.654,1.346,3,3,3h2c1.654,0,3-1.346,3-3v-3h0.877L58,45.281V29h2    c1.103,0,2-0.897,2-2v-6C62,19.897,61.103,19,60,19z M22,3c0-0.552,0.448-1,1-1h30c0.552,0,1,0.448,1,1v0.719L52.875,4H22V3z     M24.759,37.666L21.002,36.3l0.001-1.641c3.642-1.561,6.174-4.843,6.827-8.659h0.185C30.212,26,32,24.212,32,22.015    c0-0.973-0.361-1.854-0.936-2.55C31.666,18.162,32,16.742,32,15.303c0-2.368-0.849-4.663-2.39-6.46L28.34,7.36    C27.905,6.853,27.42,6.401,26.9,6H36v32H25.572C25.307,37.879,25.036,37.767,24.759,37.666z M12,46h2v6h-2V46z M14.414,44    L17,41.414L19.586,44H14.414z M18.414,40l1.844-1.843l0.94,0.342l-0.779,3.506L18.414,40z M30,22.015    c0,1.094-0.89,1.984-1.998,1.985V20C29.104,20.003,30,20.905,30,22.015z M38,32h2v2h2v-2h2v6h-6V32z M46,26v-2h2v6h-2h-2h-2v-6h2    v2H46z M46,32h2v2h2v-2h2v6h-6V32z M50,30v-8H40v8h-2V6h14v24H50z M4,22.015c0-1.11,0.896-2.013,1.998-2.014v4H5.985    C4.891,24,4,23.109,4,22.015z M6.14,18H6.001c-0.502,0-0.978,0.104-1.421,0.274C4.199,17.332,4,16.322,4,15.303    c0-1.892,0.678-3.724,1.909-5.159L7.18,8.661C8.629,6.97,10.737,6,12.965,6c1.177,0,2.355,0.278,3.408,0.805L17,7.118l0.627-0.313    C18.68,6.278,19.858,6,21.035,6c2.228,0,4.336,0.97,5.785,2.661l1.271,1.483C29.322,11.579,30,13.411,30,15.303    c0,1.019-0.199,2.03-0.579,2.971C28.977,18.104,28.501,18,27.998,18H27.86c-0.403-1.821-1.717-3.34-3.542-3.948    c-0.306-0.104-0.641-0.052-0.9,0.137c-0.261,0.188-0.416,0.489-0.416,0.811c-0.001,0.703-0.412,1.332-1.042,1.617    c-0.2-1.506-1.124-2.816-2.512-3.511c-0.383-0.192-0.849-0.119-1.154,0.188L17,14.586l-1.293-1.293    c-0.306-0.306-0.771-0.379-1.154-0.188c-1.388,0.694-2.312,2.005-2.512,3.511c-0.63-0.285-1.041-0.914-1.042-1.617    c0-0.321-0.155-0.623-0.416-0.811c-0.261-0.188-0.597-0.241-0.9-0.137C7.858,14.66,6.543,16.179,6.14,18z M7.998,24.043v-4.88    c0.001-1.067,0.498-2.045,1.307-2.674c0.416,0.97,1.23,1.743,2.276,2.093l1.103,0.367c0.304,0.1,0.64,0.05,0.901-0.138    C13.846,18.623,14,18.321,14,18v-0.764c0-0.761,0.322-1.463,0.871-1.951l1.422,1.422c0.391,0.391,1.023,0.391,1.414,0l1.422-1.422    C19.678,15.773,20,16.476,20,17.236V18c0,0.321,0.154,0.623,0.415,0.812c0.262,0.188,0.596,0.237,0.901,0.138l1.103-0.368    c1.046-0.349,1.86-1.122,2.276-2.092c0.809,0.629,1.306,1.605,1.307,2.673v4.881c0.001,3.826-2.271,7.271-5.785,8.777    c-0.737,0.315-1.214,1.036-1.214,1.837l-0.002,1.928L17,38.586l-2.001-2.001l-0.002-1.927c0-0.802-0.477-1.522-1.213-1.837    C10.269,31.314,7.997,27.869,7.998,24.043z M13.742,38.157L15.586,40l-2.005,2.005l-0.779-3.506L13.742,38.157z M4,48.004    c0-3.771,2.381-7.17,5.925-8.459l0.981-0.357L11.976,44H6v5.184C5.686,49.072,5.352,49,5,49H4V48.004z M5,57H4    c-1.103,0-2-0.897-2-2v-2c0-1.103,0.897-2,2-2h1c0.552,0,1,0.448,1,1v1H4v2h2v1C6,56.552,5.552,57,5,57z M26,60H8v-4v-4v-6h2v8h6    v-8h10v6v4V60z M32,55c0,1.103-0.897,2-2,2h-1c-0.552,0-1-0.448-1-1v-1h2v-2h-2v-1c0-0.552,0.448-1,1-1h1c1.103,0,2,0.897,2,2V55z     M29,49c-0.352,0-0.686,0.072-1,0.184V44h-5.976l1.069-4.812l0.981,0.357C27.619,40.834,30,44.233,30,48.004V49H29z M50,47    c0,0.552-0.448,1-1,1h-2c-0.552,0-1-0.448-1-1v-3h4V47z M30.199,42c-0.476-0.729-1.035-1.4-1.671-2H52v2H30.199z M56,42.719    l-2-0.5V5.781l2-0.5V42.719z M60,27h-2v-6h2V27z"/></g></g></svg>