<svg xmlns="http://www.w3.org/2000/svg" width="200" height="200" viewBox="0 0 200 200" fill="none">
    <path opacity="0.1" d="M4.51203 170.933L160.356 93.802L199.609 114.961L80.3132 186.306L76.1622 183.864L49.9927 198.965C44.5784 201.587 36.0958 198.242 30.4107 194.986L6.49729 181.241C0.361009 177.535 -0.0901877 173.556 4.51203 170.933Z" fill="black"/>
    <path d="M178.132 108.179L62.1748 175.273V165.327L178.855 96.5144L178.132 108.179Z" fill="#1E1E1E"/>
    <path d="M121.733 103.929L40.6982 150.859L62.1753 165.327L143.211 118.487L121.733 103.929Z" fill="#3B4447"/>
    <path d="M138.608 136.391L137.976 137.928L129.945 133.317L131.479 130.242L136.352 132.232L138.608 136.391Z" fill="#1E1E1E"/>
    <path d="M134.546 134.041L128.41 130.424C127.056 129.61 125.161 129.791 123.086 130.966C118.936 133.408 115.506 139.285 115.506 144.077C115.506 146.519 116.318 148.237 117.762 148.961L123.898 152.578C125.252 153.392 127.147 153.21 129.223 152.035C133.374 149.593 136.803 143.806 136.803 138.924C136.803 136.573 135.99 134.854 134.546 134.041Z" fill="#2E373A"/>
    <path d="M136.802 138.923C136.802 143.716 133.464 149.593 129.223 152.035C127.147 153.21 125.252 153.391 123.898 152.578C122.545 151.764 121.643 150.136 121.643 147.694C121.643 142.902 124.981 137.024 129.223 134.583C131.298 133.407 133.193 133.227 134.546 134.04C135.99 134.854 136.802 136.572 136.802 138.923Z" fill="#555E61"/>
    <path d="M136.351 139.557C136.351 143.987 133.284 149.322 129.493 151.493C125.703 153.662 122.635 151.944 122.635 147.514C122.635 143.083 125.703 137.748 129.493 135.578C133.284 133.317 136.351 135.126 136.351 139.557Z" fill="#3B4447"/>
    <path d="M134.096 140.732C134.096 143.716 132.02 147.242 129.494 148.779C126.968 150.227 124.893 149.051 124.893 146.067C124.893 143.083 126.968 139.557 129.494 138.019C132.02 136.573 134.096 137.748 134.096 140.732Z" fill="url(#paint0_linear_189_1064)"/>
    <path d="M133.193 140.912C133.193 143.445 131.388 146.519 129.223 147.785C127.057 149.051 125.252 148.056 125.252 145.525C125.252 142.992 127.057 139.918 129.223 138.652C131.388 137.296 133.193 138.381 133.193 140.912Z" fill="url(#paint1_linear_189_1064)"/>
    <path d="M129.494 138.381C129.313 138.471 129.042 138.652 128.862 138.833C128.953 138.742 129.133 138.652 129.224 138.562C131.389 137.296 133.194 138.29 133.194 140.823C133.194 143.354 131.389 146.428 129.224 147.694C127.057 148.96 125.253 147.966 125.253 145.434C125.253 145.163 125.253 144.801 125.344 144.529C125.253 144.982 125.162 145.434 125.162 145.886C125.162 148.599 127.057 149.774 129.494 148.417C131.84 147.062 133.825 143.715 133.825 140.912C133.825 138.11 131.84 137.024 129.494 138.381Z" fill="url(#paint2_linear_189_1064)"/>
    <path d="M132.922 141.003C132.922 143.444 131.208 146.338 129.132 147.603C127.057 148.779 125.343 147.875 125.343 145.434C125.343 142.992 127.057 140.098 129.132 138.833C131.208 137.567 132.922 138.562 132.922 141.003Z" fill="url(#paint3_linear_189_1064)"/>
    <path d="M132.201 142.179C132.201 143.806 131.027 145.796 129.583 146.7C128.139 147.514 126.966 146.88 126.966 145.163C126.966 143.535 128.139 141.546 129.583 140.641C131.027 139.918 132.201 140.551 132.201 142.179Z" fill="url(#paint4_linear_189_1064)"/>
    <path d="M129.494 139.828C129.584 140.1 129.494 140.461 129.223 140.461C129.043 140.551 128.772 140.28 128.681 140.009C128.591 139.737 128.681 139.376 128.952 139.376C129.133 139.285 129.404 139.466 129.494 139.828Z" fill="url(#paint5_linear_189_1064)"/>
    <path d="M126.245 144.077C126.516 144.077 126.785 144.349 126.785 144.529C126.785 144.711 126.516 144.891 126.154 144.8C125.883 144.8 125.613 144.529 125.613 144.349C125.613 144.168 125.883 143.988 126.245 144.077Z" fill="url(#paint6_linear_189_1064)"/>
    <path d="M126.335 146.428C126.606 146.339 126.877 146.339 126.968 146.428C127.057 146.61 126.877 146.79 126.606 146.881C126.335 146.971 126.065 146.971 125.975 146.881C125.884 146.79 126.065 146.61 126.335 146.428Z" fill="url(#paint7_linear_189_1064)"/>
    <path d="M127.779 147.423C127.87 147.242 128.05 147.151 128.141 147.151C128.23 147.242 128.23 147.423 128.141 147.604C128.05 147.785 127.87 147.876 127.779 147.876C127.69 147.876 127.69 147.604 127.779 147.423Z" fill="url(#paint8_linear_189_1064)"/>
    <path d="M127.599 141.456C127.87 141.637 127.959 141.908 127.87 142.088C127.779 142.269 127.419 142.269 127.148 142.088C126.877 141.908 126.786 141.637 126.877 141.456C126.968 141.274 127.328 141.274 127.599 141.456Z" fill="url(#paint9_linear_189_1064)"/>
    <path d="M131.479 139.376C131.479 139.646 131.299 139.918 131.118 139.918C130.937 139.918 130.757 139.646 130.847 139.376C130.847 139.104 131.028 138.833 131.208 138.833C131.299 138.743 131.479 139.014 131.479 139.376Z" fill="url(#paint10_linear_189_1064)"/>
    <path d="M132.561 141.185C132.381 141.274 132.201 141.274 132.11 141.185C132.021 141.094 132.11 140.913 132.291 140.732C132.472 140.642 132.652 140.642 132.742 140.732C132.832 140.823 132.742 141.003 132.561 141.185Z" fill="url(#paint11_linear_189_1064)"/>
    <path d="M132.291 143.263C132.201 143.263 132.201 143.174 132.201 142.992C132.201 142.902 132.291 142.812 132.381 142.812C132.472 142.812 132.472 142.902 132.472 143.083C132.472 143.174 132.381 143.263 132.291 143.263Z" fill="url(#paint12_linear_189_1064)"/>
    <path d="M129.855 147.062C129.766 147.062 129.675 147.062 129.675 146.971C129.675 146.881 129.675 146.791 129.764 146.791C129.855 146.791 129.946 146.791 129.946 146.881C129.946 146.971 129.855 147.062 129.855 147.062Z" fill="url(#paint13_linear_189_1064)"/>
    <path d="M131.57 145.072C131.57 145.163 131.479 145.163 131.389 145.072C131.299 145.072 131.299 144.982 131.389 144.891C131.389 144.802 131.479 144.802 131.57 144.891C131.57 144.891 131.57 144.982 131.57 145.072Z" fill="url(#paint14_linear_189_1064)"/>
    <path d="M131.299 142.993C131.299 143.988 130.577 145.163 129.764 145.614C128.953 146.067 128.23 145.705 128.23 144.711C128.23 143.716 128.953 142.54 129.764 142.088C130.577 141.637 131.299 142.088 131.299 142.993Z" fill="url(#paint15_linear_189_1064)"/>
    <path d="M131.479 143.174C131.479 144.077 130.847 145.253 130.035 145.705C129.222 146.157 128.591 145.796 128.591 144.891C128.591 143.988 129.222 142.812 130.035 142.36C130.757 141.817 131.479 142.269 131.479 143.174Z" fill="url(#paint16_linear_189_1064)"/>
    <path d="M135.901 130.243L128.501 125.812C126.696 125.089 124.35 125.36 121.732 126.897C115.957 130.243 111.175 138.471 111.175 145.163L118.214 149.503L119.477 148.78C119.477 142.902 123.628 135.668 128.772 132.684C133.915 129.7 138.066 132.142 138.066 138.019L139.33 137.296C139.239 133.679 137.975 131.238 135.901 130.243Z" fill="#485154"/>
    <path d="M119.477 148.69C119.477 142.811 123.628 135.578 128.772 132.594C133.915 129.61 138.066 132.051 138.066 137.929L139.33 137.205C139.33 130.514 134.637 127.711 128.772 131.147C122.996 134.493 118.214 142.722 118.214 149.413L119.477 148.69Z" fill="#3B4447"/>
    <path d="M185.533 107.275L184.902 108.902L176.87 104.291L178.404 101.126L183.277 103.115L185.533 107.275Z" fill="#1E1E1E"/>
    <path d="M181.471 104.924L175.335 101.307C173.982 100.493 172.086 100.674 170.011 101.849C165.861 104.291 162.432 110.168 162.432 114.961C162.432 117.402 163.243 119.12 164.687 119.844L170.824 123.461C172.177 124.275 174.072 124.094 176.148 122.918C180.299 120.477 183.728 114.69 183.728 109.807C183.728 107.456 182.915 105.738 181.471 104.924Z" fill="#2E373A"/>
    <path d="M183.728 109.897C183.728 114.69 180.388 120.567 176.148 123.009C174.072 124.184 172.177 124.365 170.823 123.551C169.47 122.738 168.567 121.11 168.567 118.668C168.567 113.876 171.906 107.999 176.148 105.557C178.223 104.382 180.117 104.201 181.471 105.015C182.915 105.738 183.728 107.456 183.728 109.897Z" fill="#555E61"/>
    <path d="M183.275 110.44C183.275 114.87 180.207 120.205 176.417 122.375C172.627 124.546 169.559 122.828 169.559 118.397C169.559 113.966 172.627 108.631 176.417 106.461C180.207 104.291 183.275 106.009 183.275 110.44Z" fill="#3B4447"/>
    <path d="M181.02 111.615C181.02 114.599 178.944 118.126 176.419 119.663C173.892 121.11 171.816 119.934 171.816 116.95C171.816 113.966 173.892 110.44 176.419 108.903C178.944 107.456 181.02 108.631 181.02 111.615Z" fill="url(#paint17_linear_189_1064)"/>
    <path d="M180.117 111.796C180.117 114.328 178.313 117.402 176.148 118.668C173.981 119.934 172.177 118.94 172.177 116.408C172.177 113.876 173.981 110.802 176.148 109.536C178.313 108.27 180.117 109.264 180.117 111.796Z" fill="url(#paint18_linear_189_1064)"/>
    <path d="M176.417 109.264C176.237 109.355 175.966 109.536 175.786 109.716C175.877 109.626 176.057 109.536 176.148 109.445C178.313 108.179 180.117 109.174 180.117 111.706C180.117 114.238 178.313 117.312 176.148 118.578C173.981 119.844 172.177 118.849 172.177 116.317C172.177 116.046 172.177 115.684 172.267 115.413C172.177 115.865 172.086 116.317 172.086 116.769C172.086 119.482 173.981 120.658 176.417 119.301C178.764 117.945 180.75 114.599 180.75 111.796C180.75 108.993 178.764 107.908 176.417 109.264Z" fill="url(#paint19_linear_189_1064)"/>
    <path d="M179.847 111.887C179.847 114.328 178.133 117.222 176.057 118.487C173.982 119.663 172.268 118.759 172.268 116.317C172.268 113.876 173.982 110.982 176.057 109.716C178.133 108.541 179.847 109.445 179.847 111.887Z" fill="url(#paint20_linear_189_1064)"/>
    <path d="M179.125 113.152C179.125 114.78 177.952 116.769 176.508 117.674C175.065 118.488 173.892 117.855 173.892 116.136C173.892 114.509 175.065 112.519 176.508 111.615C177.952 110.801 179.125 111.434 179.125 113.152Z" fill="url(#paint21_linear_189_1064)"/>
    <path d="M176.419 110.711C176.508 110.982 176.419 111.344 176.148 111.344C175.967 111.435 175.697 111.163 175.606 110.892C175.516 110.621 175.606 110.259 175.877 110.259C176.057 110.168 176.328 110.44 176.419 110.711Z" fill="url(#paint22_linear_189_1064)"/>
    <path d="M173.169 114.961C173.44 114.961 173.71 115.232 173.71 115.413C173.71 115.594 173.44 115.775 173.079 115.684C172.808 115.684 172.538 115.413 172.538 115.232C172.538 115.051 172.808 114.961 173.169 114.961Z" fill="url(#paint23_linear_189_1064)"/>
    <path d="M173.351 117.402C173.622 117.312 173.892 117.312 173.982 117.402C174.073 117.583 173.892 117.764 173.622 117.854C173.351 117.945 173.08 117.945 172.99 117.854C172.809 117.764 172.99 117.493 173.351 117.402Z" fill="url(#paint24_linear_189_1064)"/>
    <path d="M174.703 118.397C174.794 118.216 174.974 118.126 175.065 118.126C175.154 118.216 175.154 118.397 175.065 118.578C174.974 118.759 174.794 118.849 174.703 118.849C174.613 118.759 174.613 118.578 174.703 118.397Z" fill="url(#paint25_linear_189_1064)"/>
    <path d="M174.524 112.339C174.795 112.519 174.884 112.791 174.795 112.972C174.704 113.152 174.343 113.152 174.073 112.972C173.802 112.791 173.711 112.519 173.802 112.339C173.982 112.248 174.253 112.248 174.524 112.339Z" fill="url(#paint26_linear_189_1064)"/>
    <path d="M178.404 110.259C178.404 110.53 178.223 110.801 178.043 110.801C177.862 110.801 177.682 110.53 177.772 110.259C177.772 109.988 177.953 109.716 178.133 109.716C178.223 109.716 178.404 109.988 178.404 110.259Z" fill="url(#paint27_linear_189_1064)"/>
    <path d="M179.486 112.067C179.306 112.158 179.126 112.158 179.035 112.067C178.946 111.977 179.035 111.796 179.216 111.615C179.397 111.525 179.577 111.525 179.668 111.615C179.757 111.796 179.668 111.977 179.486 112.067Z" fill="url(#paint28_linear_189_1064)"/>
    <path d="M179.216 114.147C179.125 114.147 179.125 114.057 179.125 113.876C179.125 113.786 179.216 113.695 179.305 113.695C179.396 113.695 179.396 113.786 179.396 113.966C179.396 114.147 179.305 114.238 179.216 114.147Z" fill="url(#paint29_linear_189_1064)"/>
    <path d="M176.779 117.945C176.689 117.945 176.599 117.945 176.599 117.855C176.599 117.764 176.599 117.674 176.689 117.674C176.779 117.674 176.87 117.674 176.87 117.764C176.87 117.855 176.779 117.945 176.779 117.945Z" fill="url(#paint30_linear_189_1064)"/>
    <path d="M178.494 115.956C178.494 116.046 178.403 116.046 178.312 115.956C178.223 115.956 178.223 115.865 178.312 115.775C178.312 115.684 178.403 115.684 178.494 115.775C178.494 115.865 178.494 115.956 178.494 115.956Z" fill="url(#paint31_linear_189_1064)"/>
    <path d="M178.223 113.966C178.223 114.961 177.501 116.136 176.688 116.588C175.876 117.041 175.154 116.679 175.154 115.684C175.154 114.689 175.876 113.514 176.688 113.062C177.501 112.61 178.223 112.971 178.223 113.966Z" fill="url(#paint32_linear_189_1064)"/>
    <path d="M178.403 114.057C178.403 114.961 177.772 116.137 176.959 116.589C176.147 117.041 175.515 116.679 175.515 115.775C175.515 114.871 176.147 113.695 176.959 113.243C177.681 112.791 178.403 113.153 178.403 114.057Z" fill="url(#paint33_linear_189_1064)"/>
    <path d="M182.825 101.126L175.425 96.6957C173.621 95.9722 171.274 96.2435 168.658 97.7808C162.882 101.126 158.1 109.355 158.1 116.046L165.138 120.387L166.401 119.663C166.401 113.786 170.552 106.552 175.696 103.568C180.839 100.584 184.99 103.025 184.99 108.903L186.254 108.18C186.254 104.563 184.901 102.121 182.825 101.126Z" fill="#485154"/>
    <path d="M166.401 119.573C166.401 113.695 170.553 106.461 175.697 103.478C180.84 100.494 184.991 102.935 184.991 108.812L186.255 108.089C186.255 101.398 181.562 98.5947 175.697 102.031C169.921 105.376 165.139 113.605 165.139 120.296L166.401 119.573Z" fill="#3B4447"/>
    <path d="M83.2012 158.727L85.0059 162.706V164.062L86.54 163.248V162.525L84.5548 158.003L83.2012 158.727Z" fill="#8897A0"/>
    <path d="M116.678 148.327V147.333L115.415 146.61L77.6953 168.311V171.658L78.688 172.199L116.409 150.407V149.593L116.137 149.413V148.599L116.678 148.327Z" fill="#8897A0"/>
    <path opacity="0.2" d="M78.959 170.12L78.5078 169.939V171.205L116.138 149.413V148.599L78.959 170.12Z" fill="#8897A0"/>
    <path opacity="0.5" d="M115.415 146.61L77.6953 168.311L78.9587 169.035L116.678 147.333L115.415 146.61Z" fill="white"/>
    <path opacity="0.2" d="M116.408 149.594L78.6883 171.386L78.5078 171.205L116.138 149.413L116.408 149.594Z" fill="white"/>
    <path d="M105.399 145.977L107.204 149.956V151.312L108.648 150.407V149.684L106.753 145.163L105.399 145.977Z" fill="#8897A0"/>
    <path opacity="0.5" d="M105.399 145.976L107.204 149.954V151.311L107.926 150.859V149.954L106.031 145.525L105.399 145.976Z" fill="#8897A0"/>
    <path opacity="0.5" d="M83.2012 158.726L85.0059 162.705V164.062L85.8182 163.7V162.705L83.923 158.365L83.2012 158.726Z" fill="#8897A0"/>
    <path d="M34.5625 186.758L32.9382 186.035C32.5773 185.853 32.3064 185.401 32.3064 184.949V184.407C32.3064 184.316 32.3064 184.135 32.3967 184.044C32.2162 184.044 32.126 184.226 32.126 184.497V185.04C32.126 185.401 32.3967 185.944 32.7577 186.124L34.382 186.848C34.6527 186.938 34.8332 186.938 34.9234 186.758C34.8332 186.848 34.743 186.848 34.5625 186.758Z" fill="#4D585A"/>
    <path d="M137.795 80.7807L178.132 104.11V101.578L137.795 78.2488V80.7807Z" fill="url(#paint34_linear_189_1064)"/>
    <path d="M138.517 77.8875L178.854 101.217L178.132 101.579L137.795 78.2491L138.517 77.8875Z" fill="url(#paint35_linear_189_1064)"/>
    <path d="M178.855 103.658L178.133 104.11V101.578L178.855 101.217V103.658Z" fill="url(#paint36_linear_189_1064)"/>
    <path d="M137.164 74.8128L179.577 99.4082V95.0678L137.164 70.563V74.8128Z" fill="url(#paint37_linear_189_1064)"/>
    <path d="M181.742 93.802V98.0519L179.577 99.4082V95.0679L181.742 93.802Z" fill="url(#paint38_linear_189_1064)"/>
    <path d="M43.7656 79.4245L141.404 23L181.741 44.8826V94.7061L86.1782 152.487L43.7656 127.982V79.4245Z" fill="white"/>
    <path d="M181.743 44.8826L86.1787 104.02V152.487L181.743 94.7062V44.8826Z" fill="#E5E5E5"/>
    <path d="M43.7656 79.4243V127.982L86.1782 152.487V104.02L43.7656 79.4243Z" fill="#B2B2B2"/>
    <path d="M66.6865 153.753V166.412L78.5981 173.375V160.626L66.6865 153.753Z" fill="#273234"/>
    <path d="M4.78223 133.498V134.583L6.67726 136.211V134.583L4.78223 133.498Z" fill="#303E42"/>
    <path d="M3.97047 128.977L2.16568 127.892C1.71448 127.621 1.35352 127.802 1.35352 128.344V134.493C1.35352 135.036 1.71448 135.669 2.16568 135.85L3.97047 136.935C4.42167 137.206 4.78262 137.025 4.78262 136.482V134.493V133.408V130.334C4.78262 129.882 4.42167 129.249 3.97047 128.977Z" fill="#D4DBDF"/>
    <path d="M3.97046 128.977L2.16567 127.892C1.71447 127.62 1.44376 127.801 1.35352 128.253C1.44376 128.253 1.53399 128.253 1.71447 128.344L3.51926 129.429C3.97046 129.7 4.33142 130.333 4.33142 130.785V133.86V134.945V136.934V137.025C4.60213 137.025 4.78262 136.844 4.78262 136.482V134.493V133.408V130.333C4.78262 129.881 4.42166 129.248 3.97046 128.977Z" fill="#EEF5F9"/>
    <path d="M67.4988 165.237L60.1895 169.396L73.1839 176.992C73.3643 175.998 73.4546 175.002 73.4546 174.008C73.3643 168.673 71.4693 164.875 67.4988 165.237Z" fill="#343433"/>
    <path d="M68.7625 168.492L62.8067 165.146C61.1824 164.152 59.0167 164.242 56.7607 165.508C51.7975 168.492 48.188 174.822 48.0976 180.518C48.0074 183.231 49.1805 185.22 50.9853 186.125L57.6631 189.832C59.1972 190.555 61.1824 190.374 63.1676 189.199C68.1309 186.215 71.7404 179.886 71.8307 174.188C71.9209 171.385 70.6575 169.396 68.7625 168.492Z" fill="#343433"/>
    <path d="M71.9201 174.188C71.8299 179.976 68.2203 186.215 63.2572 189.2C58.8354 191.821 54.5039 189.289 54.5942 184.135C54.6844 178.348 58.2939 172.109 63.2572 169.125C67.6789 166.503 72.0103 169.125 71.9201 174.188Z" fill="#424040"/>
    <path d="M71.2891 174.822C71.1988 180.156 67.9502 185.944 63.4383 188.657C59.4677 191.098 55.4971 188.746 55.5875 184.044C55.6777 178.71 58.9263 172.922 63.4383 170.21C67.4087 167.768 71.3793 170.12 71.2891 174.822Z" fill="#575656"/>
    <path d="M69.1229 176.268C69.0327 179.886 66.7767 183.864 63.7086 185.763C60.9112 187.391 58.204 185.763 58.2942 182.598C58.3844 178.981 60.6405 175.002 63.7086 173.104C66.4158 171.476 69.2133 173.104 69.1229 176.268Z" fill="#CCCBCA"/>
    <path d="M65.5141 172.471C67.0482 172.651 68.3115 174.008 68.2213 176.088C68.1311 179.524 66.0555 183.232 63.1678 184.949C61.0924 186.215 59.0169 185.492 58.2949 183.503C58.7461 186.034 61.1826 187.209 63.6191 185.763C66.6872 183.864 69.0334 179.886 69.0334 176.268C69.1236 173.827 67.4993 172.29 65.5141 172.471Z" fill="#424040"/>
    <path d="M66.8671 177.896C66.8671 179.795 65.6038 181.965 63.9795 182.96C62.5356 183.864 61.0918 182.96 61.0918 181.242C61.0918 179.344 62.3552 177.173 63.9795 176.178C65.4233 175.364 66.8671 176.178 66.8671 177.896Z" fill="#E7E8E7"/>
    <path fill-rule="evenodd" clip-rule="evenodd" d="M67.8598 173.918L67.7695 173.827C67.7695 173.918 67.8598 173.918 67.8598 173.918Z" fill="#BD1E2D"/>
    <path fill-rule="evenodd" clip-rule="evenodd" d="M61.9042 177.534L60.5506 176.268C60.2799 176.63 60.0994 176.992 59.9189 177.353L61.5432 178.167C61.6335 177.896 61.7237 177.716 61.9042 177.534Z" fill="#343433"/>
    <path fill-rule="evenodd" clip-rule="evenodd" d="M63.8895 175.636C63.9798 175.545 64.07 175.545 64.1602 175.545L63.7993 173.285C63.7993 173.285 63.7091 173.285 63.7091 173.376C63.3482 173.556 63.0775 173.827 62.8066 174.008L63.6188 175.907C63.6188 175.816 63.7091 175.725 63.8895 175.636Z" fill="#343433"/>
    <path fill-rule="evenodd" clip-rule="evenodd" d="M61.1827 178.801L59.4682 178.167C59.2877 178.619 59.1072 178.981 58.9268 179.433L60.912 179.615C61.0022 179.343 61.0925 179.072 61.1827 178.801Z" fill="#343433"/>
    <path fill-rule="evenodd" clip-rule="evenodd" d="M62.8063 176.45L61.9941 174.551C61.6332 174.822 61.3625 175.184 61.0918 175.545L62.2649 177.082C62.5356 176.811 62.6259 176.63 62.8063 176.45Z" fill="#343433"/>
    <path fill-rule="evenodd" clip-rule="evenodd" d="M66.6867 175.998L67.6794 174.37C67.5892 174.279 67.5892 174.099 67.4989 174.008C67.4087 173.918 67.3185 173.736 67.2281 173.647L66.416 175.726C66.5062 175.726 66.5965 175.816 66.6867 175.998Z" fill="#343433"/>
    <path fill-rule="evenodd" clip-rule="evenodd" d="M67.0477 176.901L68.1306 175.726C68.0402 175.455 68.0402 175.274 67.95 175.002L66.8672 176.359C66.9574 176.54 67.0477 176.721 67.0477 176.901Z" fill="#343433"/>
    <path fill-rule="evenodd" clip-rule="evenodd" d="M65.9653 175.455L66.597 173.104C66.3263 172.922 66.0556 172.833 65.7849 172.742L65.4238 175.274C65.6946 175.274 65.8751 175.364 65.9653 175.455Z" fill="#343433"/>
    <path fill-rule="evenodd" clip-rule="evenodd" d="M65.0627 175.274L65.3334 172.742C65.0627 172.742 64.7018 172.833 64.3408 172.922L64.6115 175.364C64.792 175.274 64.9724 175.274 65.0627 175.274Z" fill="#343433"/>
    <path fill-rule="evenodd" clip-rule="evenodd" d="M60.7311 180.427H58.7459C58.6557 180.88 58.5654 181.241 58.5654 181.694L60.7311 181.152C60.6409 180.88 60.6409 180.609 60.7311 180.427Z" fill="#343433"/>
    <path fill-rule="evenodd" clip-rule="evenodd" d="M64.7016 182.598L64.6113 183.864C64.882 183.684 65.0625 183.412 65.2431 183.232L65.0626 182.237C64.9723 182.418 64.7918 182.509 64.7016 182.598Z" fill="#343433"/>
    <path fill-rule="evenodd" clip-rule="evenodd" d="M65.7842 181.423L66.0549 182.237C66.3256 181.875 66.5964 181.513 66.7769 181.152L66.0549 180.97C65.9646 181.152 65.8744 181.332 65.7842 181.423Z" fill="#343433"/>
    <path fill-rule="evenodd" clip-rule="evenodd" d="M66.5059 180.067L67.2278 180.247C67.4083 179.795 67.5888 179.344 67.7692 178.891L66.8668 179.162C66.7766 179.524 66.6863 179.795 66.5059 180.067Z" fill="#343433"/>
    <path fill-rule="evenodd" clip-rule="evenodd" d="M60.6407 181.875L58.3848 182.418C58.3848 182.507 58.3848 182.507 58.3848 182.598C58.3848 182.869 58.3848 183.232 58.475 183.503L60.7309 182.418C60.7309 182.236 60.6407 182.055 60.6407 181.875Z" fill="#343433"/>
    <path fill-rule="evenodd" clip-rule="evenodd" d="M67.1381 177.625C67.1381 177.896 67.1381 178.167 67.0479 178.529L67.9503 178.167C68.0405 177.715 68.1308 177.173 68.221 176.721L67.1381 177.625Z" fill="#343433"/>
    <path fill-rule="evenodd" clip-rule="evenodd" d="M63.889 183.232C63.7988 183.321 63.7086 183.321 63.6183 183.412L62.8965 185.13C62.9867 185.13 62.9867 185.13 63.077 185.04C63.077 185.04 63.1672 185.04 63.1672 184.949C63.4379 184.769 63.6183 184.678 63.889 184.497L64.1597 183.05C64.0695 183.141 63.9793 183.141 63.889 183.232Z" fill="#343433"/>
    <path fill-rule="evenodd" clip-rule="evenodd" d="M61.0018 182.779L58.8359 184.046C58.9262 184.226 59.1066 184.407 59.2872 184.587C59.3774 184.678 59.4677 184.678 59.5579 184.769L61.2725 183.141C61.1822 183.05 61.092 182.869 61.0018 182.779Z" fill="#343433"/>
    <path fill-rule="evenodd" clip-rule="evenodd" d="M61.6331 183.412L60.0088 185.04C60.2795 185.131 60.46 185.22 60.7308 185.22L61.8136 183.503C61.8136 183.503 61.7233 183.412 61.6331 183.412Z" fill="#343433"/>
    <path fill-rule="evenodd" clip-rule="evenodd" d="M62.3556 183.593L61.4531 185.221C61.6336 185.221 61.9044 185.221 62.0849 185.13L62.8067 183.503C62.7165 183.593 62.536 183.683 62.3556 183.593Z" fill="#343433"/>
    <path d="M68.131 162.706L67.4092 165.237C71.3796 164.875 73.2746 168.673 73.2746 174.008C73.2746 175.002 73.1844 175.997 73.0039 176.993L74.7185 175.997C74.8087 175.002 74.8991 174.008 74.8991 173.013C75.0795 166.774 72.8235 162.253 68.131 162.706Z" fill="#404B4D"/>
    <path d="M75.7109 124.908C75.6207 122.647 74.2671 121.924 74.2671 121.924L35.4641 99.3179L13.8969 111.887C13.8969 111.887 9.11419 114.78 8.12156 119.211L1.35359 141.455V162.614L0.992635 162.795C0.451198 163.066 0 163.88 0 164.514V171.476C0 171.747 0.0902395 172.019 0.270719 172.11L37.9908 193.811C38.3517 193.991 39.7054 194.716 40.7883 194.716C42.0516 194.716 43.315 194.173 43.315 194.173L53.151 188.476V179.615C54.3242 176.178 56.3094 172.833 58.7459 170.21L75.7109 160.444V124.908Z" fill="white"/>
    <path opacity="0.5" d="M53.1509 188.475V179.614C54.3239 176.178 56.3093 172.833 58.7457 170.21L75.7108 160.444V124.998C75.7108 124.184 75.5303 123.642 75.2595 123.19L54.2337 135.216C54.2337 135.216 49.451 138.11 48.4585 142.54L48.1876 142.721L41.6904 164.785V194.534C42.5929 194.353 43.3147 194.082 43.3147 194.082L53.1509 188.475Z" fill="#E5E5E5"/>
    <path d="M46.9248 160.625C46.6541 161.981 47.2858 162.434 48.3687 161.529L60.0997 152.125C61.1826 151.311 61.9948 149.593 61.9948 148.328V139.285C61.9948 138.019 61.0924 137.567 60.0095 138.11L52.7002 142.178C51.6173 142.812 50.5344 144.439 50.2637 145.705L46.9248 160.625Z" fill="#141C1E"/>
    <path d="M61.0014 138.562C60.821 138.562 60.6404 138.652 60.4599 138.743L53.1506 142.812C52.2482 143.354 51.2555 144.8 51.075 145.977L47.5557 160.626C47.4655 160.987 47.5557 161.168 47.5557 161.258C47.646 161.258 47.8264 161.168 48.0971 160.987L59.8283 151.582C60.7306 150.859 61.5428 149.322 61.5428 148.328V139.285C61.4526 139.014 61.4526 138.562 61.0014 138.562Z" fill="#303E42"/>
    <path opacity="0.1" d="M65.0619 145.434V137.929C65.0619 136.663 65.9642 135.216 67.0471 134.583L72.4616 131.509C73.0932 131.147 73.7249 131.147 74.0859 131.599C73.8152 131.057 73.0932 130.876 72.3713 131.328L66.9569 134.402C65.874 135.035 64.9717 136.573 64.9717 137.748V145.253C64.9717 145.705 65.0619 146.067 65.3326 146.339C65.0619 146.067 65.0619 145.796 65.0619 145.434Z" fill="black"/>
    <path opacity="0.5" d="M74.1763 132.323C74.1763 131.69 73.9056 131.237 73.5447 131.057C73.7251 131.328 73.9056 131.69 73.9056 132.142V139.646C73.9056 140.913 73.0032 142.36 71.9204 142.993L66.5059 146.067C65.9646 146.339 65.5133 146.428 65.1523 146.248C65.5133 146.61 66.0548 146.7 66.7766 146.339L72.1911 143.263C73.2739 142.631 74.1763 141.094 74.1763 139.918V132.323Z" fill="#D4DBDF"/>
    <path d="M48.0074 183.412L47.3757 182.327L43.4955 184.678C41.8712 185.672 39.6151 184.497 39.6151 184.497L1.35359 162.524L0.992634 162.704C0.451198 162.975 0 163.789 0 164.423V171.385C0 171.657 0.0902395 171.928 0.270719 172.019L37.9908 193.811C38.3517 193.991 39.7054 194.714 40.7883 194.714C42.0516 194.714 43.315 194.172 43.315 194.172L48.0074 191.46C48.0074 191.369 48.0074 183.502 48.0074 183.412Z" fill="#404B4D"/>
    <path d="M48.0074 183.412L47.3757 182.327L43.4955 184.678C41.8712 185.672 39.6151 184.497 39.6151 184.497L1.35359 162.524L0.992634 162.704C0.451198 162.975 0 163.789 0 164.423V171.385C0 171.657 0.0902395 171.928 0.270719 172.019L37.9908 193.811C38.3517 193.991 39.7054 194.714 40.7883 194.714C42.0516 194.714 43.315 194.172 43.315 194.172L48.0074 191.46C48.0074 191.369 48.0074 183.502 48.0074 183.412Z" fill="#404B4D"/>
    <path d="M47.3759 182.327L43.4956 184.678C41.8713 185.672 39.6153 184.497 39.6153 184.497L1.35378 162.524L0.99282 162.704C0.631862 162.886 0.361143 163.247 0.180664 163.609L39.2543 186.215C39.2543 186.215 41.5104 187.39 43.1347 186.395L47.8271 183.412L47.3759 182.327Z" fill="#5A6567"/>
    <path opacity="0.5" d="M56.4902 166.412L55.8584 167.136C52.6098 170.662 49.7221 175.455 48.0978 180.067L47.376 182.327L48.0076 183.412L48.91 180.338C50.4441 175.816 53.3318 171.114 56.4902 167.679L57.1218 166.955L75.8014 156.195V155.2L56.4902 166.412Z" fill="#D4DBDF"/>
    <path d="M48.3679 144.077C47.7362 144.077 46.7436 143.625 46.7436 143.625L7.76013 120.568L1.44336 141.185L40.1561 163.7C40.1561 163.7 42.0511 164.603 43.2243 163.519C43.7657 163.157 44.3072 162.343 44.4876 161.62L48.9094 145.073C49.1801 144.439 48.9094 143.988 48.3679 144.077Z" fill="#141C1E"/>
    <path d="M48.1876 145.886C48.2778 145.705 48.1876 145.614 48.1876 145.525H48.0973C47.3755 145.525 46.5633 145.163 46.473 145.072L46.2023 144.891L7.30912 121.924L1.62402 140.551L40.427 163.157C40.5172 163.247 41.149 163.428 41.7806 163.428C42.2318 163.428 42.5928 163.338 42.8635 163.066C43.3147 162.795 43.7658 162.072 43.9463 161.529L48.1876 145.886Z" fill="#303E42"/>
    <path d="M48.1876 145.886C48.2778 145.705 48.1876 145.614 48.1876 145.525H48.0973C47.3755 145.525 46.5633 145.163 46.473 145.072L46.2023 144.891L7.30912 121.924L1.62402 140.551L40.427 163.157C40.5172 163.247 41.149 163.428 41.7806 163.428C42.2318 163.428 42.5928 163.338 42.8635 163.066C43.3147 162.795 43.7658 162.072 43.9463 161.529L48.1876 145.886Z" fill="#303E42"/>
    <path d="M25.1763 182.96C25.1763 183.321 24.9056 183.412 24.6348 183.321L14.2572 177.353C13.9865 177.173 13.7158 176.721 13.7158 176.359V174.459C13.7158 174.098 13.9865 174.008 14.2572 174.098L24.6348 180.066C24.9056 180.247 25.1763 180.699 25.1763 181.061V182.96Z" fill="#263133"/>
    <path d="M24.635 182.689L14.3477 176.721V174.551L24.635 180.518V182.689Z" fill="white"/>
    <path d="M43.856 193.268C43.856 193.268 42.5024 193.811 41.1488 193.901C39.9756 193.901 38.5319 193.088 38.1709 192.906L0.0898438 170.753V171.566C0.0898438 171.837 0.180083 172.109 0.360562 172.199L37.9904 194.082C38.3513 194.263 39.7049 194.986 40.7879 194.986C42.0512 194.986 43.3146 194.443 43.3146 194.443L48.007 191.731C48.007 191.731 48.007 191.369 48.007 190.917L43.856 193.268Z" fill="#333E40"/>
    <g opacity="0.2">
        <path opacity="0.2" d="M62.3554 158.275C62.3554 158.546 62.175 158.998 61.9043 159.089L59.9191 160.264C59.6482 160.444 59.4678 160.264 59.4678 159.992V158.364C59.4678 158.094 59.6482 157.641 59.9191 157.551L61.9043 156.375C62.175 156.195 62.3554 156.375 62.3554 156.647V158.275Z" fill="black"/>
    </g>
    <path d="M62.8962 156.827C62.8962 157.099 62.7158 157.461 62.4451 157.641L59.3769 159.45C59.1062 159.63 58.9258 159.54 58.9258 159.178C58.9258 158.907 59.1062 158.545 59.3769 158.364L62.4451 156.556C62.6255 156.375 62.8962 156.466 62.8962 156.827Z" fill="#4B5459"/>
    <g opacity="0.1">
        <path opacity="0.1" d="M46.0218 162.163H45.751V182.96H46.0218V162.163Z" fill="black"/>
    </g>
    <g opacity="0.5">
        <path opacity="0.5" d="M46.7441 165.146L47.0148 165.418C46.9246 165.327 46.9246 165.237 46.9246 165.237C46.9246 165.237 46.9246 165.237 46.7441 165.146Z" fill="white"/>
        <path opacity="0.5" d="M75.7108 145.163L73.1841 146.519L69.755 148.328L62.9871 152.035L58.9263 155.381L54.9557 158.726L50.9852 162.072L48.9999 163.7L48.0073 164.514L47.4658 164.966L48.0073 164.603L48.9999 163.791L51.0755 162.163L55.1362 158.998L59.2872 155.833L63.348 152.668L70.1159 149.051L73.5451 147.242L75.801 145.977V145.163H75.7108Z" fill="#D4DBDF"/>
    </g>
    <path opacity="0.1" d="M63.4379 136.573C63.4379 136.211 63.1672 135.759 62.8965 135.668C62.6258 135.488 62.1746 135.488 61.8136 135.668L51.9775 141.365L52.158 141.637L61.9941 135.94C62.1746 135.849 62.5356 135.759 62.8063 135.94C62.9867 136.03 63.1672 136.392 63.1672 136.663V167.679L63.4379 167.497V136.573Z" fill="black"/>
    <path opacity="0.1" d="M42.6827 178.258C42.5023 178.076 42.2316 178.076 41.9609 178.167C41.7803 178.258 41.3291 178.348 41.0584 178.348H40.6975C40.4267 178.348 40.0657 178.258 39.7951 178.076L33.749 174.55C33.6588 174.459 33.4783 174.459 33.3881 174.459C33.0271 174.459 32.8467 174.731 32.8467 175.093V178.619C32.8467 179.072 33.1174 179.524 33.4783 179.704L39.5244 183.231C39.7951 183.412 40.3364 183.592 40.6975 183.592H41.0584C41.5096 183.592 41.9609 183.321 42.2316 183.05L42.3218 182.96C42.5023 182.689 42.6827 182.146 42.773 181.784L42.9534 178.801C42.8632 178.529 42.8632 178.348 42.6827 178.258Z" fill="black"/>
    <path opacity="0.1" d="M1.35352 161.438L8.57267 165.508C8.66291 165.598 8.84339 165.598 8.93363 165.598C9.11411 165.598 9.29459 165.508 9.38483 165.417C9.47506 165.327 9.56531 165.146 9.56531 164.966V161.349C9.56531 160.897 9.29459 160.444 8.93363 160.264L1.44376 156.013V161.438H1.35352Z" fill="black"/>
    <path d="M40.6983 183.321C40.4276 183.321 39.8861 183.232 39.6154 183.05L33.5693 179.524C33.2986 179.343 33.1182 178.981 33.1182 178.71V175.184C33.1182 174.913 33.2986 174.731 33.5693 174.913L39.6154 178.439C39.8861 178.619 40.3373 178.71 40.6983 178.71H41.0592C41.3299 178.71 41.8714 178.619 42.0519 178.439C42.3226 178.348 42.503 178.439 42.503 178.801L42.3226 181.784C42.3226 182.055 42.1421 182.507 41.9617 182.779L41.8714 182.869C41.691 183.141 41.3299 183.321 40.969 183.321H40.6983Z" fill="#F0F0F1"/>
    <path d="M1.35352 161.078L8.75315 165.237C9.02388 165.418 9.20435 165.237 9.20435 164.966V161.349C9.20435 161.078 9.02388 160.626 8.75315 160.535L1.35352 156.375V161.078Z" fill="#F0F0F1"/>
    <path d="M10.3776 174.279C10.4678 174.641 10.3776 174.822 10.1069 174.64L6.22659 172.38C5.95588 172.199 5.77539 171.837 5.77539 171.566V170.12C5.77539 169.848 5.95588 169.668 6.22659 169.848L8.93377 171.476C9.2045 171.657 9.56545 172.019 9.65569 172.38L10.3776 174.279Z" fill="#4D585A"/>
    <path d="M9.65524 172.29C9.565 171.928 9.20404 171.567 8.93332 171.385L6.76758 170.12V171.205C6.76758 171.476 6.94805 171.928 7.21878 172.019L10.1064 173.647L9.65524 172.29Z" fill="#273234"/>
    <path d="M28.0641 184.407C27.9739 184.588 28.0641 184.86 28.3349 185.04L32.2152 187.3C32.4859 187.481 32.6663 187.3 32.6663 187.029V185.583C32.6663 185.312 32.4859 184.86 32.2152 184.769L29.5079 183.141C29.2372 182.96 28.8763 183.05 28.7861 183.232L28.0641 184.407Z" fill="#4D585A"/>
    <path d="M32.3055 184.769L29.6885 183.232L29.1471 184.044C29.0569 184.226 29.1471 184.497 29.4178 184.678L32.7567 186.577V185.583C32.7567 185.311 32.486 184.858 32.3055 184.769Z" fill="#273234"/>
    <path d="M30.0497 176.721C29.8692 177.444 29.0571 177.715 28.2449 177.264L13.1749 168.583C12.3628 168.131 11.6408 166.956 11.3701 165.96L10.197 161.982C10.0165 160.988 10.4677 160.535 11.1897 160.988L30.2301 172.019C31.0424 172.471 31.4935 173.466 31.2228 174.189L30.0497 176.721Z" fill="#273234"/>
    <path d="M10.1973 161.801L31.3133 174.008C31.4035 173.737 31.3133 173.374 31.2231 173.013L10.3777 160.987C10.1973 161.167 10.1973 161.439 10.1973 161.801Z" fill="#404B4D"/>
    <path d="M10.6481 163.247L30.8617 175.002L31.2227 174.279L10.2871 162.163L10.6481 163.247Z" fill="#404B4D"/>
    <path d="M11.0988 164.875L30.4101 176.088L30.6808 175.364L10.8281 163.79L11.0988 164.875Z" fill="#404B4D"/>
    <path d="M11.2803 165.327L11.4608 165.869C11.4608 166.051 11.551 166.231 11.6412 166.412L29.9598 176.991C30.0501 176.902 30.0501 176.811 30.1403 176.63L30.3208 176.268L11.2803 165.327Z" fill="#404B4D"/>
    <path d="M28.9667 176.901L13.8967 168.22C13.0846 167.768 12.2724 166.593 12.0919 165.598L10.9188 161.62C10.8286 161.258 10.8286 160.987 10.9188 160.806C10.3774 160.626 10.1066 161.077 10.2871 161.891L11.4602 165.869C11.6407 166.865 12.4528 168.04 13.265 168.492L28.335 177.173C28.8764 177.535 29.5082 177.444 29.8691 177.173C29.5082 177.173 29.2374 177.082 28.9667 176.901Z" fill="#5A6567"/>
    <path d="M36.9974 179.252C36.9974 180.338 36.1852 180.79 35.2829 180.247C34.2902 179.704 33.5684 178.349 33.5684 177.173C33.5684 176.087 34.3805 175.636 35.2829 176.178C36.1852 176.721 36.9974 178.078 36.9974 179.252Z" fill="white"/>
    <path d="M8.30215 162.705C8.30215 163.789 7.49 164.242 6.5876 163.7C5.59497 163.157 4.87305 161.8 4.87305 160.626C4.87305 159.54 5.68521 159.088 6.5876 159.63C7.49 160.173 8.30215 161.529 8.30215 162.705Z" fill="white"/>
    <path d="M40.2463 181.242C40.2463 182.146 39.6145 182.507 38.8927 182.056C38.1707 181.604 37.5391 180.518 37.5391 179.614C37.5391 178.71 38.1707 178.348 38.8927 178.801C39.6145 179.343 40.2463 180.428 40.2463 181.242Z" fill="white"/>
    <path d="M37.81 189.109C37.81 189.832 37.2686 190.103 36.6369 189.742C36.0053 189.38 35.4639 188.476 35.4639 187.752C35.4639 187.029 36.0053 186.758 36.6369 187.12C37.2686 187.481 37.81 188.386 37.81 189.109Z" fill="#4D585A"/>
    <path d="M36.6377 187.119C36.367 187.209 36.1865 187.481 36.1865 187.843C36.1865 188.475 36.6377 189.289 37.2694 189.651C37.3597 189.741 37.4499 189.741 37.5401 189.741C37.7206 189.561 37.8108 189.38 37.8108 189.109C37.8108 188.386 37.2694 187.481 36.6377 187.119Z" fill="white"/>
    <path d="M4.06009 170.211C4.06009 170.934 3.51866 171.205 2.88698 170.843C2.2553 170.482 1.71387 169.577 1.71387 168.854C1.71387 168.131 2.2553 167.86 2.88698 168.221C3.51866 168.583 4.06009 169.488 4.06009 170.211Z" fill="#4D585A"/>
    <path d="M2.88674 168.22C2.61604 168.311 2.43555 168.582 2.43555 168.943C2.43555 169.577 2.88674 170.391 3.51843 170.752C3.60866 170.843 3.69891 170.843 3.78914 170.843C3.96963 170.662 4.05986 170.482 4.05986 170.21C4.05986 169.486 3.51843 168.582 2.88674 168.22Z" fill="white"/>
    <path d="M4.51187 160.624C4.51187 161.529 3.8802 161.89 3.15828 161.438C2.43636 160.987 1.80469 159.901 1.80469 158.998C1.80469 158.093 2.43636 157.731 3.15828 158.184C3.8802 158.635 4.51187 159.721 4.51187 160.624Z" fill="white"/>
    <path d="M42.1417 178.439C41.8709 178.528 41.4197 178.71 41.149 178.71H40.7881V183.412H41.149C41.4197 183.412 41.8709 183.23 42.0515 182.959L42.1417 182.869C42.3222 182.598 42.5026 182.146 42.5026 181.875L42.6831 178.89C42.5929 178.439 42.4124 178.348 42.1417 178.439Z" fill="#F5911E"/>
    <path opacity="0.1" d="M49.6315 168.402C49.6315 168.583 49.4511 168.854 49.2706 168.945L48.2779 169.487C48.0975 169.577 47.917 169.487 47.917 169.306V168.945C47.917 168.763 48.0975 168.492 48.2779 168.402L49.2706 167.859C49.4511 167.769 49.6315 167.859 49.6315 168.04V168.402Z" fill="black"/>
    <path d="M49.5407 168.222C49.5407 168.402 49.3602 168.673 49.1797 168.763L48.1871 169.306C48.0066 169.397 47.8262 169.306 47.8262 169.125V168.763C47.8262 168.583 48.0066 168.311 48.1871 168.222L49.1797 167.679C49.3602 167.588 49.5407 167.679 49.5407 167.859V168.222Z" fill="#F5911E"/>
    <path d="M42.593 168.763C41.6906 169.034 40.5174 168.492 40.5174 168.492L38.0811 167.045V174.822L40.2468 176.088C40.2468 176.088 41.2394 176.991 42.6833 176.539L43.5856 175.997V168.22L42.593 168.763Z" fill="#D4DBDF"/>
    <path opacity="0.5" d="M42.593 169.215L43.4954 168.672V168.22L42.593 168.763C41.6906 169.034 40.5174 168.492 40.5174 168.492L38.0811 167.045V167.497L40.5174 168.944C40.4272 168.944 41.6906 169.486 42.593 169.215Z" fill="#D4DBDF"/>
    <path d="M1.35357 144.8V145.525L3.97051 147.062V154.838L0.451172 152.758V145.886C0.541411 145.886 0.72189 144.8 1.35357 144.8Z" fill="#D4DBDF"/>
    <g opacity="0.1">
        <path opacity="0.1" d="M0.541992 152.396V152.759L4.06134 154.838V154.385L0.541992 152.396Z" fill="black"/>
    </g>
    <path opacity="0.5" d="M1.35315 145.525V144.8C1.2629 144.8 1.08243 144.8 0.992188 144.891V145.705L3.60914 147.242V154.658L3.87985 154.838V147.062L1.35315 145.525Z" fill="#D4DBDF"/>
    <path d="M4.06055 147.062V154.658L37.9906 174.46L38.0809 167.136L4.06055 147.062Z" fill="#5A6567"/>
    <g opacity="0.1">
        <path opacity="0.1" d="M40.156 175.726L37.9902 174.459V174.731L40.156 175.997C40.156 175.997 41.1486 176.901 42.5924 176.45L43.4949 175.907V175.636L42.5924 176.178C41.1486 176.63 40.156 175.726 40.156 175.726Z" fill="black"/>
    </g>
    <path d="M4.06055 148.508L38.0809 168.22V167.588L4.06055 147.876V148.508Z" fill="#404B4D"/>
    <path d="M4.06055 149.503L38.0809 169.215V168.673L4.06055 148.96V149.503Z" fill="#404B4D"/>
    <path d="M4.06055 150.588L38.0809 170.3V169.668L4.06055 149.956V150.588Z" fill="#404B4D"/>
    <path d="M4.06055 151.673L38.0809 171.385V170.752L4.06055 151.04V151.673Z" fill="#404B4D"/>
    <path d="M4.06055 152.758L37.9906 172.471V171.837L4.06055 152.125V152.758Z" fill="#404B4D"/>
    <path d="M4.06055 153.844L37.9906 173.556V172.923L4.06055 153.21V153.844Z" fill="#404B4D"/>
    <path d="M37.9906 173.917L4.06055 154.296V154.658L37.9906 174.46V173.917Z" fill="#404B4D"/>
    <path d="M9.11322 123.009L7.12796 133.679C6.85724 135.035 7.48892 135.487 8.57179 134.583L17.2347 127.711L9.11322 123.009Z" fill="#C5D0D3"/>
    <path d="M7.30872 121.924L1.71387 140.37L2.79674 139.646C3.33818 139.285 3.87961 138.471 4.06009 137.748L8.21111 122.466L7.30872 121.924Z" fill="#C5D0D3"/>
    <path d="M23.2821 131.328L21.748 135.94L32.8476 142.269L33.389 137.386L23.2821 131.328Z" fill="#3D4B4F"/>
    <path d="M33.3881 137.386L32.8467 142.269L33.8392 141.908L34.2904 137.838L33.3881 137.386Z" fill="#233135"/>
    <path opacity="0.5" d="M32.8472 142.269L21.7476 135.939L11.3701 143.174L22.8305 150.045L32.8472 142.269Z" fill="#233135"/>
    <path d="M45.4808 144.53L35.3739 138.471L33.8398 142.992L44.9393 149.322L45.4808 144.53Z" fill="#3D4B4F"/>
    <path d="M46.3823 144.982L46.2019 144.891L45.4799 144.53L44.9385 149.322L45.9312 148.96L46.3823 144.982Z" fill="#233135"/>
    <path opacity="0.5" d="M44.9389 149.322L33.8395 142.992L23.4619 150.227L34.9224 157.098L44.9389 149.322Z" fill="#233135"/>
    <path d="M55.4073 155.2L57.4828 153.572L59.1974 139.466L53.2416 142.812C52.3391 143.354 51.3466 144.802 51.1661 145.977L49.8125 151.854L55.4073 155.2Z" fill="#3D4B4F"/>
    <path d="M57.4824 153.573L58.4751 152.668L60.1896 139.014H59.8287L59.1067 139.466L57.4824 153.573Z" fill="#233135"/>
    <path d="M46.1119 149.774L35.7344 157.008L43.8559 161.891C43.9461 161.71 43.9461 161.62 44.0363 161.438L47.0143 150.226L46.1119 149.774Z" fill="#233135"/>
    <path opacity="0.5" d="M49.6312 151.854L47.5557 160.715C47.4655 161.078 47.5557 161.258 47.5557 161.349C47.646 161.349 47.8264 161.258 48.0971 161.078L55.4065 155.199L49.6312 151.854Z" fill="#233135"/>
    <path d="M41.7802 163.518C42.2314 163.518 42.5924 163.429 42.8631 163.157C43.3143 162.886 43.7654 162.163 43.9459 161.62L44.5776 159.359L5.50393 136.572L1.71387 140.551L40.5168 163.157C40.5168 163.247 41.1486 163.518 41.7802 163.518Z" fill="#445459"/>
    <path d="M21.7473 139.918C20.3937 137.386 17.2353 135.216 14.7086 135.216C12.1818 135.216 11.099 137.296 12.4525 139.918C13.8061 142.451 16.9645 144.62 19.4912 144.62C22.018 144.62 23.1008 142.54 21.7473 139.918ZM18.8596 143.354C16.9645 143.354 14.7086 141.817 13.7159 139.918C12.7233 138.019 13.4452 136.482 15.3402 136.482C17.2353 136.482 19.4912 138.019 20.4839 139.918C21.4765 141.817 20.7546 143.354 18.8596 143.354Z" fill="#3D4B4F"/>
    <path d="M7.5802 137.838L8.84356 136.572C8.84356 136.572 12.4532 136.12 17.5968 139.195C22.7405 142.36 23.1916 144.982 23.1916 144.982L22.56 146.429C22.56 146.429 16.9651 145.525 12.2727 142.992C7.48996 140.551 7.5802 137.838 7.5802 137.838Z" fill="#3D4B4F"/>
    <path opacity="0.2" d="M7.30912 121.924L1.62402 140.551L12.0918 146.609C14.2576 142.269 18.3184 136.663 25.8985 132.774L7.30912 121.924Z" fill="white"/>
    <path d="M50.7145 157.37L48.9097 156.284C48.4586 156.013 48.0977 156.195 48.0977 156.737V159.812V160.897V162.886C48.0977 163.428 48.4586 164.061 48.9097 164.242L50.7145 165.328C51.1658 165.598 51.5267 165.417 51.5267 164.875V158.635C51.5267 158.184 51.1658 157.55 50.7145 157.37Z" fill="#DFE6EA"/>
    <path d="M50.7145 157.37L48.9097 156.284C48.4586 156.013 48.0977 156.195 48.0977 156.737V159.812V160.897V162.886C48.0977 163.428 48.4586 164.061 48.9097 164.242L50.7145 165.328C51.1658 165.598 51.5267 165.417 51.5267 164.875V158.635C51.5267 158.184 51.1658 157.55 50.7145 157.37Z" fill="#D4DBDF"/>
    <path d="M50.7142 157.37L48.9094 156.284C48.5484 156.104 48.2777 156.195 48.1875 156.375C48.2777 156.375 48.368 156.375 48.4582 156.466L50.263 157.551C50.7142 157.823 51.0752 158.455 51.0752 158.907V165.146C51.0752 165.237 51.0752 165.417 50.9849 165.508C51.2556 165.508 51.5263 165.328 51.5263 164.966V158.726C51.5263 158.184 51.1654 157.551 50.7142 157.37Z" fill="#EEF5F9"/>
    <path d="M46.2031 158.726V160.354L48.0981 160.987V159.812L46.2031 158.726Z" fill="#303E42"/>
    <path opacity="0.1" d="M68.4913 121.11L68.4011 121.02C68.762 121.291 68.6718 121.743 68.2206 122.014L47.8265 133.769C47.285 134.041 46.3827 134.041 45.8412 133.769L45.2998 133.498C45.39 133.589 45.39 133.589 45.4803 133.589L46.1119 133.95C46.6534 134.222 47.5557 134.222 48.0972 133.95L68.4913 122.195C69.0328 121.924 69.0328 121.472 68.4913 121.11Z" fill="black"/>
    <path opacity="0.5" d="M46.7438 134.131L46.1122 133.769C45.5707 133.498 45.5707 132.955 46.1122 132.684L66.5063 120.929C66.777 120.748 67.2283 120.658 67.6794 120.748C67.138 120.567 66.5063 120.658 66.0551 120.838L45.6609 132.594C45.1195 132.865 45.1195 133.407 45.6609 133.679L46.2927 134.04C46.4731 134.131 46.8341 134.221 47.1048 134.221C46.9243 134.221 46.8341 134.221 46.7438 134.131Z" fill="#D4DBDF"/>
    <path opacity="0.1" d="M39.4347 103.297L39.3444 103.206C39.7054 103.477 39.6151 103.93 39.164 104.201L18.7699 115.956C18.2284 116.227 17.3261 116.227 16.7846 115.956L16.2432 115.685C16.3334 115.775 16.3334 115.775 16.4236 115.775L17.0553 116.137C17.5968 116.408 18.4991 116.408 19.0406 116.137L39.4347 104.382C39.9761 104.11 39.9761 103.568 39.4347 103.297Z" fill="black"/>
    <path opacity="0.5" d="M17.5963 116.317L16.9647 115.956C16.4232 115.684 16.4232 115.142 16.9647 114.871L37.3588 103.116C37.6295 102.935 38.0808 102.844 38.5319 102.935C37.9905 102.754 37.3588 102.844 36.9076 103.025L16.5136 114.78C15.972 115.052 15.972 115.594 16.5136 115.865L17.1452 116.227C17.3256 116.317 17.6866 116.408 17.9573 116.408C17.7768 116.408 17.6866 116.317 17.5963 116.317Z" fill="#D4DBDF"/>
    <path opacity="0.1" d="M46.4729 107.908L46.3825 107.818C46.7436 108.089 46.6533 108.541 46.2021 108.812L25.808 120.567C25.2666 120.839 24.3642 120.839 23.8228 120.567L23.2812 120.296C23.3715 120.387 23.3715 120.387 23.4617 120.387L24.0935 120.748C24.6349 121.02 25.5373 121.02 26.0787 120.748L46.4729 108.993C47.0143 108.722 47.0143 108.27 46.4729 107.908Z" fill="black"/>
    <path opacity="0.5" d="M24.6354 120.929L24.0038 120.567C23.4623 120.296 23.4623 119.754 24.0038 119.482L44.3979 107.727C44.6686 107.546 45.1199 107.456 45.571 107.546C45.0296 107.366 44.3979 107.456 43.9467 107.637L23.5525 119.392C23.0111 119.663 23.0111 120.206 23.5525 120.477L24.1843 120.839C24.3647 120.929 24.7257 121.019 24.9964 121.019C24.8159 121.019 24.7257 121.019 24.6354 120.929Z" fill="#D4DBDF"/>
    <path opacity="0.1" d="M60.5499 116.769L60.4597 116.679C60.8206 116.95 60.7304 117.402 60.2792 117.674L39.885 129.429C39.3436 129.7 38.4412 129.7 37.8998 129.429L37.3584 129.157C37.4486 129.248 37.4486 129.248 37.5389 129.248L38.1705 129.61C38.712 129.881 39.6143 129.881 40.1557 129.61L60.5499 117.945C61.0913 117.583 61.0913 117.131 60.5499 116.769Z" fill="black"/>
    <path opacity="0.5" d="M38.7126 129.791L38.0808 129.429C37.5394 129.158 37.5394 128.615 38.0808 128.344L58.475 116.589C58.7457 116.408 59.1969 116.317 59.6482 116.408C59.1067 116.227 58.475 116.317 58.0238 116.498L37.6297 128.253C37.0883 128.525 37.0883 129.067 37.6297 129.338L38.2613 129.7C38.4419 129.791 38.8028 129.881 39.0735 129.881C38.8931 129.881 38.8028 129.881 38.7126 129.791Z" fill="#D4DBDF"/>
    <path opacity="0.1" d="M53.6017 112.158L53.5114 112.067C53.8724 112.339 53.7821 112.791 53.331 113.062L32.9368 124.817C32.3954 125.088 31.4929 125.088 30.9516 124.817L30.4102 124.546C30.5004 124.636 30.5004 124.636 30.5906 124.636L31.2222 124.998C31.7638 125.269 32.6661 125.269 33.2076 124.998L53.6017 113.243C54.1431 112.972 54.1431 112.52 53.6017 112.158Z" fill="black"/>
    <path opacity="0.5" d="M31.8542 125.179L31.2226 124.817C30.681 124.546 30.681 124.003 31.2226 123.732L51.6166 111.977C51.8873 111.796 52.3386 111.706 52.7898 111.796C52.2484 111.615 51.6166 111.706 51.1655 111.887L30.7713 123.642C30.2299 123.913 30.2299 124.455 30.7713 124.727L31.403 125.088C31.5835 125.179 31.9444 125.269 32.2151 125.269C32.0347 125.269 31.9444 125.269 31.8542 125.179Z" fill="#D4DBDF"/>
    <defs>
        <linearGradient id="paint0_linear_189_1064" x1="130.39" y1="137.204" x2="128.188" y2="151.898" gradientUnits="userSpaceOnUse">
            <stop stop-color="#F3F5F7"/>
            <stop offset="1" stop-color="#999D9E"/>
        </linearGradient>
        <linearGradient id="paint1_linear_189_1064" x1="128.094" y1="149.988" x2="129.249" y2="142.841" gradientUnits="userSpaceOnUse">
            <stop stop-color="#E6E8EA"/>
            <stop offset="1" stop-color="#8C9091"/>
        </linearGradient>
        <linearGradient id="paint2_linear_189_1064" x1="128.24" y1="146.624" x2="131.688" y2="138.129" gradientUnits="userSpaceOnUse">
            <stop stop-color="#F3F5F7"/>
            <stop offset="1" stop-color="#999D9E"/>
        </linearGradient>
        <linearGradient id="paint3_linear_189_1064" x1="130.059" y1="138.314" x2="127.807" y2="149.962" gradientUnits="userSpaceOnUse">
            <stop stop-color="#F3F5F7"/>
            <stop offset="1" stop-color="#999D9E"/>
        </linearGradient>
        <linearGradient id="paint4_linear_189_1064" x1="129.63" y1="140.689" x2="129.553" y2="149.937" gradientUnits="userSpaceOnUse">
            <stop stop-color="#F3F5F7"/>
            <stop offset="1" stop-color="#999D9E"/>
        </linearGradient>
        <linearGradient id="paint5_linear_189_1064" x1="128.697" y1="139.898" x2="129.483" y2="139.898" gradientUnits="userSpaceOnUse">
            <stop stop-color="#8F9193"/>
            <stop offset="1" stop-color="#35393A"/>
        </linearGradient>
        <linearGradient id="paint6_linear_189_1064" x1="125.605" y1="144.422" x2="126.732" y2="144.422" gradientUnits="userSpaceOnUse">
            <stop stop-color="#8F9193"/>
            <stop offset="1" stop-color="#35393A"/>
        </linearGradient>
        <linearGradient id="paint7_linear_189_1064" x1="125.967" y1="146.702" x2="127.02" y2="146.702" gradientUnits="userSpaceOnUse">
            <stop stop-color="#8F9193"/>
            <stop offset="1" stop-color="#35393A"/>
        </linearGradient>
        <linearGradient id="paint8_linear_189_1064" x1="127.679" y1="147.551" x2="128.247" y2="147.551" gradientUnits="userSpaceOnUse">
            <stop stop-color="#8F9193"/>
            <stop offset="1" stop-color="#35393A"/>
        </linearGradient>
        <linearGradient id="paint9_linear_189_1064" x1="126.824" y1="141.812" x2="127.874" y2="141.812" gradientUnits="userSpaceOnUse">
            <stop stop-color="#8F9193"/>
            <stop offset="1" stop-color="#35393A"/>
        </linearGradient>
        <linearGradient id="paint10_linear_189_1064" x1="130.785" y1="139.33" x2="131.44" y2="139.33" gradientUnits="userSpaceOnUse">
            <stop stop-color="#8F9193"/>
            <stop offset="1" stop-color="#35393A"/>
        </linearGradient>
        <linearGradient id="paint11_linear_189_1064" x1="132.115" y1="140.953" x2="132.804" y2="140.953" gradientUnits="userSpaceOnUse">
            <stop stop-color="#8F9193"/>
            <stop offset="1" stop-color="#35393A"/>
        </linearGradient>
        <linearGradient id="paint12_linear_189_1064" x1="132.174" y1="143.069" x2="132.462" y2="143.069" gradientUnits="userSpaceOnUse">
            <stop stop-color="#8F9193"/>
            <stop offset="1" stop-color="#35393A"/>
        </linearGradient>
        <linearGradient id="paint13_linear_189_1064" x1="129.631" y1="146.881" x2="129.905" y2="146.881" gradientUnits="userSpaceOnUse">
            <stop stop-color="#8F9193"/>
            <stop offset="1" stop-color="#35393A"/>
        </linearGradient>
        <linearGradient id="paint14_linear_189_1064" x1="131.352" y1="144.996" x2="131.588" y2="144.996" gradientUnits="userSpaceOnUse">
            <stop stop-color="#8F9193"/>
            <stop offset="1" stop-color="#35393A"/>
        </linearGradient>
        <linearGradient id="paint15_linear_189_1064" x1="131.261" y1="143.296" x2="128.216" y2="144.557" gradientUnits="userSpaceOnUse">
            <stop stop-color="#F3F5F7"/>
            <stop offset="1" stop-color="#999D9E"/>
        </linearGradient>
        <linearGradient id="paint16_linear_189_1064" x1="130.277" y1="142.437" x2="129.086" y2="148.481" gradientUnits="userSpaceOnUse">
            <stop stop-color="#F3F5F7"/>
            <stop offset="1" stop-color="#999D9E"/>
        </linearGradient>
        <linearGradient id="paint17_linear_189_1064" x1="177.321" y1="108.121" x2="175.118" y2="122.814" gradientUnits="userSpaceOnUse">
            <stop stop-color="#F3F5F7"/>
            <stop offset="1" stop-color="#999D9E"/>
        </linearGradient>
        <linearGradient id="paint18_linear_189_1064" x1="175.026" y1="120.904" x2="176.18" y2="113.757" gradientUnits="userSpaceOnUse">
            <stop stop-color="#E6E8EA"/>
            <stop offset="1" stop-color="#8C9091"/>
        </linearGradient>
        <linearGradient id="paint19_linear_189_1064" x1="175.17" y1="117.541" x2="178.618" y2="109.046" gradientUnits="userSpaceOnUse">
            <stop stop-color="#F3F5F7"/>
            <stop offset="1" stop-color="#999D9E"/>
        </linearGradient>
        <linearGradient id="paint20_linear_189_1064" x1="176.991" y1="109.231" x2="174.739" y2="120.879" gradientUnits="userSpaceOnUse">
            <stop stop-color="#F3F5F7"/>
            <stop offset="1" stop-color="#999D9E"/>
        </linearGradient>
        <linearGradient id="paint21_linear_189_1064" x1="176.561" y1="111.605" x2="176.483" y2="120.854" gradientUnits="userSpaceOnUse">
            <stop stop-color="#F3F5F7"/>
            <stop offset="1" stop-color="#999D9E"/>
        </linearGradient>
        <linearGradient id="paint22_linear_189_1064" x1="175.628" y1="110.814" x2="176.413" y2="110.814" gradientUnits="userSpaceOnUse">
            <stop stop-color="#8F9193"/>
            <stop offset="1" stop-color="#35393A"/>
        </linearGradient>
        <linearGradient id="paint23_linear_189_1064" x1="172.536" y1="115.338" x2="173.664" y2="115.338" gradientUnits="userSpaceOnUse">
            <stop stop-color="#8F9193"/>
            <stop offset="1" stop-color="#35393A"/>
        </linearGradient>
        <linearGradient id="paint24_linear_189_1064" x1="172.897" y1="117.618" x2="173.952" y2="117.618" gradientUnits="userSpaceOnUse">
            <stop stop-color="#8F9193"/>
            <stop offset="1" stop-color="#35393A"/>
        </linearGradient>
        <linearGradient id="paint25_linear_189_1064" x1="174.61" y1="118.467" x2="175.177" y2="118.467" gradientUnits="userSpaceOnUse">
            <stop stop-color="#8F9193"/>
            <stop offset="1" stop-color="#35393A"/>
        </linearGradient>
        <linearGradient id="paint26_linear_189_1064" x1="173.756" y1="112.729" x2="174.806" y2="112.729" gradientUnits="userSpaceOnUse">
            <stop stop-color="#8F9193"/>
            <stop offset="1" stop-color="#35393A"/>
        </linearGradient>
        <linearGradient id="paint27_linear_189_1064" x1="177.715" y1="110.246" x2="178.371" y2="110.246" gradientUnits="userSpaceOnUse">
            <stop stop-color="#8F9193"/>
            <stop offset="1" stop-color="#35393A"/>
        </linearGradient>
        <linearGradient id="paint28_linear_189_1064" x1="179.047" y1="111.869" x2="179.735" y2="111.869" gradientUnits="userSpaceOnUse">
            <stop stop-color="#8F9193"/>
            <stop offset="1" stop-color="#35393A"/>
        </linearGradient>
        <linearGradient id="paint29_linear_189_1064" x1="179.105" y1="113.986" x2="179.392" y2="113.986" gradientUnits="userSpaceOnUse">
            <stop stop-color="#8F9193"/>
            <stop offset="1" stop-color="#35393A"/>
        </linearGradient>
        <linearGradient id="paint30_linear_189_1064" x1="176.56" y1="117.798" x2="176.835" y2="117.798" gradientUnits="userSpaceOnUse">
            <stop stop-color="#8F9193"/>
            <stop offset="1" stop-color="#35393A"/>
        </linearGradient>
        <linearGradient id="paint31_linear_189_1064" x1="178.282" y1="115.912" x2="178.518" y2="115.912" gradientUnits="userSpaceOnUse">
            <stop stop-color="#8F9193"/>
            <stop offset="1" stop-color="#35393A"/>
        </linearGradient>
        <linearGradient id="paint32_linear_189_1064" x1="178.19" y1="114.212" x2="175.147" y2="115.474" gradientUnits="userSpaceOnUse">
            <stop stop-color="#F3F5F7"/>
            <stop offset="1" stop-color="#999D9E"/>
        </linearGradient>
        <linearGradient id="paint33_linear_189_1064" x1="177.208" y1="113.354" x2="176.017" y2="119.398" gradientUnits="userSpaceOnUse">
            <stop stop-color="#F3F5F7"/>
            <stop offset="1" stop-color="#999D9E"/>
        </linearGradient>
        <linearGradient id="paint34_linear_189_1064" x1="157.987" y1="92.733" x2="161.856" y2="86.0451" gradientUnits="userSpaceOnUse">
            <stop offset="0.1021" stop-color="#3B4447"/>
            <stop offset="1" stop-color="#081114"/>
        </linearGradient>
        <linearGradient id="paint35_linear_189_1064" x1="158.331" y1="90.2539" x2="159.558" y2="88.1338" gradientUnits="userSpaceOnUse">
            <stop offset="0.1021" stop-color="#626B6E"/>
            <stop offset="1" stop-color="#2E373A"/>
        </linearGradient>
        <linearGradient id="paint36_linear_189_1064" x1="178.497" y1="100.858" x2="178.497" y2="111.245" gradientUnits="userSpaceOnUse">
            <stop offset="0.1021" stop-color="#3B4447"/>
            <stop offset="1" stop-color="#081114"/>
        </linearGradient>
        <linearGradient id="paint37_linear_189_1064" x1="158.337" y1="82.076" x2="152.527" y2="92.1192" gradientUnits="userSpaceOnUse">
            <stop offset="0.1021" stop-color="#3B4447"/>
            <stop offset="1" stop-color="#081114"/>
        </linearGradient>
        <linearGradient id="paint38_linear_189_1064" x1="180.655" y1="92.8178" x2="180.655" y2="110.268" gradientUnits="userSpaceOnUse">
            <stop offset="0.1021" stop-color="#3B4447"/>
            <stop offset="1" stop-color="#081114"/>
        </linearGradient>
    </defs>
</svg>