<svg xmlns="http://www.w3.org/2000/svg" width="2436" height="1000" viewBox="0 0 2436 1000" fill="none">
    <g clip-path="url(#clip0_198_1860)">
        <path d="M445.289 128.925C416.745 162.702 371.074 189.343 325.404 185.538C319.695 139.867 342.054 91.3416 368.22 61.3701C396.764 26.6413 446.717 1.90295 487.154 0C491.912 47.5737 473.358 94.196 445.289 128.925ZM486.679 194.577C420.551 190.771 363.938 232.16 332.54 232.16C300.665 232.16 252.616 196.48 200.285 197.431C132.254 198.382 68.9812 236.917 34.2524 298.287C-37.1082 421.028 15.6986 602.759 84.6805 702.664C118.458 752.141 158.896 806.375 212.178 804.472C262.606 802.569 282.587 771.646 343.482 771.646C404.852 771.646 422.454 804.472 475.737 803.52C530.922 802.569 565.651 754.044 599.428 704.567C637.963 648.43 653.662 593.72 654.614 590.866C653.662 589.914 548.049 549.477 547.097 427.688C546.146 325.88 630.351 277.355 634.157 274.5C586.583 204.091 512.368 196.48 486.679 194.577ZM868.696 56.6127V798.287H983.824V544.719H1143.2C1288.77 544.719 1391.06 444.814 1391.06 300.19C1391.06 155.566 1290.67 56.6127 1147 56.6127H868.696ZM983.824 153.663H1116.55C1216.46 153.663 1273.55 206.946 1273.55 300.666C1273.55 394.386 1216.46 448.145 1116.08 448.145H983.824V153.663ZM1601.33 803.996C1673.64 803.996 1740.72 767.364 1771.17 709.324H1773.55V798.287H1880.11V429.115C1880.11 322.074 1794.48 253.092 1662.7 253.092C1540.44 253.092 1450.05 323.026 1446.72 419.125H1550.43C1558.99 373.454 1601.33 343.482 1659.37 343.482C1729.78 343.482 1769.27 376.308 1769.27 436.727V477.64L1625.59 486.204C1491.91 494.291 1419.6 549.001 1419.6 644.148C1419.6 740.247 1494.29 803.996 1601.33 803.996ZM1632.25 715.985C1570.88 715.985 1531.87 686.489 1531.87 641.294C1531.87 594.672 1569.46 567.555 1641.29 563.273L1769.27 555.186V597.05C1769.27 666.508 1710.28 715.985 1632.25 715.985ZM2022.36 1000C2134.63 1000 2187.44 957.184 2233.59 827.307L2435.77 260.228H2318.74L2183.16 698.382H2180.78L2045.19 260.228H1924.83L2119.89 800.19L2109.42 833.016C2091.82 888.677 2063.27 910.086 2012.37 910.086C2003.33 910.086 1985.73 909.134 1978.59 908.183V997.146C1985.25 999.049 2013.8 1000 2022.36 1000Z" fill="black"/>
    </g>
    <defs>
        <clipPath id="clip0_198_1860">
            <rect width="2435.78" height="1000" fill="white"/>
        </clipPath>
    </defs>
</svg>