<svg xmlns="http://www.w3.org/2000/svg" width="1879" height="1000" viewBox="0 0 1879 1000" fill="none">
    <g clip-path="url(#clip0_198_1848)">
        <path fill-rule="evenodd" clip-rule="evenodd" d="M919.147 260.726C956.238 260.726 986.298 290.696 986.298 327.636V852.969C986.298 889.939 956.238 919.878 919.147 919.878C910.344 919.894 901.625 918.176 893.486 914.822C885.347 911.468 877.949 906.544 871.714 900.331C865.478 894.118 860.527 886.737 857.144 878.611C853.761 870.485 852.011 861.771 851.995 852.969V327.636C851.995 290.666 882.056 260.726 919.147 260.726ZM219.813 -0.12207C257.116 -0.12207 287.359 29.7567 287.359 66.6355V260.666H484.995C668.45 260.666 817.723 408.181 817.723 589.454C817.723 770.757 668.45 918.242 484.995 918.242C301.51 918.242 152.268 770.757 152.268 589.454V394.181H83.4801C46.1467 394.181 15.9043 364.302 15.9043 327.423C15.9043 290.575 46.1467 260.666 83.4801 260.666H152.268V66.6658C152.268 29.787 182.51 -0.0917673 219.813 -0.0917673V-0.12207ZM1181.75 -0.12207C1219.24 -0.12207 1249.63 29.7567 1249.63 66.6355V260.666H1419.75C1457.24 260.666 1487.63 290.575 1487.63 327.423C1487.63 364.302 1457.24 394.181 1419.75 394.181H1249.63V589.454C1249.63 696.211 1334.6 781.969 1443.06 784.696C1480.54 785.605 1510.15 816.272 1509.21 853.12C1508.24 889.393 1478.06 918.151 1441.36 918.151H1439.6C1352.81 916.253 1270.14 880.751 1209 819.12C1178.81 788.98 1154.87 753.179 1138.54 713.768C1122.22 674.357 1113.84 632.111 1113.87 589.454V394.181H1084.96C1047.48 394.181 1017.09 364.302 1017.09 327.423C1017.09 290.575 1047.48 260.666 1084.96 260.666H1113.87V66.6658C1113.87 29.787 1144.27 -0.0917673 1181.75 -0.0917673V-0.12207ZM484.995 394.181H287.359V589.454C287.359 697.151 376.025 784.757 484.995 784.757C593.965 784.757 682.632 697.151 682.632 589.454C682.632 481.787 593.965 394.181 484.995 394.181Z" fill="#2F7598"/>
        <path fill-rule="evenodd" clip-rule="evenodd" d="M996.362 156.392C996.362 197.543 962.544 230.937 920.817 230.937C879.09 230.937 845.271 197.543 845.271 156.392C845.271 115.24 879.09 81.8464 920.817 81.8464C962.544 81.8464 996.362 115.24 996.362 156.392ZM1568.39 987.937L1848.24 833.634C1851.2 832.002 1853.62 829.551 1855.22 826.576C1856.81 823.601 1857.52 820.229 1857.25 816.863C1856.97 813.498 1855.74 810.282 1853.68 807.602C1851.63 804.923 1848.84 802.893 1845.67 801.756L1544.54 693.362C1541.96 692.433 1539.14 692.429 1536.56 693.353C1533.98 694.276 1531.8 696.068 1530.39 698.422C1529.47 700.04 1528.95 701.853 1528.87 703.712C1528.78 705.572 1529.14 707.424 1529.91 709.119L1573.27 808.937C1574.83 812.481 1577.35 815.516 1580.55 817.697C1583.75 819.877 1587.49 821.116 1591.36 821.271L1715.06 826.634C1715.43 826.648 1715.78 826.798 1716.05 827.055C1716.32 827.312 1716.48 827.658 1716.51 828.028C1716.54 828.393 1716.43 828.753 1716.2 829.043C1715.98 829.332 1715.66 829.532 1715.3 829.604L1594.03 854.331C1590.24 855.088 1586.73 856.9 1583.92 859.559C1581.12 862.218 1579.11 865.616 1578.15 869.362L1551.39 974.695C1550.91 976.491 1550.85 978.377 1551.23 980.199C1551.61 982.021 1552.41 983.727 1553.57 985.18C1555.34 987.293 1557.78 988.724 1560.49 989.227C1563.19 989.731 1565.99 989.275 1568.39 987.937Z" fill="#D32733"/>
    </g>
    <defs>
        <clipPath id="clip0_198_1848">
            <rect width="1878.79" height="1000" fill="white"/>
        </clipPath>
    </defs>
</svg>