<svg xmlns="http://www.w3.org/2000/svg" width="200" height="200" viewBox="0 0 200 200" fill="none">
    <g clip-path="url(#clip0_189_1258)">
        <path opacity="0.1" d="M3.95889 162.706L132.972 88.0942L199.144 126.265L101.86 182.471L96.428 179.382L62.7243 198.9C55.6873 202.235 44.6996 197.912 37.4157 193.835L6.55148 176.047C-1.34975 171.229 -1.96703 166.041 3.95889 162.706Z" fill="black"/>
        <path d="M183.096 107.859L78.5273 168.265V155.541L183.096 95.1353V107.859Z" fill="#1E1E1E"/>
        <path d="M155.318 76.3589L50.626 136.765L78.5272 155.541L183.095 95.1354L155.318 76.3589Z" fill="#3B4447"/>
        <path d="M177.169 118.112L176.428 120.212L165.935 114.282L167.91 110.206L174.206 112.8L177.169 118.112Z" fill="#1E1E1E"/>
        <path d="M171.984 115.147L164.083 110.453C162.354 109.465 159.885 109.588 157.169 111.194C151.737 114.282 147.416 121.818 147.416 128.118C147.416 131.206 148.527 133.429 150.256 134.418L158.157 139.112C159.885 140.1 162.354 139.976 165.07 138.371C170.502 135.282 174.823 127.747 174.823 121.447C174.823 118.359 173.712 116.259 171.984 115.147Z" fill="#2E373A"/>
        <path d="M174.824 121.571C174.824 127.747 170.503 135.406 165.07 138.494C162.354 140.1 160.009 140.224 158.157 139.235C156.428 138.247 155.317 136.024 155.317 132.935C155.317 126.759 159.638 119.1 165.07 116.012C167.787 114.406 170.132 114.282 171.984 115.271C173.712 116.259 174.824 118.359 174.824 121.571Z" fill="#555E61"/>
        <path d="M174.206 122.188C174.206 127.87 170.256 134.788 165.318 137.629C160.379 140.47 156.429 138.123 156.429 132.441C156.429 126.759 160.379 119.841 165.318 117C170.256 114.282 174.206 116.629 174.206 122.188Z" fill="#3B4447"/>
        <path d="M171.367 123.794C171.367 127.623 168.65 132.194 165.441 134.171C162.107 136.024 159.515 134.541 159.515 130.712C159.515 126.882 162.231 122.312 165.441 120.335C168.65 118.359 171.367 119.965 171.367 123.794Z" fill="url(#paint0_linear_189_1258)"/>
        <path d="M170.132 124.041C170.132 127.253 167.786 131.329 164.946 132.935C162.107 134.541 159.885 133.182 159.885 129.971C159.885 126.759 162.23 122.682 164.946 121.077C167.786 119.347 170.132 120.706 170.132 124.041Z" fill="url(#paint1_linear_189_1258)"/>
        <path d="M165.317 120.829C165.07 120.953 164.7 121.2 164.453 121.447C164.576 121.324 164.823 121.2 164.946 121.076C167.786 119.471 170.132 120.706 170.132 124.041C170.132 127.253 167.786 131.329 164.946 132.935C162.107 134.541 159.885 133.182 159.885 129.971C159.885 129.6 159.885 129.229 160.008 128.735C159.885 129.353 159.885 129.847 159.885 130.465C159.885 134.047 162.354 135.406 165.44 133.676C168.527 131.947 170.996 127.623 170.996 124.041C170.872 120.459 168.403 118.976 165.317 120.829Z" fill="url(#paint2_linear_189_1258)"/>
        <path d="M169.761 124.165C169.761 127.253 167.539 131.082 164.823 132.688C162.107 134.294 159.885 132.935 159.885 129.847C159.885 126.759 162.107 122.929 164.823 121.323C167.663 119.718 169.761 120.953 169.761 124.165Z" fill="url(#paint3_linear_189_1258)"/>
        <path d="M168.898 125.647C168.898 127.747 167.417 130.341 165.565 131.453C163.713 132.565 162.231 131.7 162.231 129.476C162.231 127.376 163.713 124.782 165.565 123.671C167.417 122.682 168.898 123.547 168.898 125.647Z" fill="url(#paint4_linear_189_1258)"/>
        <path d="M165.317 122.559C165.44 122.929 165.317 123.3 165.07 123.424C164.823 123.547 164.576 123.176 164.453 122.806C164.329 122.435 164.453 122.065 164.823 121.941C164.946 121.941 165.193 122.188 165.317 122.559Z" fill="url(#paint5_linear_189_1258)"/>
        <path d="M161.119 128.118C161.49 128.118 161.86 128.488 161.737 128.735C161.737 128.982 161.366 129.229 160.996 129.106C160.626 128.982 160.255 128.735 160.379 128.488C160.379 128.241 160.749 127.994 161.119 128.118Z" fill="url(#paint6_linear_189_1258)"/>
        <path d="M161.367 131.206C161.737 131.082 162.107 131.082 162.231 131.206C162.354 131.329 162.107 131.7 161.737 131.824C161.367 131.947 160.996 131.947 160.873 131.824C160.749 131.577 160.996 131.329 161.367 131.206Z" fill="url(#paint7_linear_189_1258)"/>
        <path d="M163.218 132.441C163.342 132.194 163.589 132.071 163.712 132.071C163.836 132.194 163.836 132.441 163.712 132.688C163.589 132.935 163.342 133.059 163.218 133.059C162.971 132.935 162.971 132.688 163.218 132.441Z" fill="url(#paint8_linear_189_1258)"/>
        <path d="M162.972 124.782C163.342 125.029 163.466 125.4 163.342 125.647C163.219 125.894 162.725 125.894 162.478 125.647C162.108 125.4 161.984 125.029 162.108 124.782C162.231 124.535 162.602 124.535 162.972 124.782Z" fill="url(#paint9_linear_189_1258)"/>
        <path d="M167.91 122.065C167.91 122.435 167.663 122.806 167.416 122.806C167.169 122.806 167.046 122.435 167.046 122.065C167.046 121.694 167.293 121.323 167.54 121.323C167.787 121.323 167.91 121.571 167.91 122.065Z" fill="url(#paint10_linear_189_1258)"/>
        <path d="M169.391 124.288C169.144 124.412 168.897 124.412 168.774 124.288C168.651 124.165 168.774 123.918 169.021 123.794C169.268 123.671 169.515 123.671 169.638 123.794C169.762 123.918 169.638 124.165 169.391 124.288Z" fill="url(#paint11_linear_189_1258)"/>
        <path d="M169.021 127.129C168.897 127.129 168.897 127.006 168.897 126.882C168.897 126.759 169.021 126.635 169.144 126.635C169.268 126.635 169.268 126.759 169.268 126.882C169.144 127.006 169.021 127.129 169.021 127.129Z" fill="url(#paint12_linear_189_1258)"/>
        <path d="M165.811 131.947C165.688 131.947 165.564 131.947 165.564 131.823C165.564 131.7 165.564 131.576 165.688 131.576C165.811 131.576 165.935 131.576 165.935 131.7C165.935 131.823 165.935 131.947 165.811 131.947Z" fill="url(#paint13_linear_189_1258)"/>
        <path d="M168.034 129.353C168.034 129.477 167.91 129.477 167.787 129.353C167.663 129.353 167.663 129.23 167.787 129.106C167.787 128.983 167.91 128.983 168.034 129.106C168.157 129.23 168.157 129.353 168.034 129.353Z" fill="url(#paint14_linear_189_1258)"/>
        <path d="M167.663 126.759C167.663 127.994 166.798 129.6 165.687 130.218C164.576 130.835 163.712 130.341 163.712 129.106C163.712 127.871 164.576 126.265 165.687 125.647C166.798 125.029 167.663 125.523 167.663 126.759Z" fill="url(#paint15_linear_189_1258)"/>
        <path d="M167.91 127.006C167.91 128.241 167.046 129.723 166.058 130.341C164.947 130.959 164.206 130.465 164.206 129.229C164.206 127.994 165.07 126.512 166.058 125.894C167.046 125.276 167.91 125.771 167.91 127.006Z" fill="url(#paint16_linear_189_1258)"/>
        <path d="M173.589 110.206L164.083 104.4C161.737 103.535 158.651 103.906 155.318 105.759C147.787 110.082 141.737 120.706 141.737 129.353L150.873 134.912L152.478 133.923C152.478 126.265 157.787 117 164.453 113.171C170.997 109.341 176.429 112.429 176.429 120.088L178.034 119.1C178.034 114.653 176.305 111.565 173.589 110.206Z" fill="#485154"/>
        <path d="M152.478 134.047C152.478 126.388 157.787 117.123 164.453 113.294C170.997 109.465 176.429 112.553 176.429 120.212L178.034 119.223C178.034 110.576 171.984 106.994 164.453 111.318C156.922 115.641 150.873 126.265 150.873 134.912L152.478 134.047Z" fill="#3B4447"/>
        <path d="M86.6746 168.265L81.4894 167.153L77.0449 159.865L83.3412 159.124L86.6746 168.265Z" fill="#1E1E1E"/>
        <path d="M82.4771 163.2L74.5758 158.506C72.8475 157.517 70.3783 157.641 67.6623 159.247C62.2302 162.335 57.9092 169.87 57.9092 176.17C57.9092 179.259 59.0203 181.482 60.7487 182.47L68.6499 187.164C70.3783 188.153 72.8475 188.029 75.5635 186.423C80.9956 183.335 85.3166 175.8 85.3166 169.5C85.3166 166.412 84.3289 164.188 82.4771 163.2Z" fill="#2E373A"/>
        <path d="M85.3167 169.5C85.3167 175.676 80.9957 183.335 75.5636 186.424C72.8476 188.029 70.5019 188.153 68.6501 187.165C66.9217 186.176 65.8105 183.953 65.8105 180.865C65.8105 174.688 70.1315 167.029 75.5636 163.941C78.2797 162.335 80.6254 162.212 82.4772 163.2C84.3291 164.188 85.3167 166.412 85.3167 169.5Z" fill="#555E61"/>
        <path d="M84.8227 170.241C84.8227 175.924 80.8721 182.841 75.9338 185.682C70.9955 188.524 67.0449 186.177 67.0449 180.494C67.0449 174.812 70.9955 167.894 75.9338 165.053C80.7486 162.212 84.8227 164.559 84.8227 170.241Z" fill="#3B4447"/>
        <path d="M81.8597 171.723C81.8597 175.553 79.1436 180.123 75.9337 182.1C72.6004 183.953 70.0078 182.471 70.0078 178.641C70.0078 174.812 72.7239 170.241 75.9337 168.265C79.1436 166.412 81.8597 167.894 81.8597 171.723Z" fill="url(#paint17_linear_189_1258)"/>
        <path d="M80.6258 171.971C80.6258 175.183 78.2801 179.259 75.5641 180.865C72.7246 182.471 70.3789 181.236 70.3789 177.9C70.3789 174.688 72.7246 170.612 75.5641 169.006C78.4036 167.4 80.6258 168.636 80.6258 171.971Z" fill="url(#paint18_linear_189_1258)"/>
        <path d="M75.9345 168.759C75.6875 168.882 75.3172 169.129 75.0703 169.376C75.1937 169.253 75.4406 169.129 75.5641 169.006C78.4036 167.4 80.6258 168.635 80.6258 171.971C80.6258 175.182 78.2801 179.259 75.5641 180.865C72.7246 182.471 70.3789 181.235 70.3789 177.9C70.3789 177.529 70.3789 177.159 70.5024 176.665C70.3789 177.282 70.3789 177.776 70.3789 178.394C70.3789 181.976 72.848 183.335 75.9345 181.606C79.0209 179.876 81.49 175.553 81.49 171.971C81.49 168.388 79.0209 166.906 75.9345 168.759Z" fill="url(#paint19_linear_189_1258)"/>
        <path d="M80.3785 172.094C80.3785 175.182 78.1563 179.012 75.4402 180.617C72.7242 182.223 70.502 180.865 70.502 177.776C70.502 174.688 72.7242 170.859 75.4402 169.253C78.1563 167.647 80.3785 169.006 80.3785 172.094Z" fill="url(#paint20_linear_189_1258)"/>
        <path d="M79.3913 173.7C79.3913 175.8 77.9098 178.394 76.0579 179.506C74.2061 180.618 72.7246 179.753 72.7246 177.529C72.7246 175.429 74.2061 172.835 76.0579 171.724C77.9098 170.612 79.3913 171.476 79.3913 173.7Z" fill="url(#paint21_linear_189_1258)"/>
        <path d="M75.9345 170.612C76.058 170.982 75.9345 171.353 75.5642 171.477C75.3172 171.6 75.0703 171.23 74.9469 170.859C74.8234 170.488 74.9469 170.118 75.1938 169.994C75.5642 169.871 75.8111 170.241 75.9345 170.612Z" fill="url(#paint22_linear_189_1258)"/>
        <path d="M71.7366 176.047C72.107 176.047 72.4774 176.418 72.3539 176.665C72.3539 176.912 71.9836 177.159 71.6132 177.035C71.2428 177.035 70.8724 176.665 70.9959 176.418C70.9959 176.171 71.3663 175.923 71.7366 176.047Z" fill="url(#paint23_linear_189_1258)"/>
        <path d="M71.86 179.135C72.2304 179.012 72.6008 179.012 72.7242 179.135C72.8477 179.259 72.6008 179.629 72.2304 179.753C71.86 179.877 71.4897 179.877 71.3662 179.753C71.3662 179.629 71.4897 179.259 71.86 179.135Z" fill="url(#paint24_linear_189_1258)"/>
        <path d="M73.7117 180.371C73.8352 180.124 74.0821 180 74.2056 180C74.329 180.124 74.329 180.371 74.2056 180.618C74.0821 180.865 73.8352 180.988 73.7117 180.988C73.5883 180.988 73.5883 180.618 73.7117 180.371Z" fill="url(#paint25_linear_189_1258)"/>
        <path d="M73.4652 172.712C73.8355 172.959 73.959 173.329 73.8356 173.576C73.7121 173.823 73.2183 173.823 72.9714 173.576C72.601 173.329 72.4775 172.959 72.601 172.712C72.7244 172.465 73.0948 172.465 73.4652 172.712Z" fill="url(#paint26_linear_189_1258)"/>
        <path d="M78.4033 169.994C78.4033 170.365 78.1563 170.735 77.9094 170.735C77.6625 170.735 77.5391 170.365 77.5391 169.994C77.5391 169.624 77.786 169.253 78.0329 169.253C78.2798 169.253 78.4033 169.624 78.4033 169.994Z" fill="url(#paint27_linear_189_1258)"/>
        <path d="M79.8845 172.341C79.6376 172.465 79.3906 172.465 79.2672 172.341C79.1437 172.218 79.2672 171.971 79.5141 171.847C79.761 171.724 80.0079 171.724 80.1314 171.847C80.2548 171.971 80.1314 172.094 79.8845 172.341Z" fill="url(#paint28_linear_189_1258)"/>
        <path d="M79.5141 175.059C79.3906 175.059 79.3906 174.936 79.3906 174.812C79.3906 174.688 79.5141 174.565 79.6375 174.565C79.761 174.565 79.761 174.688 79.761 174.812C79.761 174.936 79.6375 175.059 79.5141 175.059Z" fill="url(#paint29_linear_189_1258)"/>
        <path d="M76.3045 179.877C76.1811 179.877 76.0576 179.877 76.0576 179.753C76.0576 179.63 76.0576 179.506 76.1811 179.506C76.3045 179.506 76.428 179.506 76.428 179.63C76.428 179.753 76.428 179.877 76.3045 179.877Z" fill="url(#paint30_linear_189_1258)"/>
        <path d="M78.6501 177.282C78.6501 177.406 78.5266 177.406 78.4031 177.282C78.2797 177.282 78.2797 177.159 78.4031 177.035C78.4031 176.912 78.5266 176.912 78.6501 177.035C78.6501 177.159 78.6501 177.282 78.6501 177.282Z" fill="url(#paint31_linear_189_1258)"/>
        <path d="M78.2797 174.688C78.2797 175.924 77.4155 177.529 76.3044 178.147C75.1933 178.765 74.3291 178.271 74.3291 177.035C74.3291 175.8 75.1933 174.194 76.3044 173.576C77.4155 172.959 78.2797 173.453 78.2797 174.688Z" fill="url(#paint32_linear_189_1258)"/>
        <path d="M78.4039 174.935C78.4039 176.171 77.5397 177.653 76.552 178.271C75.4409 178.888 74.7002 178.394 74.7002 177.159C74.7002 175.924 75.5644 174.441 76.552 173.824C77.5397 173.206 78.4039 173.7 78.4039 174.935Z" fill="url(#paint33_linear_189_1258)"/>
        <path d="M85.9341 169.006C85.9341 169.006 85.6872 158.135 78.2798 160.73C70.8724 163.324 65.1934 174.812 65.1934 174.812L65.9341 166.288L76.9218 158.383C76.9218 158.383 83.5884 155.294 85.4403 159.741C87.1687 164.065 87.0452 168.388 87.0452 168.388L85.9341 169.006Z" fill="url(#paint34_linear_189_1258)"/>
        <path d="M105.688 147.018L107.91 152.206V153.935L109.885 152.823V151.835L107.416 146.029L105.688 147.018Z" fill="#8897A0"/>
        <path d="M148.774 133.677V132.318L147.169 131.33L98.5264 159.371V163.694L99.7609 164.435L148.403 136.271V135.159L148.156 135.035V134.047L148.774 133.677Z" fill="#8897A0"/>
        <path opacity="0.2" d="M100.132 161.718L99.5146 161.471V163.077L148.157 135.035V134.047L100.132 161.718Z" fill="#8897A0"/>
        <path opacity="0.5" d="M147.169 131.33L98.5264 159.371L100.131 160.359L148.774 132.318L147.169 131.33Z" fill="white"/>
        <path opacity="0.2" d="M148.404 135.159L99.7616 163.324L99.5146 163.076L148.157 135.035L148.404 135.159Z" fill="white"/>
        <path d="M134.206 130.588L136.552 135.653V137.382L138.527 136.271V135.406L136.058 129.477L134.206 130.588Z" fill="#8897A0"/>
        <path opacity="0.5" d="M134.206 130.588L136.552 135.653V137.382L137.539 136.888V135.653L135.07 129.971L134.206 130.588Z" fill="#8897A0"/>
        <path opacity="0.5" d="M105.688 147.018L107.91 152.206V153.935L108.897 153.318V152.206L106.552 146.523L105.688 147.018Z" fill="#8897A0"/>
        <path d="M44.3291 58.4471L124.947 12L183.465 46.7118V104.524L99.1439 152.7L44.3291 121.076V58.4471Z" fill="white"/>
        <path d="M183.465 46.7119L99.1436 90.1943V152.7L183.465 104.524V46.7119Z" fill="#E5E5E5"/>
        <path d="M44.3291 58.4473V121.077L99.0205 152.7V90.1943L44.3291 58.4473Z" fill="#B2B2B2"/>
        <path d="M82.724 111.318C84.6993 113.294 86.4277 114.776 87.1684 122.559C87.9092 130.341 88.0326 142.076 87.9092 146.647L87.4154 147.635L87.7857 148.5V153.812C87.7857 153.812 76.6746 159.371 72.724 162.953C68.8968 166.535 65.3166 172.588 64.6993 177.529L54.8228 183.088L54.5758 184.2C54.5758 184.2 51.9833 186.176 49.6376 186.176C47.2919 186.176 44.3289 185.929 36.3042 181.606C28.2796 177.282 13.0944 168.018 10.7487 166.165C8.40301 164.312 4.82276 161.718 4.32893 157.765C3.83511 153.688 4.57585 150.847 4.57585 150.847C4.57585 150.847 4.32893 143.682 5.19313 142.571C5.19313 142.571 5.19313 135.406 5.06967 134.665C4.94622 133.924 6.4277 128.365 6.4277 128.365C6.4277 128.365 7.78572 123.053 8.89683 119.718C10.0079 116.259 14.3289 107.241 15.8104 104.4C17.2919 101.559 20.1314 99.5824 22.1067 98.2235C24.2055 96.8647 37.1684 89.3294 38.8968 88.4647C40.6252 87.6 42.6005 87.3529 46.1808 88.9588C49.761 90.5647 60.3783 96.4941 64.5758 99.0882C68.7734 101.806 80.9956 109.588 82.724 111.318Z" fill="white"/>
        <path opacity="0.1" d="M87.2916 147.635L87.7854 146.647C88.0323 142.076 87.7854 130.341 87.0447 122.559C86.6743 118.482 85.9336 116.135 85.1928 114.529C84.699 114.406 84.0817 114.529 83.341 114.9C80.8718 116.259 71.3657 122.188 68.5262 124.041C65.6867 125.77 61.4891 128.488 60.6249 130.959C59.7607 133.429 55.3163 151.588 54.699 154.059C54.0817 156.529 53.2175 160.112 51.983 161.471C50.7484 162.829 43.2175 162.829 40.0077 161.1C36.7978 159.371 16.9212 148.129 13.0941 145.412C10.2546 143.312 7.16815 139.729 5.06938 137.629C5.06938 139.976 5.06938 142.818 5.06938 142.818C4.08173 144.053 4.4521 151.094 4.4521 151.094C4.4521 151.094 3.71136 153.812 4.32864 157.765C4.82247 161.841 8.40271 164.435 10.7484 166.165C13.0941 168.018 28.1558 177.282 36.3039 181.606C44.3286 185.929 47.2916 186.176 49.6373 186.176C51.983 186.176 54.5756 184.2 54.5756 184.2L54.8225 183.088L64.699 177.529C65.3163 172.588 68.8965 166.535 72.7237 162.953C76.5509 159.371 87.7854 153.812 87.7854 153.812V148.5C85.8101 149.612 74.0817 157.147 71.6126 159.618C69.1435 162.212 54.9459 177.529 54.9459 177.529L54.699 176.665C54.699 176.665 69.1435 161.1 71.6126 158.506C74.0817 156.035 85.3163 148.747 87.2916 147.635ZM54.4521 163.571V162.459L57.4151 159.618L80.9953 128.241C80.9953 128.117 82.3533 120.953 83.0941 121.323C83.8348 121.694 84.4521 130.094 84.3286 132.441C84.2052 134.788 82.9706 136.023 81.3657 138.123C79.7607 140.223 72.7237 147.141 69.5138 150.353C66.5509 153.318 54.4521 163.571 54.4521 163.571Z" fill="black"/>
        <path opacity="0.1" d="M85.3174 114.529C84.8235 114.406 84.2063 114.529 83.4655 114.9C80.9964 116.259 71.4902 122.188 68.6507 124.041C65.8112 125.77 61.6137 128.488 60.7495 130.959C59.8853 133.429 55.4408 151.588 54.8235 154.059C54.2063 156.529 53.3421 160.112 52.1075 161.471C50.8729 162.829 43.3421 162.829 40.1322 161.1C36.9223 159.371 17.0458 148.129 13.2186 145.412C10.3791 143.312 7.29268 139.729 5.19391 137.629C5.19391 139.976 5.19391 142.818 5.19391 142.818C4.20626 144.053 4.57663 151.094 4.57663 151.094C4.57663 151.094 3.71243 153.812 4.32971 157.765C4.82354 161.841 8.40379 164.435 10.7495 166.165C13.0951 168.018 28.1569 177.282 36.305 181.606C44.3297 185.929 47.2927 186.176 49.6384 186.176C51.984 186.176 54.5766 184.2 54.5766 184.2L54.8235 183.088L64.7001 177.529C65.3174 172.588 68.8976 166.535 72.7248 162.953C76.5519 159.371 87.7865 153.812 87.7865 153.812V148.5L87.4161 147.635L87.91 146.647C88.1569 142.076 87.91 130.341 87.1692 122.559C86.7988 118.482 86.0581 116.135 85.3174 114.529Z" fill="url(#paint35_linear_189_1258)"/>
        <path opacity="0.2" d="M71.4898 158.135C69.0206 160.729 54.5762 176.294 54.5762 176.294V176.788C54.5762 176.788 69.0206 161.223 71.4898 158.629C73.9589 156.035 85.3169 148.747 87.2922 147.635L87.6626 146.894C85.6873 148.006 74.0823 155.541 71.4898 158.135Z" fill="black"/>
        <path opacity="0.2" d="M57.4161 159.124L54.4531 161.718L54.5766 162.459L57.5395 159.618L57.4161 159.124Z" fill="black"/>
        <path opacity="0.1" d="M65.3169 174.688L54.5762 180.618L54.8231 183.088L64.6996 177.529C64.6996 176.665 64.9465 175.676 65.3169 174.688Z" fill="black"/>
        <g opacity="0.1">
            <path opacity="0.1" d="M15.8105 104.4C14.3291 107.241 10.0081 116.259 8.89697 119.718C7.78586 123.177 6.42783 128.365 6.42783 128.365C6.42783 128.365 4.94635 133.924 5.06981 134.665C5.06981 134.912 5.06981 136.147 5.19327 137.506C7.29203 139.73 10.5019 143.312 13.218 145.288C17.0451 148.13 36.7982 159.247 40.1315 160.977C43.3414 162.706 50.8723 162.83 52.1068 161.347C53.3414 159.988 54.3291 156.283 54.8229 153.935C55.4402 151.465 59.8846 133.43 60.7488 130.835C61.2426 129.477 62.7241 127.994 64.4525 126.635L20.255 99.459C18.6501 100.818 16.9217 102.3 15.8105 104.4Z" fill="url(#paint36_linear_189_1258)"/>
            <path opacity="0.1" d="M5.19318 138.494V138.371C5.06972 138.371 5.06972 138.371 5.19318 138.494Z" fill="url(#paint37_linear_189_1258)"/>
        </g>
        <g opacity="0.2">
            <path opacity="0.2" d="M54.5766 176.418H54.4531V160.235C54.4531 160.235 57.5395 146.4 58.1568 143.929C58.6507 141.953 60.626 133.8 61.2432 132.688C61.8605 131.576 65.6877 128.612 67.5395 127.747C69.021 127.006 73.4655 124.412 76.4284 122.682C77.1692 122.188 77.7865 121.818 78.2803 121.571C78.6507 121.324 78.8976 121.2 79.2679 120.953C80.8729 119.965 82.6013 118.853 83.7124 119.224C84.0828 119.347 84.3297 119.471 84.4531 119.841C85.3173 121.571 85.9346 125.771 86.1815 130.959C86.4284 136.394 86.6753 145.906 86.1815 147.882L85.9346 148.624L86.1815 149.488L83.0951 156.406L82.9716 156.282L86.0581 149.488L85.8111 148.624L86.0581 147.759C86.4284 145.906 86.305 136.271 86.0581 130.959C85.8112 125.771 85.1939 121.571 84.3297 119.841C84.2062 119.594 83.9593 119.347 83.7124 119.347C82.7247 119.1 80.9963 120.088 79.3914 121.077C79.021 121.324 78.6507 121.447 78.4037 121.694C77.9099 121.941 77.2926 122.312 76.5519 122.806C73.5889 124.535 69.1445 127.253 67.663 127.994C65.8112 128.859 62.1074 131.824 61.4902 132.935C60.8729 133.924 58.8976 141.829 58.4037 144.176C57.7865 146.647 54.7 160.482 54.7 160.482L54.5766 176.418Z" fill="black"/>
        </g>
        <g opacity="0.2">
            <path opacity="0.2" d="M46.1811 163.571H46.0576V171.353H46.1811V163.571Z" fill="black"/>
        </g>
        <g opacity="0.2">
            <path opacity="0.2" d="M7.90959 141.582H7.78613V149.612H7.90959V141.582Z" fill="black"/>
        </g>
        <g opacity="0.2">
            <path opacity="0.2" d="M47.5476 154.339L41.2988 160.49L41.3854 160.578L47.6343 154.427L47.5476 154.339Z" fill="black"/>
        </g>
        <g opacity="0.2">
            <path opacity="0.2" d="M9.02004 140.718L8.2793 130.588H8.40275L9.26695 140.718H9.02004Z" fill="black"/>
        </g>
        <path d="M57.5393 129.353C55.6874 128.365 41.243 120.212 35.4405 116.753C29.638 113.294 19.3911 106.623 17.5393 105.388C16.6751 104.894 15.8109 105.018 15.1936 105.388C13.3417 108.971 9.88493 116.506 8.77382 119.594C7.66271 122.806 6.42814 127.747 6.30469 128.241C6.5516 129.476 7.16889 130.835 8.03308 131.7C9.26765 132.935 13.4652 137.135 24.6997 143.929C35.9343 150.723 46.0578 155.294 49.7615 155.294C53.4652 155.294 53.959 153.441 54.4528 151.959C54.8232 150.353 57.7862 137.876 58.6504 134.541C59.7615 131.206 58.5269 129.971 57.5393 129.353Z" fill="#141C1E"/>
        <path d="M49.8852 154.429C46.7987 154.429 37.416 150.6 25.3172 143.312C14.9469 137.012 10.6259 132.935 9.14441 131.453L8.8975 131.206C8.28021 130.588 7.66293 129.6 7.41602 128.488C7.66293 127.5 8.8975 123.053 9.88515 120.088C10.8728 117.124 14.3296 109.835 16.058 106.253C16.1814 106.129 16.4284 106.129 16.5518 106.129C16.7987 106.129 16.9222 106.253 17.1691 106.376C17.5395 106.624 18.5271 107.241 19.7617 107.982C23.5889 110.453 30.6259 115.024 35.0703 117.618C40.0086 120.582 51.3666 127.006 55.6876 129.353C56.4284 129.724 56.9222 130.094 57.1691 130.218C58.2802 130.835 58.6506 132.318 58.0333 134.418C57.6629 136.024 56.6753 139.853 55.8111 143.559C54.8234 147.388 53.9592 150.971 53.8358 151.835C53.3419 153.194 52.9716 154.429 49.8852 154.429Z" fill="#303E42"/>
        <path d="M64.6996 131.329C63.465 132.07 61.9835 134.047 61.3662 136.518C60.749 138.988 57.2922 153.935 57.1687 155.665C56.9218 157.271 56.7983 159.988 57.5391 159.618C58.2798 159.247 74.823 143.682 77.2922 141.335C79.6378 138.865 83.0946 134.912 83.5885 133.553C83.9588 132.07 84.2057 127.006 84.0823 125.276C83.9588 123.67 83.9588 120.335 82.4773 120.953C80.8724 121.57 64.6996 131.329 64.6996 131.329Z" fill="#141C1E"/>
        <path d="M57.6621 158.629C57.6621 158.012 57.6621 156.776 57.7856 155.665C58.0325 154.059 61.3658 139.359 61.9831 136.641C62.6004 134.294 63.835 132.565 64.9461 131.947C70.5016 128.612 81.3658 122.065 82.4769 121.571C82.4769 121.571 82.4769 121.571 82.6004 121.571C82.9708 121.818 83.0942 123.794 83.2177 124.535C83.2177 124.782 83.2177 125.029 83.2177 125.276C83.3411 126.882 83.0942 131.947 82.7238 133.306C82.3535 134.541 79.267 138.124 76.6745 140.841C74.4522 143.188 60.5016 156.159 57.6621 158.629Z" fill="#303E42"/>
        <path d="M19.6381 107.982C18.4035 107.241 17.5393 106.624 17.0455 106.376C16.922 106.376 16.922 106.253 16.7986 106.253C15.564 109.465 9.39117 124.906 10.5023 126.018C11.7368 127.253 15.3171 124.906 16.6751 123.794C17.7862 122.929 25.4406 115.888 28.1566 113.418C25.0702 111.441 21.7368 109.341 19.6381 107.982Z" fill="#C5D0D3"/>
        <path d="M15.6876 122.188C14.3296 121.571 10.2555 124.782 7.90984 126.759C7.66293 127.5 7.41602 128.118 7.41602 128.365C7.66293 129.476 8.15676 130.465 8.8975 131.082L9.14441 131.329C10.7493 132.812 14.9469 136.888 25.3172 143.188C37.416 150.476 46.9222 154.306 49.8852 154.306C52.8481 154.306 53.2185 153.071 53.5889 151.588C53.7123 150.971 54.3296 148.376 55.0703 145.412C46.9222 140.594 17.2926 122.929 15.6876 122.188Z" fill="#39464A"/>
        <path d="M39.6383 136.394C39.6383 136.394 32.9717 143.065 33.342 143.682C33.7124 144.423 40.7494 149.612 41.8605 149.612C42.9717 149.488 52.1075 143.682 52.1075 143.682C52.1075 143.682 51.1198 140.965 47.0457 138.618C42.8482 136.147 39.6383 136.394 39.6383 136.394Z" fill="#3D4B4F"/>
        <path d="M42.8478 133.553C42.107 133.183 41.3663 132.812 40.9959 133.183C40.6256 133.43 40.6256 134.047 41.7367 134.788C42.8478 135.529 53.9589 142.2 54.5762 142.571C55.1935 142.941 55.5638 142.941 55.9342 142.571C56.3046 142.2 55.4404 141.706 54.8231 141.212C54.2058 140.594 43.712 133.924 42.8478 133.553Z" fill="#3D4B4F"/>
        <path opacity="0.2" d="M36.5517 118.606C35.9344 118.235 35.3171 117.865 34.8233 117.618C30.3788 115.024 23.3418 110.453 19.5146 107.982C18.2801 107.241 17.4159 106.624 16.922 106.376C16.6751 106.253 16.5517 106.129 16.3047 106.129C16.1813 106.129 16.0578 106.129 15.8109 106.253C14.0825 109.835 10.6257 117.124 9.63808 120.088C8.65043 123.053 7.53932 127.376 7.16895 128.488C7.41586 129.6 7.90969 130.588 8.65043 131.206L8.89734 131.453C10.0085 132.565 12.3541 134.788 17.1689 138.124C21.1196 132.441 27.2924 124.782 36.5517 118.606Z" fill="white"/>
        <path d="M66.9223 181.235L59.1445 185.806V186.547L66.9223 182.1V181.235Z" fill="#333E40"/>
        <path d="M63.4653 178.271V179.259L55.811 183.83L55.6875 182.718L63.4653 178.271Z" fill="#010C0E"/>
        <path d="M59.1438 185.806L55.8104 183.829L55.687 182.718L54.8228 183.212L54.5759 184.447L54.082 184.694L55.4401 185.682L59.1438 186.547V185.806Z" fill="#1A2527"/>
        <path d="M66.9217 181.235L63.4649 179.259L55.8105 183.829L59.1439 185.806L66.9217 181.235Z" fill="#404B4D"/>
        <path d="M49.2672 178.024C46.4277 177.9 45.9339 177.53 43.4647 176.418C40.9956 175.306 28.0326 168.141 22.8475 165.177C17.7857 162.212 11.4894 157.765 9.76103 156.53C7.90918 155.171 5.31659 152.947 4.57585 150.971C4.57585 150.971 3.83511 153.812 4.32893 157.888C4.82276 161.965 8.40301 164.559 10.7487 166.288C13.0944 168.141 28.1561 177.406 36.3042 181.73C44.3289 186.053 47.2919 186.3 49.6376 186.3C51.9833 186.3 54.5758 184.324 54.5758 184.324L54.8228 183.212V177.282L54.5758 176.418C54.4524 176.418 51.9833 178.271 49.2672 178.024Z" fill="#333E40"/>
        <path d="M49.2671 178.024C46.4276 177.9 45.9338 177.53 43.4646 176.418C40.9955 175.306 28.0325 168.141 22.8473 165.177C17.7856 162.212 11.4893 157.765 9.76092 156.53C7.90906 155.171 5.31647 152.947 4.57573 150.971C4.57573 150.971 4.0819 152.824 4.20536 155.541C5.68684 157.888 9.02019 160.359 10.0078 160.977C11.119 161.841 18.8967 166.782 23.2177 169.5C27.4152 172.218 37.5387 177.777 41.4893 179.506C45.3165 181.235 49.3905 181.606 51.6128 181.482C52.8473 181.359 54.0819 180.865 55.0696 180.371V177.406L54.8226 176.541C54.4523 176.418 51.9831 178.271 49.2671 178.024Z" fill="#404B4D"/>
        <mask id="mask0_189_1258" style="mask-type:alpha" maskUnits="userSpaceOnUse" x="4" y="150" width="51" height="30">
            <path d="M49.2674 178.024C46.4279 177.9 45.934 177.53 43.4649 176.418C40.9958 175.306 28.0328 168.141 22.8476 165.177C17.7859 162.212 11.4896 157.765 9.7612 156.53C7.90935 155.171 5.31676 152.947 4.57602 150.971C4.57602 150.971 4.45256 151.465 4.3291 152.206C4.94639 153.688 6.0575 155.541 7.90935 157.024C10.6254 159.247 18.5266 164.065 23.0945 166.906C27.6624 169.747 35.8106 174.318 39.5143 176.294C43.218 178.271 46.7982 179.382 49.8846 179.259C52.9711 179.135 54.6995 177.282 54.6995 177.282L54.8229 177.159L54.576 176.294C54.4525 176.418 51.9834 178.271 49.2674 178.024Z" fill="url(#paint38_linear_189_1258)"/>
        </mask>
        <g mask="url(#mask0_189_1258)">
            <path d="M49.2674 178.024C46.4279 177.9 45.934 177.53 43.4649 176.418C40.9958 175.306 28.0328 168.141 22.8476 165.177C17.7859 162.212 11.4896 157.765 9.7612 156.53C7.90935 155.171 5.31676 152.947 4.57602 150.971C4.57602 150.971 4.45256 151.465 4.3291 152.206C4.94639 153.688 6.0575 155.541 7.90935 157.024C10.6254 159.247 18.5266 164.065 23.0945 166.906C27.6624 169.747 35.8106 174.318 39.5143 176.294C43.218 178.271 46.7982 179.382 49.8846 179.259C52.9711 179.135 54.6995 177.282 54.6995 177.282L54.8229 177.159L54.576 176.294C54.4525 176.418 51.9834 178.271 49.2674 178.024Z" fill="url(#paint39_linear_189_1258)"/>
            <path d="M11.9832 164.312C11.8597 163.694 11.3659 162.83 12.7239 163.694C14.0819 164.559 21.2424 168.882 23.9585 170.612C26.6745 172.341 34.6992 176.912 35.8103 177.53C36.9214 178.024 37.2918 178.394 36.9214 179.135C36.5511 179.877 35.6869 180.618 34.3288 180C32.9708 179.382 24.8227 174.688 22.6004 173.206C20.3782 171.847 14.0819 167.647 13.4646 167.4C12.8474 166.906 12.1066 165.177 11.9832 164.312Z" fill="#4D585A"/>
            <path d="M35.8105 177.406C34.6994 176.912 26.6747 172.218 23.9586 170.488C21.2426 168.759 13.9586 164.436 12.724 163.571C12.724 163.571 12.724 163.571 12.6006 163.571C12.6006 163.694 12.6006 163.694 12.724 163.818C12.971 164.683 13.7117 166.412 14.2055 166.783C14.6994 167.153 21.1191 171.23 23.3413 172.588C25.5635 173.947 33.7117 178.765 35.0697 179.383C35.687 179.63 36.1808 179.63 36.6747 179.506C36.7981 179.383 36.9216 179.136 37.045 179.012C37.2919 178.271 36.9216 178.024 35.8105 177.406Z" fill="#1A2527"/>
            <path d="M14.6997 159.988C17.1688 161.718 20.1318 163.571 22.8478 165.177C25.4404 166.783 30.2552 169.377 34.4527 171.724C35.4404 169.994 36.7984 169.253 38.033 168.883C37.6626 168.141 36.9219 167.277 36.4281 167.03C35.6873 166.659 26.3046 161.594 24.4528 160.359C22.6009 159.124 15.5639 154.8 14.5762 154.183C13.9589 153.812 13.4651 153.936 13.0947 154.059C14.0824 156.159 14.5762 159 14.6997 159.988Z" fill="#5A6567"/>
            <path d="M24.4526 163.077C22.2303 161.718 16.3044 158.012 14.3291 156.777C14.3291 156.9 14.4526 157.024 14.4526 157.271C15.934 158.259 22.3538 162.212 24.576 163.571C26.9217 164.93 32.9711 168.388 35.5637 169.747C35.6871 169.624 35.8106 169.624 35.8106 169.5C33.3414 168.141 26.9217 164.559 24.4526 163.077Z" fill="#1B2628"/>
            <path d="M35.44 170.118C32.7239 168.635 26.798 165.3 24.5758 163.941C22.3535 162.583 16.5511 159 14.6992 157.765C14.6992 157.888 14.8227 158.012 14.8227 158.259C16.6745 159.371 22.6005 163.077 24.8227 164.435C27.0449 165.671 32.477 168.759 35.3165 170.365C35.193 170.241 35.3165 170.118 35.44 170.118Z" fill="#1B2628"/>
            <path d="M34.6996 170.736C34.6996 170.612 34.8231 170.612 34.8231 170.488C31.9836 168.883 26.5515 165.918 24.3293 164.559C22.2305 163.324 16.6749 159.865 14.5762 158.506C14.5762 158.63 14.5762 158.753 14.6996 158.877C17.0453 160.359 21.9836 163.447 23.8354 164.559C26.3046 166.041 31.9836 169.253 34.6996 170.736Z" fill="#1B2628"/>
            <path d="M24.4527 161.594C22.107 160.235 16.0576 156.406 13.7119 154.924C13.8354 155.047 13.8354 155.294 13.9588 155.418C15.8107 156.529 22.2304 160.606 24.6996 162.088C27.4156 163.694 34.6996 167.771 37.0452 169.006C37.1687 168.882 37.2922 168.882 37.4156 168.882C35.0699 167.647 27.2922 163.2 24.4527 161.594Z" fill="#1B2628"/>
            <path d="M23.8356 164.929C21.9837 163.818 17.2924 160.853 14.8232 159.371C14.8232 159.494 14.8232 159.618 14.8232 159.741C16.922 161.1 20.0084 163.2 22.8479 164.806C25.3171 166.288 29.7615 168.759 34.206 171.229C34.3294 171.106 34.3294 170.982 34.4529 170.859C31.7368 169.5 26.0578 166.288 23.8356 164.929Z" fill="#1B2628"/>
            <path d="M24.4524 162.335C22.2302 160.977 16.3043 157.271 14.082 155.912C14.082 156.035 14.2055 156.282 14.2055 156.406C15.8104 157.394 22.2302 161.471 24.5759 162.83C27.045 164.312 33.7117 168.018 36.1808 169.377C36.3043 169.253 36.4277 169.253 36.5512 169.13C34.082 167.771 27.045 163.941 24.4524 162.335Z" fill="#1B2628"/>
            <path d="M24.576 161.347C27.4155 162.953 35.0698 167.277 37.4155 168.635C37.0451 168.141 36.5513 167.647 36.3043 167.524C35.5636 167.153 26.0574 162.088 24.2056 160.853C22.6006 159.865 17.4155 156.529 15.0698 155.171L14.2056 154.676C13.9587 154.553 13.7118 154.429 13.5883 154.429H13.4648V154.553C15.3167 155.541 22.1068 159.865 24.576 161.347Z" fill="#1B2628"/>
            <path d="M39.8843 159.494C37.1682 158.259 28.5263 154.182 21.8596 149.859C15.1929 145.535 10.7485 142.077 9.88429 141.335C9.76084 141.212 9.51393 140.965 9.14355 140.718L10.1312 144.3C11.4892 145.288 15.9337 148.5 21.9831 152.453C28.6497 156.777 37.1682 160.853 39.8843 161.965C39.8843 161.965 40.0078 161.965 40.0078 162.088L41.7361 160.235C41.1189 159.988 40.5016 159.741 39.8843 159.494Z" fill="url(#paint40_linear_189_1258)"/>
            <path opacity="0.5" d="M43.341 176.418C45.8102 177.53 46.304 177.9 49.1435 178.024C51.983 178.147 54.4521 176.418 54.4521 176.418V170.365C54.4521 170.365 51.2423 171.353 49.267 171.353C47.2917 171.353 42.3534 169.747 40.8719 169.13C39.3904 168.512 36.4275 168.636 34.4521 171.724C38.5262 173.947 42.1065 175.924 43.341 176.418Z" fill="#414E52"/>
            <path d="M49.5144 177.9C49.391 177.9 49.2675 177.9 49.1441 177.9C46.6749 177.777 46.0577 177.53 44.2058 176.665C43.9589 176.541 43.712 176.418 43.3416 176.294C42.2305 175.8 39.0206 174.071 34.5762 171.724C36.1811 169.377 38.1564 169.006 39.1441 169.006C39.7614 169.006 40.2552 169.13 40.749 169.253C42.2305 169.871 47.1688 171.477 49.2675 171.6H49.391C51.1194 171.6 53.5885 170.983 54.3293 170.736V176.418C53.9589 176.665 51.8601 177.9 49.5144 177.9Z" fill="#C9C9CA"/>
            <path opacity="0.5" d="M9.63798 156.53C10.5022 157.147 12.354 158.506 14.5762 159.988C14.4528 158.63 13.7121 154.43 11.8602 152.7C9.51452 150.724 6.18119 146.894 5.68736 146.277C5.07008 145.536 5.19353 143.559 5.07008 142.571C4.08242 143.806 4.45279 150.847 4.45279 150.847C5.19353 152.947 7.90958 155.171 9.63798 156.53Z" fill="#414E52"/>
            <path d="M14.4529 159.741C12.3542 158.383 10.6258 157.024 9.76158 156.406C8.15665 155.171 5.4406 152.947 4.5764 150.847C4.45294 149.118 4.45294 144.794 4.94677 143.188C4.94677 143.312 4.94677 143.436 4.94677 143.559C4.94677 144.547 5.07023 145.783 5.4406 146.277C6.18134 147.141 9.39121 150.847 11.6134 152.7C13.5887 154.43 14.206 158.136 14.4529 159.741Z" fill="#CACACB"/>
            <path d="M9.63761 163.447C9.63761 163.941 9.51415 164.065 9.14378 163.818L7.16848 162.336C6.79811 161.965 6.42773 161.224 6.42773 160.73V159.988C6.42773 159.494 6.79811 159.247 7.16848 159.618L9.02033 161.224C9.3907 161.594 9.76107 162.212 9.63761 162.83V163.447Z" fill="#F6921E"/>
            <path d="M9.51456 163.694L7.53926 162.212C7.16889 161.841 6.79851 161.1 6.79851 160.606V159.865C6.79851 159.618 6.92197 159.494 6.92197 159.371C6.5516 159.247 6.30469 159.371 6.30469 159.865V160.606C6.30469 161.1 6.67506 161.841 7.04543 162.212L9.02074 163.694C9.39111 163.941 9.51456 163.941 9.51456 163.694C9.51456 163.818 9.51456 163.818 9.51456 163.694Z" fill="#4D585A"/>
            <path d="M45.8104 170.983C45.0696 172.218 43.5882 173.7 42.6005 174.441C42.3536 174.688 41.9832 174.812 41.8598 174.812L40.7486 172.218L39.3906 169.377C39.3906 169.377 39.5141 169.377 39.761 169.253C39.8845 169.13 40.2548 169.13 40.5017 169.006C40.6252 169.006 40.7487 169.13 40.8721 169.13C41.7363 169.624 43.8351 170.365 45.8104 170.983Z" fill="url(#paint41_linear_189_1258)"/>
            <path d="M42.8479 173.33C42.8479 174.688 41.8603 175.183 40.7492 174.565C39.638 173.947 38.6504 172.218 38.6504 170.859C38.6504 169.5 39.638 169.006 40.7492 169.624C41.9837 170.365 42.8479 171.971 42.8479 173.33Z" fill="white"/>
            <path d="M51.1191 172.835C50.7488 174.071 49.1438 175.8 47.9093 176.541C47.6623 176.665 47.4154 176.788 47.1685 176.912L46.1809 174.688L44.9463 172.218C44.9463 172.218 45.0697 172.218 45.1932 172.094C45.5636 171.971 46.1809 171.847 46.7981 171.6C46.7981 171.6 47.292 171.477 47.9093 171.477C48.2796 171.6 48.7734 171.6 49.0204 171.6H49.3907C49.7611 171.6 50.2549 171.6 50.7488 171.477C50.9957 171.477 51.1191 171.6 51.2426 171.724C51.4895 172.218 51.1191 172.835 51.1191 172.835Z" fill="url(#paint42_linear_189_1258)"/>
            <path d="M48.2799 175.553C48.2799 176.788 47.4157 177.283 46.428 176.665C45.4404 176.047 44.5762 174.565 44.5762 173.453C44.5762 172.218 45.4404 171.724 46.428 172.341C47.4157 172.959 48.2799 174.318 48.2799 175.553Z" fill="white"/>
            <path d="M54.2061 172.836C53.9592 173.824 52.3542 175.183 51.7369 175.43L51.1196 173.947L50.3789 172.341C50.3789 172.341 50.8727 172.094 51.6135 171.971C51.6135 171.971 53.8357 171.477 54.2061 172.094C54.453 172.465 54.2061 172.836 54.2061 172.836Z" fill="url(#paint43_linear_189_1258)"/>
            <path d="M52.3539 174.565C52.3539 175.306 51.8601 175.676 51.1193 175.306C50.502 174.935 49.8848 173.947 49.8848 173.206C49.8848 172.465 50.3786 172.094 51.1193 172.465C51.8601 172.835 52.3539 173.824 52.3539 174.565Z" fill="white"/>
            <path d="M41.7362 160.235L40.0078 162.088C42.6004 163.2 45.5634 164.312 48.8967 164.312C52.23 164.312 54.4523 163.077 54.4523 163.077V160.235C54.4523 160.235 52.23 161.471 48.8967 161.471C46.3041 161.471 43.9584 160.977 41.7362 160.235Z" fill="#F6921E"/>
            <path opacity="0.3" d="M41.7362 160.235L40.0078 162.088C42.6004 163.2 45.5634 164.312 48.8967 164.312C52.23 164.312 54.4523 163.077 54.4523 163.077V160.235C54.4523 160.235 52.23 161.471 48.8967 161.471C46.3041 161.471 43.9584 160.977 41.7362 160.235Z" fill="url(#paint44_linear_189_1258)"/>
            <path opacity="0.3" d="M9.02033 161.1L7.16848 159.494C6.79811 159.247 6.55119 159.247 6.42773 159.618C6.55119 159.618 6.67465 159.618 6.92156 159.865L8.77341 161.471C9.14378 161.841 9.51415 162.459 9.3907 163.077L9.26724 163.818C9.26724 163.941 9.26724 163.941 9.26724 163.941C9.51415 164.065 9.51415 163.941 9.51415 163.447L9.63761 162.706C9.76107 162.212 9.3907 161.471 9.02033 161.1Z" fill="black"/>
        </g>
        <mask id="mask1_189_1258" style="mask-type:alpha" maskUnits="userSpaceOnUse" x="34" y="169" width="21" height="9">
            <path d="M49.5144 177.9C49.391 177.9 49.2675 177.9 49.1441 177.9C46.6749 177.777 46.0577 177.53 44.2058 176.665C43.9589 176.541 43.712 176.418 43.3416 176.294C42.2305 175.8 39.0206 174.071 34.5762 171.724C36.1811 169.377 38.1564 169.006 39.1441 169.006C39.7614 169.006 40.2552 169.13 40.749 169.253C42.2305 169.871 47.1688 171.477 49.2675 171.6H49.391C51.1194 171.6 53.5885 170.983 54.3293 170.736V176.418C53.9589 176.665 51.8601 177.9 49.5144 177.9Z" fill="url(#paint45_linear_189_1258)"/>
        </mask>
        <g mask="url(#mask1_189_1258)">
            <path d="M49.5144 177.9C49.391 177.9 49.2675 177.9 49.1441 177.9C46.6749 177.777 46.0577 177.53 44.2058 176.665C43.9589 176.541 43.712 176.418 43.3416 176.294C42.2305 175.8 39.0206 174.071 34.5762 171.724C36.1811 169.377 38.1564 169.006 39.1441 169.006C39.7614 169.006 40.2552 169.13 40.749 169.253C42.2305 169.871 47.1688 171.477 49.2675 171.6H49.391C51.1194 171.6 53.5885 170.983 54.3293 170.736V176.418C53.9589 176.665 51.8601 177.9 49.5144 177.9Z" fill="url(#paint46_linear_189_1258)"/>
        </g>
        <mask id="mask2_189_1258" style="mask-type:alpha" maskUnits="userSpaceOnUse" x="4" y="143" width="11" height="17">
            <path d="M14.4529 159.741C12.3542 158.382 10.6258 157.024 9.76158 156.406C8.15665 155.171 5.4406 152.947 4.5764 150.847C4.45294 149.118 4.45294 144.794 4.94677 143.188C4.94677 143.312 4.94677 143.435 4.94677 143.559C4.94677 144.547 5.07023 145.782 5.4406 146.276C6.18134 147.141 9.39121 150.847 11.6134 152.7C13.5887 154.429 14.206 158.135 14.4529 159.741Z" fill="url(#paint47_linear_189_1258)"/>
        </mask>
        <g mask="url(#mask2_189_1258)">
            <path d="M14.4529 159.741C12.3542 158.382 10.6258 157.024 9.76158 156.406C8.15665 155.171 5.4406 152.947 4.5764 150.847C4.45294 149.118 4.45294 144.794 4.94677 143.188C4.94677 143.312 4.94677 143.435 4.94677 143.559C4.94677 144.547 5.07023 145.782 5.4406 146.276C6.18134 147.141 9.39121 150.847 11.6134 152.7C13.5887 154.429 14.206 158.135 14.4529 159.741Z" fill="url(#paint48_linear_189_1258)"/>
        </g>
    </g>
    <defs>
        <linearGradient id="paint0_linear_189_1258" x1="166.542" y1="119.251" x2="163.705" y2="138.198" gradientUnits="userSpaceOnUse">
            <stop stop-color="#F3F5F7"/>
            <stop offset="1" stop-color="#999D9E"/>
        </linearGradient>
        <linearGradient id="paint1_linear_189_1258" x1="163.577" y1="135.734" x2="165.064" y2="126.518" gradientUnits="userSpaceOnUse">
            <stop stop-color="#E6E8EA"/>
            <stop offset="1" stop-color="#8C9091"/>
        </linearGradient>
        <linearGradient id="paint2_linear_189_1258" x1="163.765" y1="131.398" x2="168.207" y2="120.439" gradientUnits="userSpaceOnUse">
            <stop stop-color="#F3F5F7"/>
            <stop offset="1" stop-color="#999D9E"/>
        </linearGradient>
        <linearGradient id="paint3_linear_189_1258" x1="166.114" y1="120.683" x2="163.216" y2="135.704" gradientUnits="userSpaceOnUse">
            <stop stop-color="#F3F5F7"/>
            <stop offset="1" stop-color="#999D9E"/>
        </linearGradient>
        <linearGradient id="paint4_linear_189_1258" x1="165.562" y1="123.744" x2="165.462" y2="135.669" gradientUnits="userSpaceOnUse">
            <stop stop-color="#F3F5F7"/>
            <stop offset="1" stop-color="#999D9E"/>
        </linearGradient>
        <linearGradient id="paint5_linear_189_1258" x1="164.355" y1="122.724" x2="165.37" y2="122.724" gradientUnits="userSpaceOnUse">
            <stop stop-color="#8F9193"/>
            <stop offset="1" stop-color="#35393A"/>
        </linearGradient>
        <linearGradient id="paint6_linear_189_1258" x1="160.363" y1="128.558" x2="161.819" y2="128.558" gradientUnits="userSpaceOnUse">
            <stop stop-color="#8F9193"/>
            <stop offset="1" stop-color="#35393A"/>
        </linearGradient>
        <linearGradient id="paint7_linear_189_1258" x1="160.83" y1="131.498" x2="162.19" y2="131.498" gradientUnits="userSpaceOnUse">
            <stop stop-color="#8F9193"/>
            <stop offset="1" stop-color="#35393A"/>
        </linearGradient>
        <linearGradient id="paint8_linear_189_1258" x1="163.042" y1="132.592" x2="163.774" y2="132.592" gradientUnits="userSpaceOnUse">
            <stop stop-color="#8F9193"/>
            <stop offset="1" stop-color="#35393A"/>
        </linearGradient>
        <linearGradient id="paint9_linear_189_1258" x1="161.939" y1="125.193" x2="163.294" y2="125.193" gradientUnits="userSpaceOnUse">
            <stop stop-color="#8F9193"/>
            <stop offset="1" stop-color="#35393A"/>
        </linearGradient>
        <linearGradient id="paint10_linear_189_1258" x1="167.051" y1="121.992" x2="167.898" y2="121.992" gradientUnits="userSpaceOnUse">
            <stop stop-color="#8F9193"/>
            <stop offset="1" stop-color="#35393A"/>
        </linearGradient>
        <linearGradient id="paint11_linear_189_1258" x1="168.77" y1="124.085" x2="169.659" y2="124.085" gradientUnits="userSpaceOnUse">
            <stop stop-color="#8F9193"/>
            <stop offset="1" stop-color="#35393A"/>
        </linearGradient>
        <linearGradient id="paint12_linear_189_1258" x1="168.846" y1="126.814" x2="169.217" y2="126.814" gradientUnits="userSpaceOnUse">
            <stop stop-color="#8F9193"/>
            <stop offset="1" stop-color="#35393A"/>
        </linearGradient>
        <linearGradient id="paint13_linear_189_1258" x1="165.561" y1="131.729" x2="165.915" y2="131.729" gradientUnits="userSpaceOnUse">
            <stop stop-color="#8F9193"/>
            <stop offset="1" stop-color="#35393A"/>
        </linearGradient>
        <linearGradient id="paint14_linear_189_1258" x1="167.784" y1="129.298" x2="168.089" y2="129.298" gradientUnits="userSpaceOnUse">
            <stop stop-color="#8F9193"/>
            <stop offset="1" stop-color="#35393A"/>
        </linearGradient>
        <linearGradient id="paint15_linear_189_1258" x1="167.665" y1="127.106" x2="163.737" y2="128.736" gradientUnits="userSpaceOnUse">
            <stop stop-color="#F3F5F7"/>
            <stop offset="1" stop-color="#999D9E"/>
        </linearGradient>
        <linearGradient id="paint16_linear_189_1258" x1="166.396" y1="125.998" x2="164.862" y2="133.792" gradientUnits="userSpaceOnUse">
            <stop stop-color="#F3F5F7"/>
            <stop offset="1" stop-color="#999D9E"/>
        </linearGradient>
        <linearGradient id="paint17_linear_189_1258" x1="77.0899" y1="167.215" x2="74.2536" y2="186.162" gradientUnits="userSpaceOnUse">
            <stop stop-color="#F3F5F7"/>
            <stop offset="1" stop-color="#999D9E"/>
        </linearGradient>
        <linearGradient id="paint18_linear_189_1258" x1="74.1257" y1="183.699" x2="75.6131" y2="174.482" gradientUnits="userSpaceOnUse">
            <stop stop-color="#E6E8EA"/>
            <stop offset="1" stop-color="#8C9091"/>
        </linearGradient>
        <linearGradient id="paint19_linear_189_1258" x1="74.3145" y1="179.363" x2="78.7562" y2="168.404" gradientUnits="userSpaceOnUse">
            <stop stop-color="#F3F5F7"/>
            <stop offset="1" stop-color="#999D9E"/>
        </linearGradient>
        <linearGradient id="paint20_linear_189_1258" x1="76.6647" y1="168.646" x2="73.7656" y2="183.668" gradientUnits="userSpaceOnUse">
            <stop stop-color="#F3F5F7"/>
            <stop offset="1" stop-color="#999D9E"/>
        </linearGradient>
        <linearGradient id="paint21_linear_189_1258" x1="76.111" y1="171.709" x2="76.0109" y2="183.632" gradientUnits="userSpaceOnUse">
            <stop stop-color="#F3F5F7"/>
            <stop offset="1" stop-color="#999D9E"/>
        </linearGradient>
        <linearGradient id="paint22_linear_189_1258" x1="74.9044" y1="170.688" x2="75.919" y2="170.688" gradientUnits="userSpaceOnUse">
            <stop stop-color="#8F9193"/>
            <stop offset="1" stop-color="#35393A"/>
        </linearGradient>
        <linearGradient id="paint23_linear_189_1258" x1="70.9121" y1="176.521" x2="72.3685" y2="176.521" gradientUnits="userSpaceOnUse">
            <stop stop-color="#8F9193"/>
            <stop offset="1" stop-color="#35393A"/>
        </linearGradient>
        <linearGradient id="paint24_linear_189_1258" x1="71.3773" y1="179.461" x2="72.7381" y2="179.461" gradientUnits="userSpaceOnUse">
            <stop stop-color="#8F9193"/>
            <stop offset="1" stop-color="#35393A"/>
        </linearGradient>
        <linearGradient id="paint25_linear_189_1258" x1="73.5894" y1="180.556" x2="74.3224" y2="180.556" gradientUnits="userSpaceOnUse">
            <stop stop-color="#8F9193"/>
            <stop offset="1" stop-color="#35393A"/>
        </linearGradient>
        <linearGradient id="paint26_linear_189_1258" x1="72.4865" y1="173.156" x2="73.8428" y2="173.156" gradientUnits="userSpaceOnUse">
            <stop stop-color="#8F9193"/>
            <stop offset="1" stop-color="#35393A"/>
        </linearGradient>
        <linearGradient id="paint27_linear_189_1258" x1="77.5999" y1="169.957" x2="78.447" y2="169.957" gradientUnits="userSpaceOnUse">
            <stop stop-color="#8F9193"/>
            <stop offset="1" stop-color="#35393A"/>
        </linearGradient>
        <linearGradient id="paint28_linear_189_1258" x1="79.3187" y1="172.048" x2="80.2072" y2="172.048" gradientUnits="userSpaceOnUse">
            <stop stop-color="#8F9193"/>
            <stop offset="1" stop-color="#35393A"/>
        </linearGradient>
        <linearGradient id="paint29_linear_189_1258" x1="79.3941" y1="174.779" x2="79.7659" y2="174.779" gradientUnits="userSpaceOnUse">
            <stop stop-color="#8F9193"/>
            <stop offset="1" stop-color="#35393A"/>
        </linearGradient>
        <linearGradient id="paint30_linear_189_1258" x1="76.1085" y1="179.694" x2="76.4628" y2="179.694" gradientUnits="userSpaceOnUse">
            <stop stop-color="#8F9193"/>
            <stop offset="1" stop-color="#35393A"/>
        </linearGradient>
        <linearGradient id="paint31_linear_189_1258" x1="78.3317" y1="177.261" x2="78.6377" y2="177.261" gradientUnits="userSpaceOnUse">
            <stop stop-color="#8F9193"/>
            <stop offset="1" stop-color="#35393A"/>
        </linearGradient>
        <linearGradient id="paint32_linear_189_1258" x1="78.2135" y1="175.07" x2="74.2853" y2="176.7" gradientUnits="userSpaceOnUse">
            <stop stop-color="#F3F5F7"/>
            <stop offset="1" stop-color="#999D9E"/>
        </linearGradient>
        <linearGradient id="paint33_linear_189_1258" x1="76.9459" y1="173.962" x2="75.4124" y2="181.757" gradientUnits="userSpaceOnUse">
            <stop stop-color="#F3F5F7"/>
            <stop offset="1" stop-color="#999D9E"/>
        </linearGradient>
        <linearGradient id="paint34_linear_189_1258" x1="86.2273" y1="177.919" x2="69.5748" y2="161.277" gradientUnits="userSpaceOnUse">
            <stop offset="0.1021" stop-color="#3B4447"/>
            <stop offset="1" stop-color="#081114"/>
        </linearGradient>
        <linearGradient id="paint35_linear_189_1258" x1="55.1284" y1="150.376" x2="47.5127" y2="150.376" gradientUnits="userSpaceOnUse">
            <stop stop-color="white"/>
            <stop offset="1"/>
        </linearGradient>
        <linearGradient id="paint36_linear_189_1258" x1="46.2799" y1="117.43" x2="40.9697" y2="124.01" gradientUnits="userSpaceOnUse">
            <stop stop-color="white"/>
            <stop offset="1"/>
        </linearGradient>
        <linearGradient id="paint37_linear_189_1258" x1="31.519" y1="105.617" x2="26.2186" y2="112.185" gradientUnits="userSpaceOnUse">
            <stop stop-color="white"/>
            <stop offset="1"/>
        </linearGradient>
        <linearGradient id="paint38_linear_189_1258" x1="40.9127" y1="166.241" x2="53.8756" y2="167.237" gradientUnits="userSpaceOnUse">
            <stop stop-color="#333333"/>
            <stop offset="0.5241" stop-color="#999999"/>
            <stop offset="1" stop-color="#333333"/>
        </linearGradient>
        <linearGradient id="paint39_linear_189_1258" x1="40.9127" y1="166.241" x2="53.8756" y2="167.237" gradientUnits="userSpaceOnUse">
            <stop stop-color="white"/>
            <stop offset="0.5241" stop-color="white"/>
            <stop offset="1" stop-color="white"/>
        </linearGradient>
        <linearGradient id="paint40_linear_189_1258" x1="25.1792" y1="150.919" x2="22.8113" y2="155.249" gradientUnits="userSpaceOnUse">
            <stop stop-color="#F9F9F9"/>
            <stop offset="1" stop-color="#C7C7C7"/>
        </linearGradient>
        <linearGradient id="paint41_linear_189_1258" x1="42.3585" y1="169.305" x2="43.3556" y2="173.114" gradientUnits="userSpaceOnUse">
            <stop stop-color="#FAFFFF"/>
            <stop offset="1" stop-color="#D4D7D9"/>
        </linearGradient>
        <linearGradient id="paint42_linear_189_1258" x1="48.1562" y1="171.923" x2="49.0437" y2="175.314" gradientUnits="userSpaceOnUse">
            <stop stop-color="#FAFFFF"/>
            <stop offset="1" stop-color="#D4D7D9"/>
        </linearGradient>
        <linearGradient id="paint43_linear_189_1258" x1="52.3113" y1="172.249" x2="52.8722" y2="174.392" gradientUnits="userSpaceOnUse">
            <stop stop-color="#FAFFFF"/>
            <stop offset="1" stop-color="#D4D7D9"/>
        </linearGradient>
        <linearGradient id="paint44_linear_189_1258" x1="40.033" y1="162.224" x2="54.5035" y2="162.224" gradientUnits="userSpaceOnUse">
            <stop/>
            <stop offset="0.5632" stop-color="white"/>
            <stop offset="1"/>
        </linearGradient>
        <linearGradient id="paint45_linear_189_1258" x1="37.5264" y1="173.441" x2="57.2032" y2="173.441" gradientUnits="userSpaceOnUse">
            <stop stop-color="white"/>
            <stop offset="0.0720832" stop-color="#F5F5F5"/>
            <stop offset="0.1964" stop-color="#D9D9D9"/>
            <stop offset="0.3568" stop-color="#ACACAC"/>
            <stop offset="0.4692" stop-color="#888888"/>
            <stop offset="1"/>
        </linearGradient>
        <linearGradient id="paint46_linear_189_1258" x1="37.5264" y1="173.441" x2="57.2032" y2="173.441" gradientUnits="userSpaceOnUse">
            <stop stop-color="white"/>
            <stop offset="0.4692" stop-color="white"/>
            <stop offset="1" stop-color="white"/>
        </linearGradient>
        <linearGradient id="paint47_linear_189_1258" x1="4.59615" y1="151.447" x2="14.4621" y2="151.447" gradientUnits="userSpaceOnUse">
            <stop stop-color="white"/>
            <stop offset="0.0720832" stop-color="#F5F5F5"/>
            <stop offset="0.1964" stop-color="#D9D9D9"/>
            <stop offset="0.3568" stop-color="#ACACAC"/>
            <stop offset="0.4692" stop-color="#888888"/>
            <stop offset="1"/>
        </linearGradient>
        <linearGradient id="paint48_linear_189_1258" x1="4.59615" y1="151.447" x2="14.4621" y2="151.447" gradientUnits="userSpaceOnUse">
            <stop stop-color="white"/>
            <stop offset="0.4692" stop-color="white"/>
            <stop offset="1" stop-color="white"/>
        </linearGradient>
        <clipPath id="clip0_189_1258">
            <rect width="200" height="200" fill="white"/>
        </clipPath>
    </defs>
</svg>