<svg xmlns="http://www.w3.org/2000/svg" width="1288" height="1000" viewBox="0 0 1288 1000" fill="none">
    <g clip-path="url(#clip0_198_1868)">
        <path d="M233.376 997.809V931.443C233.376 906.057 217.912 889.433 191.366 889.433C178.092 889.433 163.659 893.814 153.737 908.247C146.005 896.134 134.922 889.433 118.299 889.433C107.216 889.433 96.1336 892.784 87.3707 904.897V891.624H64.1748V997.809H87.3707V939.175C87.3707 920.361 97.2934 911.469 112.757 911.469C128.221 911.469 135.953 921.392 135.953 939.175V997.809H159.149V939.175C159.149 920.361 170.231 911.469 184.536 911.469C200 911.469 207.731 921.392 207.731 939.175V997.809H233.376ZM577.448 891.624H539.819V859.536H516.623V891.624H495.618V912.629H516.623V961.34C516.623 985.696 526.546 1000 553.092 1000C563.015 1000 574.098 996.65 581.829 992.268L575.128 972.294C568.427 976.675 560.695 977.835 555.154 977.835C544.072 977.835 539.69 971.134 539.69 960.18V912.629H577.319V891.624H577.448ZM774.355 889.304C761.082 889.304 752.19 896.005 746.649 904.768V891.495H723.453V997.68H746.649V937.887C746.649 920.232 754.381 910.18 768.814 910.18C773.195 910.18 778.737 911.34 783.247 912.371L789.948 890.206C785.309 889.304 778.737 889.304 774.355 889.304ZM476.804 900.387C465.721 892.655 450.257 889.304 433.634 889.304C407.087 889.304 389.433 902.577 389.433 923.583C389.433 941.237 402.706 951.289 425.902 954.51L436.984 955.67C449.098 957.861 455.799 961.211 455.799 966.753C455.799 974.485 446.907 980.026 431.443 980.026C415.979 980.026 403.737 974.485 396.005 968.943L384.922 986.598C397.036 995.49 413.659 999.871 430.283 999.871C461.211 999.871 478.994 985.438 478.994 965.593C478.994 946.778 464.561 936.856 442.525 933.505L431.443 932.345C421.52 931.186 413.788 928.995 413.788 922.423C413.788 914.691 421.52 910.309 433.762 910.309C447.036 910.309 460.309 915.851 467.01 919.201L476.804 900.387ZM1093.94 889.304C1080.67 889.304 1071.78 896.005 1066.24 904.768V891.495H1043.04V997.68H1066.24V937.887C1066.24 920.232 1073.97 910.18 1088.4 910.18C1092.78 910.18 1098.32 911.34 1102.83 912.371L1109.54 890.464C1105.03 889.304 1098.45 889.304 1093.94 889.304ZM797.551 944.716C797.551 976.804 819.716 1000 853.994 1000C869.458 1000 880.541 996.649 891.623 987.887L880.541 969.072C871.649 975.773 862.886 978.995 852.835 978.995C834.02 978.995 820.747 965.722 820.747 944.716C820.747 924.742 834.02 911.469 852.835 910.438C862.757 910.438 871.649 913.789 880.541 920.361L891.623 901.546C880.541 892.655 869.458 889.433 853.994 889.433C819.716 889.304 797.551 912.629 797.551 944.716ZM1012.11 944.716V891.624H988.917V904.897C981.185 894.974 970.103 889.433 955.67 889.433C925.773 889.433 902.577 912.629 902.577 944.716C902.577 976.804 925.773 1000 955.67 1000C971.134 1000 982.216 994.459 988.917 984.536V997.809H1012.11V944.716ZM926.933 944.716C926.933 925.902 939.046 910.438 959.02 910.438C977.835 910.438 991.108 924.871 991.108 944.716C991.108 963.531 977.835 978.995 959.02 978.995C939.175 977.835 926.933 963.402 926.933 944.716ZM649.355 889.304C618.427 889.304 596.262 911.469 596.262 944.588C596.262 977.835 618.427 999.871 650.515 999.871C665.979 999.871 681.443 995.49 693.685 985.438L682.603 968.814C673.711 975.515 662.628 979.897 651.675 979.897C637.242 979.897 622.938 973.196 619.587 954.51H698.067C698.067 951.16 698.067 948.969 698.067 945.619C699.098 911.469 679.123 889.304 649.355 889.304ZM649.355 909.278C663.788 909.278 673.711 918.17 675.902 934.665H620.618C622.809 920.361 632.732 909.278 649.355 909.278ZM1225.64 944.716V849.613H1202.45V904.897C1194.72 894.974 1183.63 889.433 1169.2 889.433C1139.3 889.433 1116.11 912.629 1116.11 944.716C1116.11 976.804 1139.3 1000 1169.2 1000C1184.66 1000 1195.75 994.459 1202.45 984.536V997.809H1225.64V944.716ZM1140.46 944.716C1140.46 925.902 1152.58 910.438 1172.55 910.438C1191.37 910.438 1204.64 924.871 1204.64 944.716C1204.64 963.531 1191.37 978.995 1172.55 978.995C1152.58 977.835 1140.46 963.402 1140.46 944.716ZM363.917 944.716V891.624H340.721V904.897C332.989 894.974 321.907 889.433 307.474 889.433C277.577 889.433 254.381 912.629 254.381 944.716C254.381 976.804 277.577 1000 307.474 1000C322.938 1000 334.02 994.459 340.721 984.536V997.809H363.917V944.716ZM277.706 944.716C277.706 925.902 289.819 910.438 309.793 910.438C328.608 910.438 341.881 924.871 341.881 944.716C341.881 963.531 328.608 978.995 309.793 978.995C289.819 977.835 277.706 963.402 277.706 944.716Z" fill="black"/>
        <path d="M817.526 85.1804H469.072V711.211H817.526V85.1804Z" fill="#FF5A00"/>
        <path d="M492.268 398.196C492.268 271.005 552.062 158.119 643.814 85.1804C576.289 32.0876 491.108 0 398.196 0C178.093 0 0 178.093 0 398.196C0 618.299 178.093 796.392 398.196 796.392C491.108 796.392 576.289 764.304 643.814 711.211C551.933 639.304 492.268 525.387 492.268 398.196Z" fill="#EB001B"/>
        <path d="M1287.63 398.196C1287.63 618.299 1109.54 796.392 889.433 796.392C796.521 796.392 711.34 764.304 643.814 711.211C736.727 638.144 795.361 525.387 795.361 398.196C795.361 271.005 735.567 158.119 643.814 85.1804C711.211 32.0876 796.392 0 889.304 0C1109.54 0 1287.63 179.253 1287.63 398.196Z" fill="#F79E1B"/>
    </g>
    <defs>
        <clipPath id="clip0_198_1868">
            <rect width="1287.63" height="1000" fill="white"/>
        </clipPath>
    </defs>
</svg>