<svg xmlns="http://www.w3.org/2000/svg" width="200" height="200" viewBox="0 0 200 200" fill="none">
    <g style="mix-blend-mode:multiply" opacity="0.1">
        <path d="M198.456 112.638C199.909 113.331 199.949 114.545 198.563 115.305L55.2695 197.624C53.5696 198.516 51.7131 199.068 49.8028 199.251L42.8827 199.664C40.9576 199.712 39.0392 199.419 37.2161 198.797L26.9895 194.931C25.1797 194.215 23.424 193.368 21.736 192.397L8.6694 184.691C7.02827 183.655 5.51165 182.433 4.1494 181.051L1.5494 178.237C0.971272 177.545 0.539657 176.743 0.280681 175.879C0.0217058 175.015 -0.0592304 174.108 0.0427464 173.211L0.509401 170.544C0.916187 168.764 2.00856 167.217 3.5494 166.237L143.123 89.0112C143.933 88.6232 144.815 88.4085 145.712 88.3809C146.611 88.3535 147.504 88.5136 148.336 88.8512L198.456 112.638Z" fill="black"/>
    </g>
    <path d="M72.0965 170.451L68.4698 168.424C67.4165 169.011 66.3098 169.624 65.2031 170.157C61.6234 172.073 58.7293 175.056 56.9231 178.691C55.5054 181.965 54.2637 185.312 53.2031 188.717L53.2831 188.784L59.9498 192.491C60.9222 192.815 61.957 192.907 62.9711 192.759C63.9854 192.611 64.9507 192.227 65.7898 191.637C68.3826 189.951 70.5407 187.676 72.0883 184.997C73.6361 182.319 74.5297 179.313 74.6965 176.224C74.6831 173.371 73.6698 171.371 72.0965 170.451Z" fill="#3A3939"/>
    <path d="M74.6835 176.224C74.5167 179.313 73.623 182.318 72.0753 184.997C70.5276 187.676 68.3696 189.95 65.7768 191.637C60.8568 194.477 56.8701 192.17 56.8701 186.504C57.0371 183.413 57.9305 180.406 59.4781 177.725C61.0257 175.045 63.1837 172.768 65.7768 171.077C70.7635 168.237 74.6835 170.544 74.6835 176.224Z" fill="#575656"/>
    <path d="M74.203 177.144C74.0502 179.948 73.2391 182.677 71.8354 185.109C70.4315 187.541 68.4746 189.609 66.123 191.144C61.6563 193.717 58.043 191.624 58.043 186.477C58.1926 183.673 59.0023 180.943 60.4063 178.511C61.8104 176.077 63.7691 174.011 66.123 172.477C70.5896 169.971 74.203 171.984 74.203 177.144Z" fill="#3A3939"/>
    <path d="M71.6696 178.784C71.58 180.651 71.0501 182.469 70.1232 184.091C69.1963 185.713 67.8985 187.093 66.3363 188.117C63.3763 189.824 61.0029 188.437 61.0029 185.024C61.0924 183.159 61.6223 181.34 62.5492 179.717C63.4763 178.096 64.7739 176.716 66.3363 175.691C69.2696 173.971 71.6696 175.371 71.6696 178.784Z" fill="url(#paint0_linear_189_1393)"/>
    <path d="M66.3095 175.691C65.9003 175.929 65.5123 176.201 65.1495 176.504L65.5495 176.251C68.0695 174.797 70.1095 175.984 70.1095 178.917C70.024 180.5 69.5664 182.039 68.7742 183.411C67.9818 184.781 66.877 185.947 65.5495 186.811C63.0562 188.251 61.0162 187.104 60.9895 184.237C60.9762 184.491 60.9762 184.744 60.9895 184.997C60.9895 188.411 63.3895 189.797 66.3228 188.091C67.8851 187.067 69.1828 185.687 70.1098 184.064C71.0367 182.443 71.5666 180.624 71.6562 178.757C71.6695 175.371 69.2695 173.971 66.3095 175.691Z" fill="url(#paint1_linear_189_1393)"/>
    <path d="M66.6829 175.491C69.0295 174.637 70.8162 175.984 70.8162 178.837C70.721 180.592 70.2138 182.3 69.3359 183.821C68.4579 185.344 67.2338 186.637 65.7629 187.597C63.9362 188.651 62.3361 188.451 61.4561 187.277C62.2961 188.904 64.1229 189.304 66.3095 188.064C67.8718 187.04 69.1695 185.66 70.0965 184.037C71.0234 182.416 71.5533 180.597 71.6429 178.731C71.6695 175.504 69.4295 174.104 66.6829 175.491Z" fill="url(#paint2_linear_189_1393)"/>
    <path d="M69.4293 180.504C69.3764 181.495 69.0904 182.46 68.5947 183.319C68.0988 184.179 67.4072 184.909 66.576 185.451C65.0027 186.371 63.7227 185.624 63.7227 183.811C63.7756 182.82 64.0616 181.856 64.5573 180.996C65.0532 180.137 65.7448 179.407 66.576 178.864C68.096 177.971 69.4293 178.691 69.4293 180.504Z" fill="#DBDBDA"/>
    <path d="M67.9095 181.664C67.8917 181.995 67.7968 182.316 67.6324 182.604C67.468 182.891 67.2387 183.135 66.9629 183.317C66.4296 183.624 66.0029 183.317 66.0029 182.771C66.0201 182.439 66.1161 182.116 66.2831 181.828C66.45 181.541 66.6831 181.297 66.9629 181.117C67.4829 180.811 67.9095 181.051 67.9095 181.664Z" fill="url(#paint3_linear_189_1393)"/>
    <path d="M66.1898 181.024C66.1802 181.167 66.1378 181.304 66.0661 181.427C65.9944 181.549 65.8953 181.653 65.7765 181.731C65.7364 181.76 65.6884 181.777 65.6386 181.78C65.589 181.781 65.5397 181.769 65.497 181.744C65.4544 181.717 65.4202 181.68 65.3988 181.636C65.3773 181.591 65.3696 181.54 65.3765 181.491C65.3846 181.352 65.425 181.217 65.4945 181.097C65.564 180.977 65.6605 180.875 65.7765 180.797C66.0032 180.637 66.1898 180.771 66.1898 181.024Z" fill="#343433"/>
    <path d="M68.2424 179.797C68.2342 179.936 68.1938 180.072 68.1244 180.192C68.055 180.312 67.9584 180.415 67.8424 180.491C67.6157 180.624 67.4424 180.491 67.4424 180.264C67.4485 180.125 67.488 179.989 67.5576 179.869C67.6272 179.748 67.7249 179.647 67.8424 179.571C68.0957 179.437 68.2424 179.544 68.2424 179.797Z" fill="#343433"/>
    <path d="M68.9221 181.731C68.9171 181.872 68.8782 182.011 68.8085 182.133C68.7389 182.256 68.6407 182.361 68.5222 182.437C68.3089 182.557 68.1221 182.437 68.1221 182.197C68.1322 182.06 68.1735 181.925 68.2427 181.805C68.3121 181.685 68.4075 181.583 68.5222 181.504C68.7489 181.371 68.9221 181.477 68.9221 181.731Z" fill="#343433"/>
    <path d="M67.2834 184.091C67.2773 184.231 67.2378 184.367 67.1682 184.487C67.0985 184.608 67.0009 184.709 66.8833 184.784C66.6566 184.917 66.4834 184.784 66.4834 184.557C66.4894 184.419 66.5289 184.283 66.5985 184.163C66.6681 184.041 66.7658 183.94 66.8833 183.864C67.1099 183.731 67.2834 183.837 67.2834 184.091Z" fill="#343433"/>
    <path d="M65.6428 183.624C65.6368 183.764 65.5972 183.9 65.5276 184.02C65.458 184.141 65.3602 184.243 65.2428 184.317C65.0161 184.451 64.8428 184.317 64.8428 184.091C64.8488 183.952 64.8882 183.816 64.9578 183.696C65.0276 183.575 65.1252 183.473 65.2428 183.397C65.4294 183.304 65.6428 183.371 65.6428 183.624Z" fill="#343433"/>
    <path d="M66.7626 177.291C66.8462 177.448 66.8665 177.631 66.8193 177.801C66.7722 177.973 66.6613 178.12 66.5093 178.211C66.3394 178.267 66.1549 178.252 65.9952 178.172C65.8356 178.093 65.7137 177.953 65.656 177.784C65.6105 177.708 65.5806 177.624 65.5682 177.536C65.5557 177.449 65.5608 177.36 65.5832 177.275C65.6054 177.188 65.6446 177.108 65.6982 177.037C65.752 176.968 65.8192 176.908 65.896 176.864C66.0676 176.809 66.254 176.823 66.4158 176.903C66.5776 176.981 66.702 177.121 66.7626 177.291Z" fill="#343433"/>
    <path d="M68.9097 177.224C68.9097 177.624 68.7765 177.971 68.5499 177.997C68.3232 178.024 68.0965 177.691 68.0565 177.291C68.0165 176.891 68.1899 176.544 68.4299 176.517C68.6699 176.491 68.8831 176.811 68.9097 177.224Z" fill="#343433"/>
    <path d="M64.256 179.077C64.4169 179.175 64.5335 179.331 64.5808 179.513C64.6281 179.695 64.6025 179.888 64.5093 180.051C64.4388 180.18 64.3312 180.285 64.2004 180.352C64.0697 180.419 63.9219 180.445 63.776 180.427C63.6303 180.408 63.4932 180.347 63.3828 180.251C63.2723 180.153 63.1935 180.025 63.1564 179.884C63.1195 179.741 63.126 179.592 63.1752 179.453C63.2245 179.315 63.3141 179.195 63.4327 179.108C63.5512 179.02 63.6929 178.971 63.8399 178.967C63.9867 178.961 64.1316 179 64.256 179.077Z" fill="#343433"/>
    <path d="M62.5893 182.157C62.7709 182.157 62.9453 182.229 63.0749 182.356C63.2046 182.483 63.2791 182.656 63.2827 182.837C63.2471 183.013 63.1459 183.169 62.9999 183.273C62.8538 183.377 62.6737 183.421 62.4959 183.397C62.4055 183.4 62.3157 183.383 62.2317 183.349C62.1477 183.316 62.0711 183.267 62.0065 183.204C61.9419 183.14 61.8907 183.064 61.8557 182.981C61.8207 182.897 61.8026 182.808 61.8027 182.717C61.8353 182.54 61.9357 182.383 62.0825 182.279C62.2294 182.173 62.4111 182.131 62.5893 182.157Z" fill="#343433"/>
    <path d="M62.4699 184.944C62.6226 184.875 62.7964 184.865 62.9554 184.92C63.1142 184.975 63.246 185.088 63.3232 185.237C63.4032 185.517 63.1499 185.837 62.7632 185.957C62.6066 186.024 62.4307 186.029 62.2702 185.973C62.1098 185.916 61.9764 185.801 61.8966 185.651C61.8166 185.371 62.0699 185.051 62.4699 184.944Z" fill="#343433"/>
    <path d="M64.3232 186.517C64.5765 186.304 64.8432 186.197 64.9365 186.304C65.0299 186.41 64.9364 186.65 64.6297 186.864C64.3231 187.077 64.1099 187.17 64.0299 187.077C63.9499 186.984 64.0965 186.73 64.3232 186.517Z" fill="#343433"/>
    <path d="M75.3354 167.304C74.1754 165.411 71.4954 166.757 68.4287 168.437L72.0554 170.464C73.6687 171.384 74.722 173.384 74.722 176.237C74.722 176.317 74.722 176.397 74.722 176.464L76.9087 177.211C77.122 171.784 76.8287 169.731 75.3354 167.304Z" fill="#212020"/>
    <path d="M173.735 112.011L170.935 110.451C169.809 110.785 168.735 111.279 167.749 111.918C162.042 115.518 157.842 119.158 157.469 130.971L156.815 131.358L161.642 134.025C162.614 134.347 163.649 134.438 164.663 134.29C165.677 134.142 166.642 133.759 167.482 133.171C170.07 131.48 172.222 129.203 173.767 126.526C175.313 123.848 176.206 120.844 176.375 117.758C176.349 114.931 175.349 112.931 173.735 112.011Z" fill="#3A3939"/>
    <path d="M176.35 117.784C176.18 120.871 175.287 123.874 173.742 126.552C172.198 129.23 170.044 131.506 167.456 133.198C162.536 136.038 158.55 133.731 158.55 128.051C158.719 124.963 159.614 121.958 161.16 119.28C162.708 116.602 164.866 114.326 167.456 112.638C172.363 109.798 176.35 112.104 176.35 117.784Z" fill="#575656"/>
    <path d="M175.883 118.704C175.729 121.509 174.919 124.237 173.515 126.67C172.111 129.102 170.155 131.169 167.803 132.704C163.336 135.278 159.723 133.184 159.723 128.024C159.875 125.222 160.685 122.494 162.089 120.064C163.493 117.634 165.451 115.569 167.803 114.038C172.269 111.451 175.883 113.544 175.883 118.704Z" fill="#3A3939"/>
    <path d="M173.349 120.345C173.26 122.211 172.729 124.029 171.803 125.651C170.876 127.274 169.579 128.653 168.016 129.678C165.056 131.385 162.683 129.998 162.683 126.585C162.771 124.718 163.3 122.899 164.228 121.277C165.155 119.655 166.453 118.275 168.016 117.251C170.949 115.545 173.349 116.918 173.349 120.345Z" fill="url(#paint4_linear_189_1393)"/>
    <path d="M167.989 117.251C167.58 117.489 167.192 117.761 166.829 118.064L167.229 117.811C169.749 116.358 171.789 117.531 171.789 120.478C171.701 122.059 171.244 123.597 170.451 124.968C169.659 126.34 168.556 127.505 167.229 128.371C164.723 129.811 162.696 128.651 162.669 125.798C162.656 126.051 162.656 126.305 162.669 126.558C162.669 129.971 165.069 131.358 168.003 129.651C169.565 128.626 170.863 127.247 171.789 125.625C172.717 124.002 173.247 122.184 173.336 120.318C173.349 116.918 170.949 115.544 167.989 117.251Z" fill="url(#paint5_linear_189_1393)"/>
    <path d="M168.362 117.051C170.709 116.198 172.495 117.544 172.495 120.398C172.401 122.152 171.893 123.859 171.015 125.381C170.137 126.903 168.913 128.197 167.442 129.158C165.615 130.211 164.015 129.998 163.122 128.838C163.975 130.464 165.789 130.864 167.989 129.624C169.551 128.6 170.849 127.22 171.775 125.598C172.702 123.976 173.233 122.157 173.322 120.291C173.349 117.064 171.149 115.664 168.362 117.051Z" fill="url(#paint6_linear_189_1393)"/>
    <path d="M171.096 122.065C171.043 123.055 170.757 124.02 170.261 124.879C169.765 125.739 169.073 126.469 168.243 127.011C166.656 127.918 165.376 127.185 165.376 125.358C165.431 124.368 165.719 123.404 166.217 122.547C166.715 121.689 167.409 120.962 168.243 120.425C169.816 119.505 171.096 120.251 171.096 122.065Z" fill="#DBDBDA"/>
    <path d="M169.589 123.224C169.569 123.556 169.473 123.878 169.307 124.166C169.14 124.453 168.908 124.697 168.629 124.878C168.109 125.171 167.683 124.878 167.683 124.318C167.7 123.989 167.796 123.67 167.96 123.385C168.124 123.1 168.353 122.858 168.629 122.678C169.163 122.371 169.589 122.611 169.589 123.224Z" fill="url(#paint7_linear_189_1393)"/>
    <path d="M167.856 122.584C167.849 122.724 167.81 122.859 167.741 122.98C167.67 123.101 167.573 123.203 167.456 123.278C167.229 123.411 167.056 123.278 167.056 123.051C167.062 122.91 167.102 122.773 167.172 122.65C167.241 122.528 167.338 122.423 167.456 122.344C167.682 122.224 167.856 122.331 167.856 122.584Z" fill="#343433"/>
    <path d="M169.923 121.358C169.915 121.498 169.872 121.634 169.8 121.755C169.728 121.875 169.628 121.977 169.509 122.051C169.296 122.184 169.109 122.051 169.109 121.824C169.117 121.686 169.157 121.551 169.228 121.43C169.297 121.31 169.393 121.208 169.509 121.131C169.736 120.998 169.923 121.104 169.923 121.358Z" fill="#343433"/>
    <path d="M170.603 123.305C170.597 123.446 170.559 123.584 170.489 123.707C170.42 123.83 170.321 123.934 170.203 124.011C169.976 124.131 169.803 124.011 169.803 123.771C169.809 123.632 169.848 123.496 169.917 123.375C169.988 123.255 170.085 123.153 170.203 123.078C170.429 122.931 170.603 123.038 170.603 123.305Z" fill="#343433"/>
    <path d="M168.963 125.651C168.956 125.79 168.916 125.925 168.847 126.046C168.776 126.166 168.68 126.269 168.563 126.344C168.336 126.478 168.163 126.344 168.163 126.118C168.168 125.976 168.207 125.838 168.276 125.715C168.347 125.592 168.444 125.488 168.563 125.411C168.79 125.291 168.963 125.384 168.963 125.651Z" fill="#343433"/>
    <path d="M167.322 125.185C167.314 125.323 167.274 125.458 167.205 125.578C167.135 125.699 167.038 125.801 166.922 125.878C166.695 126.011 166.509 125.878 166.509 125.651C166.515 125.51 166.557 125.373 166.629 125.253C166.701 125.131 166.802 125.03 166.922 124.958C167.135 124.825 167.322 124.931 167.322 125.185Z" fill="#343433"/>
    <path d="M168.416 118.851C168.472 118.927 168.509 119.014 168.527 119.106C168.544 119.198 168.54 119.293 168.516 119.384C168.492 119.474 168.447 119.558 168.387 119.629C168.325 119.701 168.249 119.757 168.163 119.795C168.077 119.833 167.984 119.851 167.891 119.848C167.796 119.845 167.705 119.821 167.621 119.778C167.539 119.734 167.465 119.673 167.409 119.598C167.353 119.523 167.315 119.436 167.296 119.344C167.24 119.269 167.203 119.182 167.185 119.09C167.168 118.997 167.172 118.903 167.196 118.812C167.22 118.721 167.265 118.637 167.325 118.566C167.387 118.495 167.463 118.438 167.549 118.401C167.635 118.363 167.728 118.345 167.821 118.348C167.916 118.351 168.007 118.375 168.091 118.418C168.173 118.461 168.247 118.523 168.303 118.598C168.359 118.673 168.397 118.759 168.416 118.851Z" fill="#343433"/>
    <path d="M170.59 118.784C170.59 119.184 170.456 119.531 170.216 119.544C169.976 119.558 169.776 119.251 169.736 118.851C169.696 118.451 169.87 118.104 170.096 118.078C170.323 118.051 170.55 118.371 170.59 118.784Z" fill="#343433"/>
    <path d="M165.923 120.638C166.086 120.733 166.206 120.888 166.255 121.07C166.306 121.252 166.282 121.446 166.19 121.611C166.138 121.689 166.071 121.755 165.992 121.806C165.915 121.857 165.827 121.893 165.735 121.91C165.644 121.928 165.55 121.927 165.458 121.907C165.367 121.888 165.28 121.851 165.203 121.798C165.05 121.702 164.94 121.55 164.899 121.373C164.858 121.197 164.888 121.012 164.983 120.858C165.079 120.704 165.231 120.594 165.407 120.553C165.584 120.512 165.77 120.542 165.923 120.638Z" fill="#343433"/>
    <path d="M164.269 123.718C164.449 123.718 164.622 123.79 164.75 123.917C164.877 124.045 164.949 124.218 164.949 124.398C164.905 124.568 164.802 124.718 164.658 124.82C164.516 124.922 164.341 124.97 164.165 124.955C163.99 124.941 163.825 124.865 163.7 124.741C163.576 124.617 163.498 124.453 163.482 124.278C163.497 124.189 163.529 124.105 163.577 124.028C163.624 123.952 163.686 123.886 163.76 123.834C163.832 123.782 163.914 123.745 164.002 123.725C164.09 123.705 164.181 123.703 164.269 123.718Z" fill="#343433"/>
    <path d="M164.096 126.491C164.496 126.384 164.87 126.491 164.95 126.798C165.03 127.104 164.79 127.398 164.39 127.504C164.238 127.575 164.063 127.583 163.904 127.529C163.746 127.474 163.614 127.36 163.536 127.211C163.496 126.931 163.75 126.611 164.096 126.491Z" fill="#343433"/>
    <path d="M166.002 128.064C166.256 127.864 166.522 127.758 166.602 127.864C166.682 127.971 166.602 128.211 166.309 128.424C166.016 128.638 165.789 128.731 165.709 128.638C165.629 128.544 165.749 128.278 166.002 128.064Z" fill="#343433"/>
    <path d="M177.217 113.144C176.737 111.518 174.63 109.438 170.937 110.478L173.737 112.038C174.562 112.599 175.231 113.358 175.686 114.245C176.141 115.133 176.365 116.121 176.337 117.118L177.31 117.264C177.558 115.899 177.526 114.497 177.217 113.144Z" fill="#212020"/>
    <path d="M198.763 90.7045L198.643 74.7045C198.643 74.7045 196.216 55.3044 195.55 49.5444C194.883 43.7844 193.51 43.6379 191.816 42.6379L155.63 21.0245L154.296 20.2911C153.228 19.903 152.058 19.903 150.99 20.2911L55.7497 75.3045C50.163 78.5712 48.4697 79.9445 46.843 82.2512L34.003 100.478C34.003 100.478 15.643 129.331 14.003 132.131C12.363 134.931 7.06968 144.438 7.06968 144.438C5.01838 147.158 3.74211 150.384 3.37636 153.771C2.89636 158.024 2.54968 163.704 4.36302 168.224C6.17635 172.744 10.7764 176.064 18.563 180.744C26.3497 185.424 35.683 190.077 42.1497 190.557C45.8394 190.897 49.5559 190.329 52.9763 188.904L53.1363 188.824C54.2123 185.403 55.4629 182.039 56.883 178.744C58.6893 175.109 61.5833 172.127 65.163 170.211C69.4697 168.117 73.7763 164.797 75.3363 167.344C76.8963 169.891 77.123 171.851 76.8563 177.277L157.43 130.984C157.803 119.171 162.003 115.531 167.71 111.931C173.416 108.331 176.563 111.105 177.176 113.158C177.487 114.552 177.514 115.993 177.256 117.398C181.256 115.065 195.803 106.371 197.35 104.678C199.136 102.718 199.536 95.8644 199.643 93.6511C199.738 93.1253 199.708 92.5845 199.555 92.0727C199.402 91.5607 199.131 91.092 198.763 90.7045Z" fill="white"/>
    <path d="M197.429 104.638C199.216 102.678 199.616 95.8245 199.723 93.6111C199.817 93.0885 199.788 92.551 199.637 92.0415C199.487 91.5322 199.22 91.0651 198.856 90.6778L198.736 74.6778C198.736 74.6778 196.309 55.2778 195.643 49.5178C195.543 47.9421 195.173 46.3951 194.549 44.9445C194.549 44.9445 193.883 43.6111 190.376 45.7178C186.869 47.8245 95.4293 100.638 95.4293 100.638C91.4593 103.519 88.12 107.18 85.616 111.398C81.1627 118.691 76.4293 127.798 76.4293 127.798L61.8827 153.291L54.6827 163.664C53.1627 165.824 47.1493 167.264 47.1493 167.264C47.1493 167.264 44.856 181.931 45.3093 190.517C47.9473 190.429 50.5464 189.856 52.976 188.824L53.136 188.744C54.2119 185.323 55.4624 181.959 56.8827 178.664C58.6888 175.029 61.5829 172.047 65.1627 170.131C69.4693 168.037 73.776 164.717 75.336 167.264C76.896 169.811 77.1227 171.771 76.856 177.197L157.429 130.984C157.803 119.171 162.003 115.531 167.709 111.931C173.416 108.331 176.563 111.104 177.176 113.158C177.487 114.552 177.513 115.993 177.256 117.398C181.243 115.051 195.843 106.358 197.429 104.638Z" fill="#E5E5E5"/>
    <path d="M47.1491 167.304C48.3477 167 49.5275 166.627 50.6825 166.184L51.0691 164.851C51.7846 164.951 52.5074 164.987 53.2291 164.958C53.6153 164.73 53.9733 164.456 54.2958 164.144C53.9225 163.318 51.6291 161.704 45.2425 158.664C34.5141 153.591 24.3323 147.435 14.8558 140.291C13.4846 139.268 12.3481 137.963 11.5225 136.465C9.45582 140.131 7.06914 144.465 7.06914 144.465C5.01785 147.185 3.74157 150.41 3.37582 153.798C3.08634 156.151 2.96602 158.522 3.01582 160.891C9.67921 166.343 16.7238 171.311 24.0958 175.758C36.8691 183.491 42.9758 181.611 45.6958 179.318C46.2558 172.958 47.1491 167.304 47.1491 167.304Z" fill="white"/>
    <path style="mix-blend-mode:screen" opacity="0.5" d="M75.6826 160.544L72.8692 160.011L57.0293 168.304L58.0426 169.464C58.0426 169.464 65.8426 165.251 69.416 163.384C72.9893 161.517 77.256 160.317 78.8426 164.717C79.5717 166.817 80.0724 168.991 80.336 171.197C80.2426 169.597 79.5626 161.584 75.6826 160.544Z" fill="url(#paint8_linear_189_1393)"/>
    <path style="mix-blend-mode:screen" opacity="0.5" d="M80.3496 171.371C80.3529 171.327 80.3529 171.283 80.3496 171.237C80.3496 171.411 80.3496 171.531 80.3496 171.531V171.371Z" fill="url(#paint9_linear_189_1393)"/>
    <path d="M195.336 88.8513L85.2297 152.051C85.2297 152.051 59.7897 165.557 57.2297 166.717C53.4831 168.792 49.1639 169.592 44.923 168.997C39.283 168.091 30.5897 163.664 24.043 159.744C17.4963 155.824 11.2963 151.265 8.8163 148.545C7.83662 147.451 7.1044 146.16 6.66964 144.758C6.58076 144.873 6.48744 145.007 6.38965 145.158C6.78026 146.937 7.61509 148.589 8.8163 149.958C11.2963 152.625 17.5097 157.184 24.043 161.144C30.5763 165.104 39.283 169.491 44.923 170.397C49.1639 170.992 53.4831 170.192 57.2297 168.117C59.723 166.917 85.2297 153.451 85.2297 153.451L193.763 90.7845L195.336 88.8513Z" fill="#D8D8D8"/>
    <g style="mix-blend-mode:overlay">
        <g style="mix-blend-mode:overlay">
            <path d="M152.923 25.8245C152.888 25.8619 152.848 25.8935 152.803 25.9178L63.7097 77.5444C63.5737 77.6068 63.426 77.6391 63.2764 77.6391C63.1268 77.6391 62.9789 77.6068 62.8431 77.5444L61.6431 76.9711C61.5879 76.9512 61.5379 76.9193 61.4964 76.8777C61.4031 76.9977 61.4964 77.1444 61.6431 77.2377L62.8431 77.7977C62.9789 77.8601 63.1268 77.8924 63.2764 77.8924C63.426 77.8924 63.5737 77.8601 63.7097 77.7977L152.803 26.1578C152.976 26.0778 153.016 25.9711 152.923 25.8245Z" fill="white"/>
        </g>
        <g style="mix-blend-mode:overlay">
            <path d="M156.309 27.8245L156.203 27.9311L67.0961 79.5579C66.9591 79.6169 66.8117 79.6473 66.6626 79.6473C66.5137 79.6473 66.3662 79.6169 66.2294 79.5579L65.0294 78.9844L64.8961 78.8912C64.7894 79.0112 64.8961 79.1577 65.0294 79.2377L66.2294 79.8112C66.3662 79.8703 66.5137 79.9007 66.6626 79.9007C66.8117 79.9007 66.9591 79.8703 67.0961 79.8112L156.203 28.1711C156.376 28.0778 156.416 27.9445 156.309 27.8245Z" fill="white"/>
        </g>
        <g style="mix-blend-mode:overlay">
            <path d="M159.643 29.9712C159.614 30.0086 159.578 30.0403 159.537 30.0645L70.4301 81.7046C70.2941 81.7669 70.1462 81.7991 69.9968 81.7991C69.8472 81.7991 69.6994 81.7669 69.5634 81.7046L68.3634 81.1446C68.314 81.1157 68.269 81.0798 68.2301 81.0379C68.1368 81.1579 68.2301 81.3046 68.3634 81.3979L69.5634 81.9711C69.7001 82.031 69.8476 82.0619 69.9968 82.0619C70.1458 82.0619 70.2934 82.031 70.4301 81.9711L159.537 30.3312C159.71 30.1579 159.75 29.9712 159.643 29.9712Z" fill="white"/>
        </g>
        <g style="mix-blend-mode:overlay">
            <path d="M163.123 31.9045C163.089 31.942 163.049 31.9735 163.003 31.9979L73.8969 83.6378C73.7634 83.7009 73.6177 83.7334 73.4702 83.7334C73.3226 83.7334 73.1769 83.7009 73.0436 83.6378L71.8302 83.0778C71.7808 83.049 71.7358 83.0132 71.6969 82.9712C71.6036 83.0912 71.6969 83.238 71.8302 83.3313L73.0436 83.9045C73.1778 83.9641 73.3233 83.9949 73.4702 83.9949C73.6172 83.9949 73.7625 83.9641 73.8969 83.9045L163.003 32.2646C163.177 32.1579 163.217 32.0112 163.123 31.9045Z" fill="white"/>
        </g>
        <g style="mix-blend-mode:overlay">
            <path d="M166.563 33.9709C166.528 34.0084 166.488 34.04 166.443 34.0644L77.3494 85.7044C77.2134 85.7667 77.0656 85.799 76.916 85.799C76.7664 85.799 76.6187 85.7667 76.4827 85.7044L75.2827 85.1444C75.2283 85.1235 75.1816 85.0863 75.1494 85.0378C75.0427 85.171 75.0827 85.3044 75.2827 85.3977L76.4827 85.9709C76.6195 86.0301 76.767 86.0605 76.916 86.0605C77.0651 86.0605 77.2126 86.0301 77.3494 85.9709L166.443 34.3443C166.629 34.1576 166.656 33.9709 166.563 33.9709Z" fill="white"/>
        </g>
        <g style="mix-blend-mode:overlay">
            <path d="M170.123 36.011C170.09 36.0493 170.049 36.081 170.003 36.1045L80.8969 87.7443C80.7599 87.8035 80.6125 87.8339 80.4634 87.8339C80.3145 87.8339 80.167 87.8035 80.0302 87.7443L78.8301 87.171L78.6969 87.0776C78.5902 87.1976 78.6968 87.3443 78.8301 87.4243L80.0302 87.9978C80.1661 88.0601 80.3139 88.0923 80.4634 88.0923C80.613 88.0923 80.7609 88.0601 80.8969 87.9978L170.003 36.3711C170.177 36.2645 170.217 36.1177 170.123 36.011Z" fill="white"/>
        </g>
        <g style="mix-blend-mode:overlay">
            <path d="M173.43 37.9709C173.399 38.0121 173.358 38.0443 173.31 38.0644L84.2035 89.7044C84.0691 89.7639 83.9238 89.7947 83.7769 89.7947C83.6299 89.7947 83.4845 89.7639 83.3502 89.7044L82.1369 89.131L82.0035 89.0378C81.9102 89.1578 82.0035 89.3044 82.1369 89.3977L83.3502 89.9577C83.4827 90.0235 83.6289 90.0578 83.7769 90.0578C83.9249 90.0578 84.0709 90.0235 84.2035 89.9577L173.43 38.3711C173.537 38.2644 173.577 38.1309 173.43 37.9709Z" fill="white"/>
        </g>
        <g style="mix-blend-mode:overlay">
            <path d="M177.096 40.1577C177.065 40.1989 177.024 40.231 176.976 40.2512L87.8696 91.8912C87.7352 91.9506 87.5898 91.9814 87.4429 91.9814C87.296 91.9814 87.1505 91.9506 87.0162 91.8912L85.8029 91.3177L85.6696 91.2245C85.5762 91.3445 85.6696 91.491 85.8029 91.571L87.0162 92.1445C87.1488 92.2102 87.2949 92.2445 87.4429 92.2445C87.5909 92.2445 87.7369 92.2102 87.8696 92.1445L176.976 40.5178C177.149 40.4112 177.189 40.2777 177.096 40.1577Z" fill="white"/>
        </g>
        <g style="mix-blend-mode:overlay">
            <path d="M180.656 42.1711C180.627 42.2086 180.591 42.2402 180.549 42.2645L91.4428 93.9711C91.3068 94.0335 91.159 94.0658 91.0094 94.0658C90.8598 94.0658 90.712 94.0335 90.5761 93.9711L89.3761 93.4111C89.3237 93.3869 89.278 93.3502 89.2428 93.3045C89.1361 93.4378 89.2428 93.5713 89.3761 93.6646L90.5761 94.2378C90.7126 94.2977 90.8602 94.3286 91.0094 94.3286C91.1585 94.3286 91.3061 94.2977 91.4428 94.2378L180.549 42.5978C180.723 42.4245 180.763 42.2778 180.656 42.1711Z" fill="white"/>
        </g>
        <g style="mix-blend-mode:overlay">
            <path d="M184.216 44.1445C184.182 44.1819 184.142 44.2135 184.096 44.2377L94.9897 95.8644C94.8571 95.9303 94.711 95.9645 94.563 95.9645C94.415 95.9645 94.269 95.9303 94.1363 95.8644L92.923 95.3044C92.8737 95.2756 92.8287 95.2396 92.7897 95.1977C92.6963 95.3311 92.7897 95.4645 92.923 95.5579L94.1363 96.1311C94.2707 96.1907 94.4161 96.2215 94.563 96.2215C94.7099 96.2215 94.8554 96.1907 94.9897 96.1311L184.096 44.4911C184.27 44.3977 184.31 44.2512 184.216 44.1445Z" fill="white"/>
        </g>
    </g>
    <path d="M61.4966 76.918C61.5277 76.8768 61.5692 76.8447 61.6166 76.8246L150.763 25.1846C150.898 25.1251 151.043 25.0943 151.19 25.0943C151.337 25.0943 151.482 25.1251 151.617 25.1846L152.83 25.7579C152.882 25.7823 152.929 25.8189 152.963 25.8646C153.057 25.7313 152.963 25.5846 152.83 25.5046L151.617 24.9313C151.483 24.8683 151.338 24.8357 151.19 24.8357C151.042 24.8357 150.897 24.8683 150.763 24.9313L61.6566 76.558C61.43 76.638 61.43 76.8114 61.4966 76.918Z" fill="#E1E8EC"/>
    <path d="M64.896 78.9308C64.9272 78.8898 64.9686 78.8576 65.016 78.8375L154.109 27.1976C154.247 27.1385 154.393 27.108 154.543 27.108C154.692 27.108 154.839 27.1385 154.976 27.1976L156.176 27.7709C156.227 27.7922 156.272 27.824 156.309 27.8642C156.416 27.7442 156.309 27.5976 156.176 27.5042L154.976 26.9442C154.841 26.8783 154.693 26.844 154.543 26.844C154.392 26.844 154.244 26.8783 154.109 26.9442L65.016 78.5708C64.8294 78.6775 64.8027 78.8108 64.896 78.9308Z" fill="#E1E8EC"/>
    <path d="M68.2292 80.9978C68.2638 80.9603 68.3044 80.9287 68.3492 80.9043L157.429 29.2644C157.565 29.2021 157.713 29.1698 157.862 29.1698C158.012 29.1698 158.16 29.2021 158.296 29.2644L159.496 29.8244C159.55 29.8452 159.597 29.8825 159.629 29.9311C159.736 29.7977 159.629 29.6644 159.496 29.5711L158.296 28.9977C158.158 28.9387 158.012 28.9082 157.862 28.9082C157.713 28.9082 157.566 28.9387 157.429 28.9977L68.3492 80.6377C68.1625 80.7443 68.0958 80.8911 68.2292 80.9978Z" fill="#E1E8EC"/>
    <path d="M71.6965 82.9979C71.7311 82.9604 71.7717 82.9288 71.8165 82.9044L160.923 31.3045C161.056 31.2415 161.202 31.2089 161.35 31.2089C161.498 31.2089 161.643 31.2415 161.776 31.3045L162.99 31.8645C163.04 31.8924 163.084 31.9285 163.123 31.9711C163.216 31.8378 163.123 31.7045 162.99 31.6111L161.776 31.0378C161.642 30.9783 161.496 30.9475 161.35 30.9475C161.203 30.9475 161.058 30.9783 160.923 31.0378L71.8165 82.6777C71.6431 82.7444 71.6031 82.8912 71.6965 82.9979Z" fill="#E1E8EC"/>
    <path d="M75.1497 84.9979C75.1791 84.9604 75.2153 84.9287 75.2563 84.9044L164.363 33.2778C164.498 33.2119 164.646 33.1776 164.796 33.1776C164.947 33.1776 165.095 33.2119 165.23 33.2778L166.43 33.8512C166.483 33.8676 166.53 33.9003 166.563 33.9444C166.67 33.8244 166.563 33.6779 166.43 33.5846L165.23 33.0112C165.092 32.9521 164.946 32.9216 164.796 32.9216C164.647 32.9216 164.5 32.9521 164.363 33.0112L75.2563 84.6378C75.083 84.7444 75.043 84.8912 75.1497 84.9979Z" fill="#E1E8EC"/>
    <path d="M78.7626 87.1176C78.7963 87.0756 78.8368 87.0396 78.8826 87.0109L167.976 35.3842C168.112 35.322 168.26 35.2897 168.409 35.2897C168.559 35.2897 168.707 35.322 168.843 35.3842L170.043 35.9577C170.097 35.9776 170.148 36.0094 170.189 36.0509C170.283 35.9309 170.189 35.7842 170.043 35.6909L168.843 35.1309C168.707 35.0686 168.559 35.0364 168.409 35.0364C168.26 35.0364 168.112 35.0686 167.976 35.1309L78.7626 86.7576C78.6292 86.8642 78.6026 86.9976 78.7626 87.1176Z" fill="#E1E8EC"/>
    <path d="M82.0558 89.1175C82.0869 89.0765 82.1284 89.0443 82.1758 89.0242L171.282 37.3842C171.417 37.3247 171.562 37.2939 171.709 37.2939C171.856 37.2939 172.001 37.3247 172.136 37.3842L173.349 37.9577L173.482 38.0509C173.576 37.9309 173.482 37.7843 173.349 37.7043L172.136 37.1309C172.002 37.0679 171.857 37.0354 171.709 37.0354C171.561 37.0354 171.416 37.0679 171.282 37.1309L82.1758 88.7575C82.0025 88.8642 81.9625 88.9975 82.0558 89.1175Z" fill="#E1E8EC"/>
    <path d="M85.6691 91.3045C85.7028 91.2625 85.7434 91.2265 85.7891 91.1979L174.896 39.5712C175.029 39.5083 175.174 39.4757 175.322 39.4757C175.47 39.4757 175.616 39.5083 175.749 39.5712L176.962 40.1447L177.096 40.2379C177.189 40.1179 177.096 39.9712 176.962 39.8779L175.749 39.3179C175.616 39.2549 175.47 39.2224 175.322 39.2224C175.174 39.2224 175.029 39.2549 174.896 39.3179L85.7891 90.9045C85.6158 91.0112 85.5758 91.1445 85.6691 91.3045Z" fill="#E1E8EC"/>
    <path d="M89.2428 93.2643C89.2773 93.227 89.318 93.1954 89.3628 93.171L178.469 41.531C178.603 41.4681 178.748 41.4355 178.896 41.4355C179.044 41.4355 179.189 41.4681 179.323 41.531L180.536 42.091C180.581 42.1197 180.623 42.1557 180.656 42.1977C180.763 42.0777 180.723 41.931 180.536 41.8377L179.323 41.2643C179.188 41.2049 179.043 41.1741 178.896 41.1741C178.749 41.1741 178.604 41.2049 178.469 41.2643L89.4294 92.9178C89.1894 93.0111 89.1494 93.1577 89.2428 93.2643Z" fill="#E1E8EC"/>
    <path d="M92.7892 95.3044C92.8239 95.267 92.8644 95.2354 92.9092 95.211L182.016 43.571C182.149 43.5081 182.295 43.4756 182.443 43.4756C182.591 43.4756 182.736 43.5081 182.869 43.571L184.083 44.131C184.132 44.159 184.177 44.1952 184.216 44.2377C184.309 44.1044 184.216 43.971 184.083 43.8777L182.869 43.3044C182.735 43.2449 182.589 43.2141 182.443 43.2141C182.296 43.2141 182.151 43.2449 182.016 43.3044L92.9092 94.9444C92.7359 94.9844 92.6959 95.131 92.7892 95.3044Z" fill="#E1E8EC"/>
    <g style="mix-blend-mode:multiply" opacity="0.1">
        <path d="M98.5892 136.318L97.736 116.451C97.7408 116.16 97.8161 115.875 97.9555 115.619C98.0948 115.364 98.294 115.146 98.5359 114.984L193.136 60.7311C193.25 60.6668 193.378 60.6303 193.509 60.6244C193.47 60.5511 193.416 60.4871 193.349 60.4368C193.284 60.3867 193.206 60.3515 193.126 60.3338C193.045 60.316 192.961 60.3162 192.88 60.334C192.798 60.352 192.722 60.3874 192.656 60.4378L98.0693 114.691C97.8256 114.852 97.6244 115.069 97.4828 115.325C97.3412 115.58 97.2633 115.866 97.2559 116.158L98.1093 136.024C98.1093 136.411 98.3493 136.638 98.656 136.624C98.6123 136.528 98.5895 136.423 98.5892 136.318Z" fill="black"/>
    </g>
    <g style="mix-blend-mode:overlay">
        <path d="M193.589 60.9313C193.589 60.518 193.296 60.2914 192.962 60.3314C192.97 60.4022 192.97 60.4738 192.962 60.5446L194.042 80.1713C194.054 80.459 193.99 80.7448 193.857 80.9998C193.724 81.2549 193.525 81.4705 193.282 81.6248L98.3624 136.131C98.2802 136.182 98.19 136.218 98.0957 136.238C98.2024 136.611 98.549 136.745 98.949 136.505L193.909 81.9713C194.152 81.8158 194.35 81.6005 194.486 81.346C194.621 81.0914 194.689 80.8062 194.682 80.518L193.589 60.9313Z" fill="white"/>
    </g>
    <g style="mix-blend-mode:overlay">
        <path d="M191.016 50.4777L164.789 65.6644L138.523 80.7711L112.256 95.8911L99.1226 103.438L95.8427 105.331C94.7832 105.978 93.8108 106.757 92.9493 107.651C91.1757 109.433 89.6386 111.437 88.376 113.611C89.4202 111.289 90.8441 109.158 92.5893 107.304C93.0293 106.833 93.4968 106.387 93.9893 105.971C94.4801 105.549 95.0065 105.169 95.5626 104.838L98.8427 102.944L111.963 95.3711L138.216 80.2244L164.469 65.0909L190.763 49.9709L191.016 50.4777Z" fill="white"/>
    </g>
    <g style="mix-blend-mode:overlay">
        <path d="M85.2301 153.451C85.2301 153.451 79.2968 156.611 72.8701 159.997L75.6835 160.531L195.337 91.7312L193.763 90.7844L85.2301 153.451Z" fill="white"/>
    </g>
    <g style="mix-blend-mode:screen" opacity="0.5">
        <g style="mix-blend-mode:screen" opacity="0.5">
            <path style="mix-blend-mode:screen" opacity="0.5" d="M154.176 129.784C154.176 129.704 154.069 127.784 156.082 121.491C158.176 114.944 161.776 111.678 167.269 108.238C172.762 104.798 176.762 105.944 176.922 105.998L176.696 106.651C176.696 106.651 172.989 105.491 167.642 108.824C162.296 112.158 158.776 115.344 156.736 121.691C154.789 127.798 154.869 129.691 154.869 129.691L154.176 129.784Z" fill="url(#paint10_linear_189_1393)"/>
        </g>
    </g>
    <g style="mix-blend-mode:overlay" opacity="0.3">
        <path d="M92.8161 120.465H92.7361C92.8091 120.815 92.836 121.174 92.8161 121.531C92.6961 124.105 92.3628 134.678 90.7228 138.145C88.2161 143.478 80.9628 148.945 70.9895 153.358L66.0828 155.838C65.9265 155.882 65.7651 155.904 65.6028 155.904C65.0828 155.904 64.3495 155.664 64.5761 154.224C64.2428 155.424 63.8295 157.438 64.5761 158.144C65.6028 159.184 69.4161 156.678 72.9095 154.691C76.4028 152.705 89.1361 146.918 91.7228 139.838C94.3095 132.758 93.0295 120.798 92.8161 120.465Z" fill="white"/>
    </g>
    <g style="mix-blend-mode:multiply" opacity="0.1">
        <path d="M154.092 131.021L80.7363 173.083L80.9089 173.384L154.265 131.322L154.092 131.021Z" fill="black"/>
    </g>
    <path d="M74.9095 96.7712L64.7761 111.438C64.6213 111.601 64.5037 111.795 64.4317 112.008C64.3597 112.221 64.3349 112.447 64.3589 112.67C64.3831 112.893 64.4556 113.109 64.5713 113.301C64.6872 113.494 64.8435 113.659 65.0295 113.784C66.4295 114.758 71.6028 117.611 71.6028 117.611C71.6028 117.611 73.7228 118.238 74.6695 116.784C75.6161 115.331 85.3361 102.038 85.3361 102.038L74.8428 118.878C74.3304 119.595 73.5825 120.109 72.7296 120.331C71.8767 120.553 70.9728 120.468 70.1761 120.091C67.8296 119.083 65.5952 117.832 63.5095 116.358C63.5095 116.358 60.5628 115.025 63.2161 111.438C65.8695 107.851 74.9095 96.7712 74.9095 96.7712Z" fill="url(#paint11_linear_189_1393)" style="mix-blend-mode:overlay"/>
    <g style="mix-blend-mode:multiply" opacity="0.5">
        <path d="M74.9095 96.7712L64.7761 111.438C64.6213 111.601 64.5037 111.795 64.4317 112.008C64.3597 112.221 64.3349 112.447 64.3589 112.67C64.3831 112.893 64.4556 113.109 64.5713 113.301C64.6872 113.494 64.8435 113.659 65.0295 113.784C66.4295 114.758 71.6028 117.611 71.6028 117.611C71.6028 117.611 73.7228 118.238 74.6695 116.784C75.6161 115.331 85.3361 102.038 85.3361 102.038L74.8428 118.878C74.3304 119.595 73.5825 120.109 72.7296 120.331C71.8767 120.553 70.9728 120.468 70.1761 120.091C67.8296 119.083 65.5952 117.832 63.5095 116.358C63.5095 116.358 60.5628 115.025 63.2161 111.438C65.8695 107.851 74.9095 96.7712 74.9095 96.7712Z" fill="#D9D9D9"/>
    </g>
    <path d="M52.6691 83.3977L42.5491 98.0644C42.3934 98.2273 42.2749 98.4222 42.2017 98.6354C42.1285 98.8488 42.1025 99.0753 42.1253 99.2996C42.1481 99.524 42.2193 99.7406 42.3338 99.9348C42.4485 100.129 42.6038 100.296 42.7891 100.424C44.1891 101.398 49.3624 104.251 49.3624 104.251C49.3624 104.251 51.4825 104.878 52.4425 103.424C53.4025 101.971 63.1091 88.6776 63.1091 88.6776L52.6158 105.504C52.107 106.226 51.3589 106.743 50.5046 106.965C49.6502 107.188 48.7449 107.1 47.9491 106.718C45.6042 105.706 43.3702 104.455 41.2824 102.984C41.2824 102.984 38.3358 101.651 41.0025 98.0644C43.6691 94.4777 52.6691 83.3977 52.6691 83.3977Z" fill="url(#paint12_linear_189_1393)" style="mix-blend-mode:overlay"/>
    <g style="mix-blend-mode:multiply" opacity="0.5">
        <path d="M52.6691 83.3977L42.5491 98.0644C42.3934 98.2273 42.2749 98.4222 42.2017 98.6354C42.1285 98.8488 42.1025 99.0753 42.1253 99.2996C42.1481 99.524 42.2193 99.7406 42.3338 99.9348C42.4485 100.129 42.6038 100.296 42.7891 100.424C44.1891 101.398 49.3624 104.251 49.3624 104.251C49.3624 104.251 51.4825 104.878 52.4425 103.424C53.4025 101.971 63.1091 88.6776 63.1091 88.6776L52.6158 105.504C52.107 106.226 51.3589 106.743 50.5046 106.965C49.6502 107.188 48.7449 107.1 47.9491 106.718C45.6042 105.706 43.3702 104.455 41.2824 102.984C41.2824 102.984 38.3358 101.651 41.0025 98.0644C43.6691 94.4777 52.6691 83.3977 52.6691 83.3977Z" fill="#D9D9D9"/>
    </g>
    <path d="M91.8167 119.598C91.6695 119.599 91.5242 119.63 91.3901 119.691C91.3901 119.691 85.4967 122.838 82.7367 124.611C80.8151 125.957 79.1415 127.626 77.7901 129.544C77.7901 129.544 65.7901 150.198 64.8034 153.384C64.0701 155.597 64.9901 155.931 65.6034 155.931C65.7657 155.931 65.9271 155.908 66.0834 155.864L70.9901 153.384C80.9634 148.971 88.2167 143.504 90.7234 138.171C92.3634 134.704 92.6967 124.131 92.8167 121.558C92.8834 119.891 92.2567 119.598 91.8167 119.598Z" fill="#141C1E"/>
    <path d="M80.4431 127.678C79.7503 128.411 79.1088 129.19 78.5231 130.011C76.7231 133.104 74.2164 137.504 71.8564 141.691V152.038C74.579 150.792 77.2159 149.366 79.7498 147.771L80.4431 127.678Z" fill="#303E42"/>
    <path d="M91.8164 120.465H91.7364C91.1364 120.785 85.7631 123.678 83.1897 125.318C82.5976 125.72 82.036 126.166 81.5096 126.651L80.8164 147.091C85.3231 144.078 88.5097 140.878 89.9497 137.758C91.3897 134.638 91.8029 125.171 91.9229 122.051V121.465C91.9817 121.128 91.9448 120.781 91.8164 120.465Z" fill="#303E42"/>
    <path d="M73.5233 125.051C71.5233 124.078 56.27 115.558 50.8566 112.011C45.4433 108.464 35.4833 102.211 35.4833 102.211C35.1956 101.992 34.845 101.87 34.4833 101.864C33.9633 101.864 33.31 102.144 32.6833 103.198C31.35 105.424 17.71 127.118 17.71 127.118C18.7529 130.053 20.6353 132.617 23.1233 134.491C30.8785 140.517 39.2496 145.706 48.0966 149.971C51.21 151.554 54.6218 152.462 58.11 152.638C58.8516 152.673 59.5934 152.569 60.2966 152.331L74.7633 127.504C74.7633 127.504 75.5366 125.971 73.5233 125.051Z" fill="#141C1E"/>
    <path d="M73.1491 125.825C71.0291 124.785 55.8158 116.265 50.4025 112.731C44.9891 109.198 35.1491 103.011 35.0558 102.945H34.9891C34.855 102.854 34.6977 102.803 34.5358 102.798C34.1091 102.798 33.7225 103.291 33.4825 103.705C32.2558 105.785 21.3358 123.305 19.5225 126.185C19.8825 127.145 21.6691 129.491 25.0558 132.265C32.6382 138.043 40.8077 143.009 49.4291 147.078C54.1625 149.251 57.2025 150.158 58.9891 150.158C59.6377 150.109 60.2755 149.965 60.8825 149.731L74.0958 127.065C74.1358 126.878 74.1891 126.331 73.1491 125.825Z" fill="#303E42"/>
    <path d="M48.0957 149.971C39.2763 145.702 30.9323 140.513 23.2023 134.491C20.7143 132.617 18.8319 130.053 17.789 127.118C17.789 127.118 15.8423 131.118 17.789 133.985C19.7357 136.851 29.4157 143.238 33.2957 145.678C37.1757 148.118 49.389 154.224 52.309 154.664C55.229 155.104 59.7757 153.265 60.309 152.358C60.2423 152.358 56.6423 153.971 48.0957 149.971Z" fill="#4D585A"/>
    <g opacity="0.7">
        <path opacity="0.7" d="M35.5896 103.304L35.0563 102.971H34.9896C34.8555 102.88 34.6982 102.829 34.5363 102.824C34.1096 102.824 33.723 103.318 33.483 103.731C32.883 104.745 29.9763 109.438 26.9496 114.304L26.5763 122.691C26.5763 122.691 26.363 123.611 31.9096 120.131L35.5896 103.304Z" fill="#C5D0D3"/>
        <path opacity="0.7" d="M36.6298 103.931L33.2432 119.145L33.4032 119.051C37.483 116.22 40.7364 112.354 42.8298 107.851C40.3898 106.291 38.0832 104.851 36.6298 103.931Z" fill="#C5D0D3"/>
    </g>
    <path d="M25.0298 132.198C32.6176 138.001 40.7962 142.989 49.4298 147.078C54.1631 149.251 57.2031 150.158 58.9898 150.158C59.6383 150.109 60.2762 149.965 60.8831 149.731L64.3498 143.784C58.3928 138.754 52.0087 134.252 45.2698 130.331C39.2079 126.909 32.9778 123.794 26.6031 120.998L19.5098 126.078C19.8564 127.078 21.6431 129.424 25.0298 132.198Z" fill="#39464A"/>
    <path d="M67.0025 139.185C66.3492 137.145 64.2027 135.531 61.936 134.398C60.9441 133.924 59.8303 133.769 58.7467 133.953C57.6632 134.137 56.6628 134.651 55.8825 135.424C54.1937 137.378 52.6476 139.45 51.2559 141.625C49.7892 143.758 57.6159 147.158 59.9625 146.665C61.2661 146.314 62.5013 145.746 63.616 144.984L67.0025 139.185Z" fill="#3D4B4F"/>
    <path opacity="0.2" d="M50.4025 112.731C45.0691 109.225 35.1491 103.011 35.0558 102.945H34.9891C34.855 102.854 34.6977 102.803 34.5358 102.798C34.1091 102.798 33.7225 103.291 33.4825 103.705C32.2558 105.785 21.3358 123.305 19.5225 126.185C20.6307 128.131 22.1017 129.846 23.8558 131.238C31.7863 122.995 41.8859 117.161 52.9891 114.411C51.9758 113.745 51.1091 113.185 50.4025 112.731Z" fill="white"/>
    <path d="M57.0298 168.304C53.3615 170.283 49.1563 171.035 45.0298 170.451C39.3898 169.544 30.6965 165.117 24.1498 161.197C17.6031 157.277 11.4031 152.718 8.92306 150.011C7.72184 148.642 6.887 146.99 6.4964 145.211C4.83727 147.776 3.78398 150.685 3.4164 153.717C2.9364 157.971 2.58972 163.651 4.40306 168.171C6.21639 172.691 10.8164 176.011 18.6031 180.691C26.3898 185.371 35.7231 190.024 42.1898 190.504C45.8794 190.843 49.5961 190.276 53.0165 188.851L53.1763 188.771C54.2523 185.349 55.5029 181.985 56.923 178.691C57.9738 176.695 59.3226 174.869 60.923 173.277L59.0565 169.971L58.7631 169.464L57.0298 168.304Z" fill="#404B4D"/>
    <path d="M58.6834 169.464L57.0301 168.304C53.3618 170.283 49.1568 171.035 45.0301 170.451C39.3901 169.544 30.6968 165.117 24.1501 161.197C17.6034 157.277 11.4035 152.718 8.92346 150.011C7.72225 148.642 6.88741 146.99 6.49681 145.211C5.7028 146.41 5.05382 147.699 4.56348 149.051C4.73154 150.911 5.35457 152.701 6.37765 154.264C7.40072 155.827 8.79244 157.113 10.4301 158.011C10.4301 158.011 15.2168 161.251 20.3101 164.331C24.7101 166.997 29.3368 169.477 31.2701 170.437C35.3173 172.712 39.8561 173.971 44.4968 174.104C50.4434 174.597 57.1368 171.011 58.9901 169.931L58.6834 169.464Z" fill="#5A6567"/>
    <path d="M24.0961 161.197C19.3307 158.381 14.8004 155.184 10.5494 151.638C9.2716 152.728 8.22832 154.067 7.48273 155.571C6.9094 157.384 6.80273 164.704 6.80273 164.704C10.3225 167.476 14.0291 170.003 17.8961 172.264C22.5321 175.2 27.3863 177.777 32.416 179.971L35.7228 172.491L39.376 168.864C34.0716 166.753 28.9593 164.188 24.0961 161.197Z" fill="#D9D9D9"/>
    <path d="M31.1495 171.184C29.2028 170.224 24.5761 167.744 20.1761 165.077C15.0961 161.997 10.3095 158.757 10.3095 158.757C8.97612 157.93 8.97612 160.09 8.97612 160.09L8.84277 165.584C10.8828 167.09 13.7628 168.917 18.3628 171.904C22.1448 174.266 26.0627 176.404 30.0961 178.304L31.8828 173.73C32.0165 173.52 32.1039 173.281 32.1392 173.034C32.1745 172.786 32.1569 172.533 32.0877 172.293C32.0184 172.052 31.8991 171.829 31.7373 171.638C31.5756 171.446 31.3752 171.292 31.1495 171.184Z" fill="#4D585A"/>
    <path d="M30.3223 177.544L31.829 173.677C31.9555 173.472 32.0386 173.241 32.0729 173.001C32.1071 172.761 32.0919 172.517 32.0282 172.284C31.9645 172.051 31.8537 171.832 31.7025 171.643C31.5513 171.455 31.3629 171.299 31.149 171.184C29.2023 170.224 24.5757 167.744 20.1757 165.077C15.0957 161.997 10.309 158.757 10.309 158.757L10.0824 158.651C9.95416 158.969 9.88632 159.308 9.88234 159.651L9.74902 165.144C11.789 166.651 14.6823 168.477 19.269 171.464C22.8347 173.7 26.5251 175.729 30.3223 177.544Z" fill="#1B2628"/>
    <path d="M10.5361 165.704L11.0295 166.051L11.5095 159.571L11.0161 159.237L10.5361 165.704Z" fill="#333E40"/>
    <path d="M12.9365 167.304L13.4298 167.624L14.0433 161.184L13.5498 160.864L12.9365 167.304Z" fill="#333E40"/>
    <path d="M15.9502 169.317L16.4302 169.624L17.2702 163.291L16.7902 162.984L15.9502 169.317Z" fill="#333E40"/>
    <path d="M19.1768 171.397L19.2701 171.464L19.6434 171.704L20.8701 165.504L20.4034 165.211L19.1768 171.397Z" fill="#333E40"/>
    <path d="M28.3496 176.637L28.8163 176.864L30.7895 171.077L30.3229 170.837L28.3496 176.637Z" fill="#333E40"/>
    <path d="M25.5498 175.117L26.0165 175.357L27.8431 169.464L27.3898 169.211L25.5498 175.117Z" fill="#333E40"/>
    <path d="M22.4023 173.371L22.869 173.637L24.4157 167.571L23.949 167.304L22.4023 173.371Z" fill="#333E40"/>
    <path d="M82.7627 165.851L83.0027 168.917C82.9972 169.056 83.0264 169.192 83.0874 169.316C83.1484 169.44 83.2394 169.547 83.352 169.625C83.4647 169.705 83.5954 169.755 83.7323 169.772C83.8692 169.788 84.008 169.769 84.136 169.717L152.323 130.531L153.656 125.051L82.7627 165.851Z" fill="#5A6567"/>
    <path d="M176.429 105.691L174.429 110.424C175.07 110.62 175.655 110.963 176.139 111.426C176.623 111.889 176.991 112.46 177.215 113.091C177.526 114.485 177.553 115.927 177.295 117.331C181.295 114.998 195.842 106.304 197.389 104.611C199.175 102.651 199.575 95.7979 199.682 93.5846C199.777 93.0619 199.747 92.5243 199.597 92.0149C199.447 91.5055 199.179 91.0385 198.815 90.6511L197.882 93.4379L176.429 105.691Z" fill="#5A6567"/>
    <path d="M10.5628 151.638C9.28496 152.728 8.24168 154.067 7.49609 155.571C7.49609 155.571 7.49609 155.664 7.49609 155.717C8.34367 156.631 9.32895 157.404 10.4161 158.011C10.4161 158.011 15.2028 161.251 20.2961 164.331C24.6961 166.997 29.3228 169.477 31.2561 170.437C32.7232 171.203 34.2323 171.883 35.7761 172.477L39.4161 168.864C34.0979 166.756 28.9721 164.191 24.0961 161.197C19.3353 158.38 14.8095 155.183 10.5628 151.638Z" fill="#E5E5E5"/>
    <path d="M30.7628 176.424C26.8819 174.568 23.1111 172.488 19.4695 170.197L16.8028 168.45C13.6428 166.41 11.4694 164.997 9.80273 163.797V164.424C11.4427 165.584 13.5495 166.957 16.5361 168.89L19.2028 170.624C22.8743 172.938 26.676 175.04 30.5893 176.917L30.7628 176.424Z" fill="#404B4D"/>
    <path d="M9.80273 163.051C11.4561 164.237 13.5893 165.611 16.6293 167.584L19.296 169.317C23.0664 171.696 26.9756 173.847 31.0027 175.757L31.1895 175.277C27.2 173.372 23.3225 171.239 19.5761 168.891L16.9095 167.144C13.6961 165.064 11.5094 163.651 9.81607 162.424L9.80273 163.051Z" fill="#404B4D"/>
    <path d="M9.84277 161.611C11.4961 162.797 13.6295 164.184 16.6695 166.157L19.3361 167.904C23.2464 170.363 27.2979 172.588 31.4695 174.571L31.6561 174.091C27.5312 172.127 23.5243 169.923 19.6561 167.491L16.9895 165.757C13.7628 163.664 11.5628 162.237 9.88277 161.011L9.84277 161.611Z" fill="#404B4D"/>
    <path d="M16.8431 164.637L19.5098 166.384C23.5342 168.9 27.7013 171.179 31.9898 173.211C32.0374 173.041 32.0686 172.867 32.0831 172.691C27.8629 170.673 23.7587 168.42 19.7898 165.944L17.1231 164.211C13.8165 162.064 11.6032 160.637 9.89648 159.384C9.89648 159.531 9.89648 159.624 9.89648 159.624V160.011C11.5498 161.237 13.7098 162.637 16.8431 164.637Z" fill="#404B4D"/>
    <path d="M35.8028 179.304C34.2028 178.984 33.9895 179.464 33.6961 180.171C33.4028 180.877 33.0428 181.917 33.6961 182.371C35.8509 183.131 38.0892 183.627 40.3628 183.851L40.8561 182.397L35.8028 179.304Z" fill="url(#paint13_linear_189_1393)"/>
    <path d="M40.6954 183.597C43.3727 183.661 46.0501 183.482 48.6953 183.064C49.2331 183.016 49.7526 182.844 50.2146 182.565C50.6766 182.285 51.0689 181.904 51.362 181.45C51.362 181.45 51.202 182.784 49.202 183.184C46.3162 183.83 43.354 184.068 40.402 183.89C38.1284 183.666 35.8902 183.17 33.7354 182.41C36.0235 182.974 38.3496 183.372 40.6954 183.597Z" fill="#4D585A"/>
    <path d="M40.4422 186.757L46.4422 186.584C46.4422 186.584 47.6155 186.664 47.1755 187.477C46.7355 188.291 46.3222 189.011 45.6955 189.251C43.684 189.612 41.6288 189.661 39.6022 189.397C36.6422 189.104 29.8688 186.171 27.8955 185.184V184.304C27.8955 184.304 35.1888 187.677 38.7488 188.304C38.7622 188.251 39.1355 186.704 40.4422 186.757Z" fill="#4D585A"/>
    <path d="M41.5501 188.091C42.4219 187.701 43.249 187.219 44.0167 186.651L40.4435 186.757C39.1102 186.757 38.8034 188.251 38.8034 188.251C35.2434 187.677 27.9502 184.251 27.9502 184.251V185.131C31.4917 186.872 35.1993 188.252 39.0167 189.251C39.5767 188.984 40.6301 188.464 41.5501 188.091Z" fill="#333E40"/>
    <path d="M47.1495 186.851C46.9475 186.691 46.7005 186.597 46.4429 186.584L44.0295 186.651C44.0165 186.856 44.0438 187.061 44.1101 187.256C44.1763 187.451 44.2802 187.629 44.4158 187.784C44.5514 187.937 44.7159 188.064 44.9002 188.155C45.0845 188.244 45.2847 188.299 45.4895 188.311C45.6945 188.324 45.8998 188.297 46.0942 188.231C46.2885 188.164 46.4678 188.06 46.6219 187.925C46.7761 187.789 46.9021 187.625 46.9926 187.44C47.0831 187.256 47.1365 187.056 47.1495 186.851Z" fill="#F0EFF0"/>
    <path d="M41.2958 180.344C39.444 180.137 37.6085 179.804 35.8025 179.344C35.7225 179.757 35.6025 180.544 35.8692 180.677C36.1358 180.811 40.8558 182.411 40.8558 182.411L41.2958 180.344Z" fill="#333E40"/>
    <g style="mix-blend-mode:multiply" opacity="0.2">
        <path d="M24.6428 178.517L12.8294 171.411C12.7448 171.36 12.6482 171.332 12.5494 171.331C12.4927 171.333 12.437 171.345 12.3856 171.369C12.3343 171.393 12.2884 171.428 12.2509 171.471C12.2134 171.513 12.185 171.563 12.1675 171.617C12.1501 171.671 12.1439 171.728 12.1494 171.784V174.091C12.156 174.267 12.2042 174.437 12.29 174.591C12.3758 174.744 12.4967 174.875 12.6428 174.971L24.3895 181.984C24.4741 182.036 24.5707 182.063 24.6695 182.064C24.9095 182.064 25.0695 181.877 25.0828 181.597L25.1895 179.424C25.1813 179.24 25.1271 179.06 25.0316 178.901C24.936 178.743 24.8024 178.611 24.6428 178.517Z" fill="black"/>
    </g>
    <path d="M24.4558 178.824L12.6558 171.704H12.5491C12.5491 171.704 12.5491 171.797 12.4824 171.837V174.131C12.4885 174.247 12.5204 174.359 12.5758 174.461C12.6312 174.563 12.7086 174.651 12.8024 174.717L24.5491 181.731H24.6558C24.6558 181.731 24.7225 181.651 24.7358 181.597L24.8291 179.411C24.8241 179.289 24.7869 179.171 24.7213 179.068C24.6557 178.964 24.5641 178.881 24.4558 178.824Z" fill="white"/>
    <path d="M8.61621 167.077V166.144C10.6295 167.637 13.4563 169.477 17.9496 172.264C21.796 174.678 25.7805 176.864 29.8829 178.81V179.784C29.8829 180.677 28.9363 180.21 28.9363 180.21C25.1696 178.374 21.5023 176.34 17.9496 174.117C13.9496 171.624 11.2829 169.89 9.3362 168.477C9.1142 168.317 8.93325 168.108 8.8081 167.864C8.68296 167.621 8.6172 167.352 8.61621 167.077Z" fill="#4D585A"/>
    <path d="M9.54937 166.811C9.54251 167.081 9.60067 167.351 9.71899 167.593C9.83731 167.837 10.0123 168.049 10.2294 168.211C12.1894 169.624 14.856 171.357 18.8427 173.851C22.3891 176.072 26.0521 178.103 29.816 179.931C29.8248 179.879 29.8248 179.824 29.816 179.771V178.797C25.7137 176.851 21.7291 174.665 17.8827 172.251C14.096 169.877 11.4827 168.197 9.54937 166.811Z" fill="#1B2628"/>
    <path d="M12.7627 169.971L13.2694 170.304V169.317L12.7627 168.984V169.971Z" fill="#404B4D"/>
    <path d="M10.416 168.358L10.9227 168.718V167.771L10.416 167.411V168.358Z" fill="#404B4D"/>
    <path d="M15.6426 171.837L16.1492 172.157V171.157L15.6426 170.837V171.837Z" fill="#404B4D"/>
    <path d="M18.8564 173.864L19.3631 174.184V173.157L18.8564 172.851V173.864Z" fill="#404B4D"/>
    <path d="M21.9629 175.744L22.4829 176.051V174.984L21.9629 174.691V175.744Z" fill="#404B4D"/>
    <path d="M25.2295 177.584L25.7362 177.864V176.757L25.2295 176.49V177.584Z" fill="#404B4D"/>
    <path d="M27.8701 178.971L28.3901 179.237V178.104L27.8701 177.851V178.971Z" fill="#404B4D"/>
    <path d="M46.762 186.637H46.4687H44.4287C44.4595 186.925 44.5958 187.192 44.8111 187.385C45.0266 187.579 45.3058 187.687 45.5954 187.687C45.885 187.687 46.1643 187.579 46.3796 187.385C46.595 187.192 46.7312 186.925 46.762 186.637Z" fill="white"/>
    <path d="M20.8965 169.451C20.8489 169.656 20.7534 169.847 20.6179 170.008C20.4825 170.168 20.3107 170.295 20.117 170.377C19.9233 170.459 19.713 170.493 19.5031 170.479C19.2933 170.464 19.0899 170.4 18.9098 170.291C18.5039 169.995 18.2035 169.575 18.0525 169.096C17.9013 168.616 17.9074 168.1 18.0698 167.624C18.1182 167.421 18.2134 167.233 18.3481 167.073C18.4826 166.915 18.6526 166.788 18.8446 166.707C19.0365 166.625 19.245 166.589 19.4531 166.603C19.6613 166.616 19.8634 166.679 20.0431 166.784C20.453 167.079 20.7574 167.496 20.911 167.976C21.0647 168.457 21.0597 168.973 20.8965 169.451Z" fill="#4D585A"/>
    <path d="M20.6831 169.331C20.6462 169.509 20.5666 169.676 20.4513 169.817C20.3361 169.959 20.1883 170.071 20.0209 170.143C19.8533 170.215 19.6709 170.245 19.4891 170.231C19.3073 170.217 19.1314 170.16 18.9765 170.064C18.6322 169.811 18.3762 169.456 18.2446 169.049C18.113 168.643 18.1125 168.205 18.2431 167.797C18.279 167.619 18.3582 167.451 18.4738 167.309C18.5893 167.168 18.7377 167.057 18.9059 166.987C19.0742 166.915 19.2573 166.887 19.4393 166.903C19.6211 166.919 19.7965 166.979 19.9498 167.077C20.2946 167.328 20.5514 167.68 20.6831 168.085C20.8149 168.489 20.8149 168.927 20.6831 169.331Z" fill="#D2D5D7"/>
    <path d="M5.64318 164.957L5.78985 162.291C5.73761 162.004 5.59238 161.741 5.37653 161.544C4.40218 160.129 3.63027 158.587 3.08319 156.957C2.96315 158.653 2.96315 160.356 3.08319 162.051L5.09651 165.144C5.09651 165.144 5.66985 165.971 5.64318 164.957Z" fill="#333E40"/>
    <path d="M73.429 151.545C73.429 151.545 73.1756 148.518 73.8956 147.411C74.2034 146.873 74.6792 146.451 75.2503 146.211C75.8212 145.97 76.4555 145.923 77.0556 146.078C78.5356 146.305 81.4956 147.185 81.6823 148.745C81.869 150.305 81.8688 155.197 81.8688 155.197C81.8231 155.607 81.6622 155.995 81.405 156.315C81.1476 156.636 80.8046 156.877 80.4156 157.011C78.7231 157.427 76.9846 157.624 75.2422 157.597C75.2422 157.597 73.3756 157.464 73.389 155.744C73.4023 154.024 73.429 151.545 73.429 151.545Z" fill="#404B4D"/>
    <path d="M77.0025 146.144C76.6362 146.039 76.2522 146.01 75.8745 146.06C75.4966 146.11 75.1331 146.237 74.8066 146.433C74.4801 146.63 74.1975 146.891 73.9766 147.202C73.7557 147.512 73.601 147.865 73.5225 148.238C75.0025 148.731 77.0425 149.398 77.8691 149.571C78.5265 149.661 79.1962 149.587 79.8177 149.354C80.4391 149.121 80.9929 148.738 81.4291 148.238C80.7225 147.038 78.2958 146.331 77.0025 146.144Z" fill="#5A6567"/>
    <path d="M70.0431 145.678C70.0431 145.678 71.8164 148.958 73.0564 149.598C74.5887 150.148 76.1755 150.532 77.7898 150.744V156.784H74.8964C74.3264 156.816 73.7572 156.712 73.2356 156.48C72.7139 156.248 72.255 155.895 71.8964 155.451C71.4164 154.744 70.0431 152.544 70.0431 152.544L69.8564 150.838C70.6388 152.386 71.6402 153.815 72.8298 155.077C73.9498 155.837 77.0698 155.757 77.0698 155.757V151.678C77.0698 151.678 74.1764 151.251 73.0698 150.918C71.9631 150.584 70.0564 147.571 70.0564 147.571L70.0431 145.678Z" fill="#333E40"/>
    <path d="M73.6963 147.704C72.9771 146.92 72.3132 146.087 71.7096 145.211L70.043 145.678C70.043 145.678 71.8163 148.958 73.0563 149.598C73.149 149.653 73.2474 149.697 73.3496 149.731C73.3538 149.041 73.4708 148.356 73.6963 147.704Z" fill="#5A6567"/>
    <path d="M81.7099 149.971C81.1077 150.673 80.3434 151.217 79.4834 151.558V155.331C80.2706 155.139 81.0317 154.853 81.7499 154.477C81.8033 153.384 81.7766 151.384 81.7099 149.971Z" fill="#C5CCD0"/>
    <path d="M73.3364 155.304C73.3364 153.624 73.3364 151.518 73.3364 151.518C73.3364 151.518 73.3364 151.304 73.3364 150.998L73.0831 150.918C72.7518 150.787 72.4551 150.582 72.2164 150.318L69.8564 150.838C70.6388 152.386 71.6402 153.815 72.8298 155.077C72.9879 155.179 73.1582 155.259 73.3364 155.317V155.304Z" fill="#4D585A"/>
    <path d="M19.8426 122.758V113.624C19.773 112.714 19.58 111.817 19.2692 110.958C18.8959 110.371 18.1359 110.238 16.9626 110.958C16.2042 111.368 15.5866 111.997 15.1896 112.762C14.7926 113.528 14.6346 114.395 14.7359 115.251C14.7278 116.949 14.8258 118.646 15.0292 120.331C15.3394 121.331 15.7882 122.282 16.3626 123.158C17.3254 123.449 18.3307 123.576 19.3359 123.531L19.8426 122.758Z" fill="#404B4D"/>
    <path d="M19.3894 123.491L19.8427 122.758V113.625C19.8427 113.625 19.8427 113.424 19.8427 113.131C18.9361 113.238 17.4827 113.785 17.3494 114.958C17.1894 116.291 17.0159 121.171 17.1093 123.331C17.8642 123.442 18.6263 123.496 19.3894 123.491Z" fill="#333E40"/>
    <path d="M17.2968 114.958C17.4301 113.784 18.8834 113.238 19.7901 113.131C19.7301 112.371 19.5548 111.625 19.2701 110.918C18.8968 110.331 18.1368 110.198 16.9634 110.918C16.1798 111.334 15.5528 111.994 15.1768 112.798C15.7726 113.693 16.4756 114.513 17.2701 115.238C17.271 115.144 17.28 115.05 17.2968 114.958Z" fill="#5A6567"/>
    <path d="M16.8291 122.678C17.6653 123.08 18.5701 123.32 19.4957 123.384L20.3224 122.051C19.1725 122.022 18.0507 121.691 17.0691 121.091L17.1757 117.304L22.5757 118.491L23.1891 117.504L17.0691 116.078L15.2157 113.864C14.8825 115.864 14.8825 117.905 15.2157 119.904C15.6771 120.871 16.2167 121.799 16.8291 122.678Z" fill="#404B4D"/>
    <path d="M19.8565 115.678L17.2031 116.145L23.1498 117.531L23.7498 116.598L19.8565 115.678Z" fill="#5A6567"/>
    <path d="M19.8426 121.038L17.0293 121.118C17.0293 121.118 17.536 121.771 20.2826 122.078L20.6026 121.558L19.8426 121.038Z" fill="#5A6567"/>
    <path d="M92.4835 147.691C92.4835 147.691 91.2702 148.305 91.1502 147.065C91.0302 145.825 90.9502 144.585 90.9502 143.998C90.9502 143.411 90.9501 142.344 91.5501 141.971C92.1501 141.598 93.2835 140.891 93.2835 140.891C93.2835 140.891 93.9901 140.331 94.1767 141.784C94.277 143.257 94.2234 144.736 94.0167 146.198C93.9767 146.731 93.3102 147.198 92.4835 147.691Z" fill="#5A6567"/>
    <path d="M93.3487 146.678C93.3487 146.678 92.2821 147.264 92.0954 147.344C91.9087 147.424 91.5621 147.251 91.4954 146.158C91.3518 145.074 91.3518 143.975 91.4954 142.891C91.9529 142.392 92.5121 141.996 93.1354 141.731C93.4954 141.584 93.9355 141.411 93.9489 142.398C93.9622 143.384 93.8554 145.184 93.8554 145.598C93.8607 145.805 93.8175 146.01 93.7297 146.198C93.6417 146.385 93.5113 146.549 93.3487 146.678Z" fill="#4E595B"/>
    <path d="M93.9495 142.398C93.9495 141.411 93.4962 141.584 93.1362 141.731C92.5128 141.996 91.9535 142.392 91.4962 142.891C91.4922 142.931 91.4922 142.971 91.4962 143.011C91.9079 142.693 92.3554 142.425 92.8295 142.211C93.2028 142.064 93.6295 141.891 93.6428 142.878C93.6562 143.864 93.5628 145.664 93.5628 146.078C93.5618 146.279 93.521 146.479 93.4428 146.664C93.6068 146.541 93.7378 146.379 93.8239 146.193C93.91 146.007 93.9486 145.802 93.9362 145.598C93.8562 145.184 93.9628 143.398 93.9495 142.398Z" fill="#414C4E"/>
    <path d="M92.816 146.971C92.816 146.971 92.816 144.544 92.816 143.464C92.8345 142.953 92.7148 142.446 92.4692 141.998L92.2559 142.264C92.4008 142.656 92.4993 143.063 92.5492 143.478V146.838L92.816 146.971Z" fill="#414C4E"/>
    <path d="M92.8164 146.971C92.8164 146.971 92.8164 144.544 92.8164 143.464C92.8349 142.953 92.7152 142.446 92.4697 141.998L93.0029 141.704C93.1777 142.136 93.316 142.582 93.4163 143.038V146.611L92.8164 146.971Z" fill="#5A6567"/>
    <g style="mix-blend-mode:multiply" opacity="0.2">
        <g style="mix-blend-mode:multiply" opacity="0.2">
            <path d="M33.0159 147.998L31.2559 149.824L31.3892 149.944L33.1359 148.117L33.0159 147.998Z" fill="black"/>
        </g>
        <g style="mix-blend-mode:multiply" opacity="0.2">
            <path d="M30.3797 146.465L28.626 148.293L28.751 148.413L30.5048 146.585L30.3797 146.465Z" fill="black"/>
        </g>
        <g style="mix-blend-mode:multiply" opacity="0.2">
            <path d="M29.7285 146.082L27.9746 147.91L28.0998 148.03L29.8535 146.202L29.7285 146.082Z" fill="black"/>
        </g>
        <g style="mix-blend-mode:multiply" opacity="0.2">
            <path d="M29.1226 145.731L27.376 147.558L27.496 147.678L29.2426 145.851L29.1226 145.731Z" fill="black"/>
        </g>
        <g style="mix-blend-mode:multiply" opacity="0.2">
            <path d="M28.509 145.344L26.749 147.184L26.869 147.304L28.629 145.464L28.509 145.344Z" fill="black"/>
        </g>
        <g style="mix-blend-mode:multiply" opacity="0.2">
            <path d="M27.9625 144.944L26.2158 146.771L26.3358 146.891L28.0958 145.051L27.9625 144.944Z" fill="black"/>
        </g>
        <g style="mix-blend-mode:multiply" opacity="0.2">
            <path d="M27.3762 144.504L25.6162 146.331L25.7362 146.451L27.4962 144.624L27.3762 144.504Z" fill="black"/>
        </g>
        <g style="mix-blend-mode:multiply" opacity="0.2">
            <path d="M26.7486 144.117L25.002 145.944L25.122 146.064L26.8686 144.238L26.7486 144.117Z" fill="black"/>
        </g>
        <g style="mix-blend-mode:multiply" opacity="0.2">
            <path d="M26.0823 143.691L24.3223 145.518L24.4423 145.638L26.2023 143.811L26.0823 143.691Z" fill="black"/>
        </g>
        <g style="mix-blend-mode:multiply" opacity="0.2">
            <path d="M25.4954 143.318L23.7354 145.144L23.8554 145.264L25.6154 143.438L25.4954 143.318Z" fill="black"/>
        </g>
        <g style="mix-blend-mode:multiply" opacity="0.2">
            <path d="M24.9088 142.891L23.1621 144.718L23.2821 144.824L25.0421 143.011L24.9088 142.891Z" fill="black"/>
        </g>
        <g style="mix-blend-mode:multiply" opacity="0.2">
            <path d="M24.2291 142.464L22.4824 144.291L22.6024 144.411L24.3624 142.584L24.2291 142.464Z" fill="black"/>
        </g>
        <g style="mix-blend-mode:multiply" opacity="0.2">
            <path d="M23.6428 142.104L21.8828 143.931L22.0161 144.051L23.7628 142.224L23.6428 142.104Z" fill="black"/>
        </g>
        <g style="mix-blend-mode:multiply" opacity="0.2">
            <path d="M23.1664 141.644L21.4131 143.473L21.5382 143.593L23.2916 141.764L23.1664 141.644Z" fill="black"/>
        </g>
        <g style="mix-blend-mode:multiply" opacity="0.2">
            <path d="M22.4827 141.184L20.7227 143.011L20.856 143.131L22.6027 141.304L22.4827 141.184Z" fill="black"/>
        </g>
        <g style="mix-blend-mode:multiply" opacity="0.2">
            <path d="M21.8824 140.704L20.1357 142.518L20.2557 142.638L22.0157 140.811L21.8824 140.704Z" fill="black"/>
        </g>
        <g style="mix-blend-mode:multiply" opacity="0.2">
            <path d="M33.6607 148.406L31.9062 150.234L32.0313 150.354L33.7857 148.526L33.6607 148.406Z" fill="black"/>
        </g>
        <g style="mix-blend-mode:multiply" opacity="0.2">
            <path d="M34.2561 148.758L32.4961 150.584L32.6294 150.704L34.3761 148.878L34.2561 148.758Z" fill="black"/>
        </g>
        <g style="mix-blend-mode:multiply" opacity="0.2">
            <path d="M34.9764 149.107L33.2227 150.935L33.3477 151.055L35.1015 149.227L34.9764 149.107Z" fill="black"/>
        </g>
        <g style="mix-blend-mode:multiply" opacity="0.2">
            <path d="M35.5754 149.451L33.8154 151.278L33.9354 151.398L35.6954 149.571L35.5754 149.451Z" fill="black"/>
        </g>
        <g style="mix-blend-mode:multiply" opacity="0.2">
            <path d="M36.2746 149.853L34.5195 151.679L34.6446 151.799L36.3995 149.973L36.2746 149.853Z" fill="black"/>
        </g>
        <g style="mix-blend-mode:multiply" opacity="0.2">
            <path d="M36.9621 150.238L35.2021 152.064L35.3221 152.184L37.0821 150.358L36.9621 150.238Z" fill="black"/>
        </g>
        <g style="mix-blend-mode:multiply" opacity="0.2">
            <path d="M37.6568 150.611L35.9033 152.44L36.0284 152.559L37.7819 150.731L37.6568 150.611Z" fill="black"/>
        </g>
        <g style="mix-blend-mode:multiply" opacity="0.2">
            <path d="M38.3762 150.958L36.6162 152.784L36.7495 152.904L38.4962 151.078L38.3762 150.958Z" fill="black"/>
        </g>
        <g style="mix-blend-mode:multiply" opacity="0.2">
            <path d="M39.0366 151.302L37.2842 153.131L37.4094 153.251L39.1618 151.422L39.0366 151.302Z" fill="black"/>
        </g>
        <g style="mix-blend-mode:multiply" opacity="0.2">
            <path d="M39.7153 151.597L37.9609 153.424L38.086 153.544L39.8404 151.717L39.7153 151.597Z" fill="black"/>
        </g>
        <g style="mix-blend-mode:multiply" opacity="0.2">
            <path d="M40.3442 151.969L38.5898 153.796L38.7149 153.916L40.4692 152.089L40.3442 151.969Z" fill="black"/>
        </g>
        <g style="mix-blend-mode:multiply" opacity="0.2">
            <path d="M41.0823 152.344L39.3223 154.17L39.4556 154.29L41.2023 152.451L41.0823 152.344Z" fill="black"/>
        </g>
        <g style="mix-blend-mode:multiply" opacity="0.2">
            <path d="M41.762 152.664L40.002 154.49L40.1353 154.61L41.882 152.784L41.762 152.664Z" fill="black"/>
        </g>
        <g style="mix-blend-mode:multiply" opacity="0.2">
            <path d="M42.4153 152.998L40.6553 154.824L40.7753 154.944L42.5353 153.117L42.4153 152.998Z" fill="black"/>
        </g>
    </g>
    <g style="mix-blend-mode:multiply" opacity="0.1">
        <g style="mix-blend-mode:multiply" opacity="0.1">
            <path d="M92.6693 164.944L92.3359 164.837C93.4559 161.677 95.5893 150.171 95.7626 140.918C95.9226 131.398 94.8025 117.518 94.7891 117.371H95.1359C95.1359 117.518 96.2693 131.411 96.0959 140.944C95.8967 149.051 94.7466 157.107 92.6693 164.944Z" fill="black"/>
        </g>
    </g>
    <path d="M14.7627 139.958C14.3172 139.696 13.9331 139.341 13.6364 138.918C13.3397 138.494 13.1372 138.012 13.0427 137.504C12.9496 136.097 13.103 134.685 13.496 133.331L13.7627 132.198L13.176 133.211C11.296 136.504 7.76267 142.851 7.06934 144.091C7.48406 146.236 8.69968 148.143 10.4693 149.424L10.6827 149.558V149.304C11.2293 146.198 14.7627 140.184 14.8027 140.131L14.896 139.971L14.7627 139.958Z" fill="#2E383B"/>
    <path d="M12.6965 137.558C12.5797 136.492 12.6473 135.414 12.8965 134.371C12.8965 134.465 12.8965 134.118 12.8965 133.731C11.1099 136.865 8.2432 142.011 7.2832 143.718C7.35931 143.867 7.40467 144.031 7.41654 144.198C7.82308 146.118 8.8951 147.832 10.4432 149.038C11.4249 145.936 12.7674 142.96 14.4433 140.171C13.987 139.88 13.5961 139.498 13.2954 139.048C12.9948 138.598 12.7908 138.091 12.6965 137.558Z" fill="#E3E3E4"/>
    <path d="M57.7363 155.064L57.5895 154.931L57.4695 155.091C56.3283 156.581 54.822 157.752 53.0962 158.491C52.0526 158.859 50.9487 159.027 49.8428 158.984C48.3054 158.969 46.7732 158.8 45.2695 158.477H45.1496V158.571C43.1083 161.237 41.272 164.055 39.6563 166.997L39.5762 167.171L39.7495 167.237C42.4364 168.24 45.2596 168.828 48.1228 168.984C48.6542 168.988 49.1848 168.948 49.7095 168.864C50.8663 168.615 51.9599 168.131 52.923 167.443C53.8859 166.755 54.6982 165.877 55.3095 164.864L55.7095 164.331C57.2962 162.451 59.1895 159.877 59.1762 158.291C59.132 157.069 58.6159 155.913 57.7363 155.064Z" fill="#2E383B"/>
    <path d="M57.6296 155.464C56.464 156.928 54.9517 158.079 53.2296 158.811C52.1424 159.192 50.9942 159.368 49.8429 159.331C48.3149 159.313 46.7924 159.148 45.2962 158.837C43.3277 161.415 41.5454 164.128 39.9629 166.957C42.5717 167.932 45.3149 168.499 48.0962 168.637C48.6094 168.645 49.1222 168.609 49.6296 168.531C50.7349 168.275 51.777 167.797 52.6934 167.128C53.61 166.46 54.3818 165.612 54.9629 164.637L55.3762 164.077C57.5762 161.491 58.7762 159.424 58.7629 158.264C58.738 157.224 58.335 156.229 57.6296 155.464Z" fill="#E3E3E4"/>
    <path d="M57.4296 160.011C57.4296 160.677 56.9629 160.944 56.3896 160.611C56.0859 160.415 55.8333 160.149 55.6524 159.836C55.4716 159.524 55.3679 159.172 55.3496 158.811C55.3496 158.144 55.8163 157.877 56.3896 158.211C56.6909 158.409 56.9419 158.676 57.1224 158.988C57.3031 159.3 57.4081 159.651 57.4296 160.011Z" fill="#F09041"/>
    <path d="M54.6825 163.691C54.6825 165.024 53.7625 165.518 52.6425 164.864C52.0464 164.48 51.5504 163.959 51.1956 163.344C50.8408 162.73 50.6376 162.04 50.6025 161.331C50.6025 159.998 51.5092 159.504 52.6425 160.158C53.2344 160.547 53.7269 161.07 54.0812 161.683C54.4353 162.296 54.6413 162.984 54.6825 163.691Z" fill="white"/>
    <path d="M49.9096 165.704C49.9096 167.451 48.6696 168.171 47.1496 167.291C46.3467 166.768 45.6784 166.064 45.1988 165.235C44.7192 164.405 44.442 163.475 44.3896 162.517C44.3896 160.757 45.6296 160.051 47.1496 160.917C47.9528 161.444 48.6211 162.151 49.1006 162.981C49.58 163.813 49.8571 164.747 49.9096 165.704Z" fill="white"/>
    <path d="M12.7623 143.304C12.4921 142.494 12.0354 141.759 11.429 141.158C10.4556 140.304 9.66895 140.998 9.66895 142.691C9.68791 144.215 10.1768 145.696 11.069 146.931C11.5756 145.678 12.1756 144.398 12.7623 143.304Z" fill="white"/>
    <path d="M13.2032 139.305C13.0157 138.802 12.7198 138.347 12.3365 137.971C11.5632 137.291 10.9365 137.838 10.9365 139.185C10.9454 139.602 10.9991 140.018 11.0965 140.425L13.2032 139.305Z" fill="white"/>
    <path d="M12.6965 137.558C12.5797 136.492 12.6473 135.414 12.8965 134.371C12.8965 134.465 12.8965 134.118 12.8965 133.731C11.1099 136.865 8.2432 142.011 7.2832 143.718C7.35931 143.867 7.40467 144.031 7.41654 144.198C7.82308 146.118 8.8951 147.832 10.4432 149.038C11.4249 145.936 12.7674 142.96 14.4433 140.171C13.987 139.88 13.5961 139.498 13.2954 139.048C12.9948 138.598 12.7908 138.091 12.6965 137.558Z" fill="url(#paint14_linear_189_1393)"/>
    <path d="M57.6296 155.464C56.464 156.928 54.9517 158.079 53.2296 158.811C52.1424 159.192 50.9942 159.368 49.8429 159.331C48.3149 159.313 46.7924 159.148 45.2962 158.837C43.3277 161.415 41.5454 164.128 39.9629 166.957C42.5717 167.932 45.3149 168.499 48.0962 168.637C48.6094 168.645 49.1222 168.609 49.6296 168.531C50.7349 168.275 51.777 167.797 52.6934 167.128C53.61 166.46 54.3818 165.612 54.9629 164.637L55.3762 164.077C57.5762 161.491 58.7762 159.424 58.7629 158.264C58.738 157.224 58.335 156.229 57.6296 155.464Z" fill="url(#paint15_linear_189_1393)"/>
    <path d="M197.882 93.491L198.816 90.7043L198.709 75.9443L197.056 80.7443V93.971L197.882 93.491Z" fill="#BD1E2D"/>
    <path d="M198.763 81.8914L197.937 82.798V90.038L198.803 88.8646L198.763 81.8914Z" fill="#E3E3E4"/>
    <defs>
        <linearGradient id="paint0_linear_189_1393" x1="64.9896" y1="186.717" x2="67.9761" y2="175.771" gradientUnits="userSpaceOnUse">
            <stop stop-color="#C2C1C1"/>
            <stop offset="1" stop-color="#DFDEDD"/>
        </linearGradient>
        <linearGradient id="paint1_linear_189_1393" x1="65.4295" y1="185.144" x2="68.8162" y2="173.771" gradientUnits="userSpaceOnUse">
            <stop stop-color="#B8B7B7"/>
            <stop offset="1" stop-color="#DFDEDD"/>
        </linearGradient>
        <linearGradient id="paint2_linear_189_1393" x1="3006.19" y1="3777.45" x2="2975.64" y2="3865.59" gradientUnits="userSpaceOnUse">
            <stop stop-color="#C2C1C1"/>
            <stop offset="1" stop-color="#DFDEDD"/>
        </linearGradient>
        <linearGradient id="paint3_linear_189_1393" x1="614.034" y1="829.49" x2="616.761" y2="829.49" gradientUnits="userSpaceOnUse">
            <stop stop-color="#C2C1C1"/>
            <stop offset="1" stop-color="#DFDEDD"/>
        </linearGradient>
        <linearGradient id="paint4_linear_189_1393" x1="4033.93" y1="3223.95" x2="4072.58" y2="3115.29" gradientUnits="userSpaceOnUse">
            <stop stop-color="#C2C1C1"/>
            <stop offset="1" stop-color="#DFDEDD"/>
        </linearGradient>
        <linearGradient id="paint5_linear_189_1393" x1="4041.07" y1="3201.91" x2="4084.37" y2="3089.91" gradientUnits="userSpaceOnUse">
            <stop stop-color="#B8B7B7"/>
            <stop offset="1" stop-color="#DFDEDD"/>
        </linearGradient>
        <linearGradient id="paint6_linear_189_1393" x1="3889.59" y1="3112.68" x2="3858.91" y2="3200.79" gradientUnits="userSpaceOnUse">
            <stop stop-color="#C2C1C1"/>
            <stop offset="1" stop-color="#DFDEDD"/>
        </linearGradient>
        <linearGradient id="paint7_linear_189_1393" x1="861.115" y1="662.119" x2="863.841" y2="662.119" gradientUnits="userSpaceOnUse">
            <stop stop-color="#C2C1C1"/>
            <stop offset="1" stop-color="#DFDEDD"/>
        </linearGradient>
        <linearGradient id="paint8_linear_189_1393" x1="57.0293" y1="165.624" x2="82.816" y2="165.624" gradientUnits="userSpaceOnUse">
            <stop stop-color="white"/>
            <stop offset="0.52" stop-color="white"/>
            <stop offset="1" stop-color="white"/>
        </linearGradient>
        <linearGradient id="paint9_linear_189_1393" x1="81.0923" y1="246.355" x2="81.0924" y2="246.355" gradientUnits="userSpaceOnUse">
            <stop stop-color="white"/>
            <stop offset="0.52" stop-color="white"/>
            <stop offset="1" stop-color="white"/>
        </linearGradient>
        <linearGradient id="paint10_linear_189_1393" x1="8196.83" y1="5288.8" x2="8584.91" y2="5288.8" gradientUnits="userSpaceOnUse">
            <stop stop-color="white"/>
            <stop offset="0.52" stop-color="white"/>
            <stop offset="1" stop-color="white"/>
        </linearGradient>
        <linearGradient id="paint11_linear_189_1393" x1="68.0695" y1="105.651" x2="79.7761" y2="112.438" gradientUnits="userSpaceOnUse">
            <stop stop-color="white"/>
            <stop offset="1" stop-color="white"/>
        </linearGradient>
        <linearGradient id="paint12_linear_189_1393" x1="6363.61" y1="4743.28" x2="6569.53" y2="4860.55" gradientUnits="userSpaceOnUse">
            <stop stop-color="white"/>
            <stop offset="1" stop-color="white"/>
        </linearGradient>
        <linearGradient id="paint13_linear_189_1393" x1="35.8695" y1="179.304" x2="37.2828" y2="182.624" gradientUnits="userSpaceOnUse">
            <stop stop-color="#394142"/>
            <stop offset="0.36" stop-color="#7A8B8F"/>
            <stop offset="1" stop-color="#515B5E"/>
        </linearGradient>
        <linearGradient id="paint14_linear_189_1393" x1="1770.72" y1="3668.8" x2="1755.64" y2="3763.52" gradientUnits="userSpaceOnUse">
            <stop stop-color="white"/>
            <stop offset="1" stop-color="white"/>
        </linearGradient>
        <linearGradient id="paint15_linear_189_1393" x1="5182.17" y1="3396.99" x2="5218.83" y2="3509.28" gradientUnits="userSpaceOnUse">
            <stop stop-color="white"/>
            <stop offset="1" stop-color="white"/>
        </linearGradient>
    </defs>
</svg>